<svg data-name="Layer 1" id="Layer_1" viewBox="0 0 356.79 356.82"
    xmlns="http://www.w3.org/2000/svg">
    <path
        d="M561.14,1087.89c-19.93-3.55-24.92-6.82-37.41-15.65-3.27,3.38-6.74,6.75-9.9,10.39-.59.68-.15,2.51.21,3.68a18,18,0,0,1-10.2,22,17.75,17.75,0,0,1-22.68-8.45c-3.32-6.81-2.56-13.38,2.12-19.33a17.16,17.16,0,0,1,18.89-5.63c2.53.84,4.05.49,5.82-1.41,2.72-2.92,5.76-5.53,8.84-8.45a67.3,67.3,0,0,1-15.61-37.47c-4.92,0-9.64-.16-14.33.14-1,.06-2.08,1.72-2.74,2.86-3.61,6.29-9,9.76-16.22,9.62s-12.7-3.62-15.79-10.22a17.07,17.07,0,0,1,2.08-18.7,17.7,17.7,0,0,1,29.95,3.12c1.09,2.18,2.24,2.82,4.51,2.72,4-.18,8,0,12.43,0a67.56,67.56,0,0,1,15.7-37.32c-3.53-3.4-6.76-6.71-10.24-9.73-.74-.65-2.49-.62-3.59-.29-10.89,3.36-21.75-2.53-24.22-13.25-2.44-10.56,4.63-20.71,15.63-22.42,13.28-2.07,24.22,11.39,19.58,24.35-.88,2.47-.36,3.77,1.34,5.41,2.87,2.77,5.51,5.79,8.44,8.91a67.54,67.54,0,0,1,37.39-15.66c0-4.85.17-9.47-.12-14.05-.07-1-1.54-2.3-2.67-2.92A17.93,17.93,0,1,1,584,920.57a17.63,17.63,0,0,1-9.79,19.58,3.9,3.9,0,0,0-2.59,4.26c.14,4.1,0,8.22,0,11.86,6.86,1.94,13.55,3.2,19.69,5.76s11.78,6.39,18.3,10c2.8-2.9,6.19-6.21,9.28-9.78.6-.7.31-2.5,0-3.65-3-9.93,2.41-20.11,12.26-22.65,10.09-2.6,19.8,3.69,21.76,14.12,2.31,12.27-9.44,23.21-21.57,19.75-3.19-.91-5-.26-7.06,2-2.51,2.74-5.44,5.1-8.29,7.71a67.35,67.35,0,0,1,15.71,37.49c4.85,0,9.69.11,14.51-.11.82,0,1.81-1.42,2.32-2.38,4.16-7.89,12.36-11.68,20.77-9.49a17.87,17.87,0,0,1-1.93,34.93,17.6,17.6,0,0,1-18.76-10c-.93-1.9-1.94-2.52-4-2.45-4.23.15-8.46,0-12.93,0A67.28,67.28,0,0,1,616,1065c3.46,3.29,6.69,6.61,10.24,9.54.9.74,3,.59,4.28.21A18,18,0,0,1,653,1086.54a17.7,17.7,0,0,1-11.79,22.34c-6.76,2-12.94.57-18-4.49s-6.49-11-4.4-17.59c.9-2.84.41-4.51-1.69-6.42-2.76-2.52-5.18-5.4-8-8.41a67.56,67.56,0,0,1-37.49,15.64c0,5-.12,9.79.11,14.6,0,.8,1.51,1.73,2.5,2.26,7.08,3.74,11,11.06,9.91,18.6a17.93,17.93,0,0,1-14.3,15,17.72,17.72,0,0,1-20.15-11.19,17.48,17.48,0,0,1,8.07-21.84c2.66-1.37,3.58-2.82,3.39-5.69C561,1095.64,561.14,1091.88,561.14,1087.89Zm60.18-65.46a54.9,54.9,0,1,0-109.79.4c.12,30.17,24.85,54.5,55.3,54.41A54.82,54.82,0,0,0,621.32,1022.43Zm50.72-.12a7.41,7.41,0,1,0-7.36,7.44A7.54,7.54,0,0,0,672,1022.31Zm-98.24,98.35a7.42,7.42,0,0,0-7.25-7.48,7.41,7.41,0,1,0,7.25,7.48Zm-98.24-98.24a7.37,7.37,0,0,0-7.23-7.48,7.41,7.41,0,0,0-.17,14.81A7.4,7.4,0,0,0,475.56,1022.42Zm91-90.91a7.4,7.4,0,0,0-.28-14.79,7.4,7.4,0,1,0,.28,14.79ZM636,1099a7.18,7.18,0,0,0,7.22-7.47,7.35,7.35,0,0,0-14.7.29A7.12,7.12,0,0,0,636,1099Zm-.25-138.85a7.28,7.28,0,1,0-7.23-7.45A7.2,7.2,0,0,0,635.79,960.17ZM497,960.2a7.3,7.3,0,1,0-7.32-7.29A7.21,7.21,0,0,0,497,960.2ZM497,1099a7.1,7.1,0,0,0,7.3-7.35,7.31,7.31,0,0,0-14.61,0A7.09,7.09,0,0,0,497,1099Z"
        fill="#f7691d" transform="translate(-361.65 -781.61)" />
    <path
        d="M615.48,877.9,604.74,852c-2.81,0-6.78.05-10.75,0-3.75-.06-6-2.13-5.91-5.3.07-3,2.29-5.05,5.77-5.15,4-.11,8,0,10.92,0l10.66-25.66c-1.51-1.37-4.06-3.56-6.45-5.9-3.89-3.8-4.38-6.71-1.73-9.28,2.45-2.37,5.5-1.83,9,1.76,2.35,2.41,4.57,4.95,6.06,6.57L648,798.32c0-2.92,0-6.78,0-10.65.05-3.69,2.15-6.06,5.2-6.06s5.18,2.36,5.26,6.07c.08,3.86,0,7.73,0,11.52,4.38,1.32,8.67,2.25,12.65,3.9s7.71,4,12.56,6.62c2.19-2.42,4.67-5.35,7.34-8.09s6-3.09,8.22-.87,1.94,5.39-.84,8.24c-2.61,2.68-5.31,5.28-7.3,7.25,3.55,8.51,6.88,16.48,10.55,25.29,2.67,0,6.5,0,10.32,0,4,.06,6.43,2.14,6.41,5.3S716,852,712,852c-3.73,0-7.46,0-10.26,0l-10.72,26c1.7,1.51,4.68,3.94,7.44,6.6s3.14,6,.9,8.21-5.3,2.12-8.22-.77c-2.65-2.64-5.17-5.42-7.07-7.42l-25.49,10.66c0,2.57,0,6.4,0,10.22-.06,4.06-2,6.42-5.23,6.44s-5.2-2.26-5.25-6.35c0-3.74,0-7.48,0-10.33l-26.14-10.8c-1.4,1.65-3.77,4.67-6.41,7.44-2.89,3-5.83,3.3-8.2,1.06s-2.23-5.42.9-8.47C610.85,881.94,613.7,879.51,615.48,877.9Zm37.5,5.78a36.87,36.87,0,1,0-36.57-36.82A36.82,36.82,0,0,0,653,883.68Z"
        fill="#f7691d" transform="translate(-361.65 -781.61)" />
    <path
        d="M464.67,903.86c1.94,1.81,4.86,4.36,7.58,7.09s2.93,5.64.75,7.95-5.42,2.16-8.21-.66-5.26-5.66-7.91-8.52c-7.2,5.36-14.46,8.76-22.66,10.1-.84.14-2,1.71-2.05,2.69-.25,3.36-.08,6.75-.12,10.12s-1.85,5.14-5,5.48c-2.89.31-5.3-2.12-5.43-5.46-.14-4,0-8,0-12-4.4-1.33-8.78-2.31-12.85-4s-7.69-4.05-12.31-6.54c-2.35,2.58-4.86,5.51-7.57,8.26s-5.75,2.87-8,.79-2.13-5.4.65-8.22,5.53-5.35,7.41-7.17l-10.55-25.5c-2.83,0-6.68,0-10.53,0s-6.37-2.31-6.23-5.47,2.52-5,6.28-5c3.12-.05,6.26.15,9.36-.11,1-.09,2.56-1.19,2.7-2,1.34-8.2,4.68-15.49,10.21-22.76-2.89-2.62-5.83-5.12-8.59-7.82s-3.05-6-.74-8.2,5.31-2,8.23.93c2.63,2.65,5.12,5.46,6.89,7.35l25.57-10.68c0-2.41,0-6,0-9.61,0-4.55,2-7.12,5.37-7.06s5.09,2.47,5.12,6.88c0,3.61,0,7.22,0,9.83l26,10.73c1.55-1.74,4-4.71,6.68-7.46,2.84-2.93,5.92-3.15,8.21-.86s2.09,5.3-.82,8.22c-2.64,2.65-5.41,5.16-7.41,7,3.69,8.83,7.06,16.91,10.68,25.59,2.66,0,6.4,0,10.14,0,4.09,0,6.44,1.9,6.51,5.1s-2.4,5.35-6.67,5.39c-3.61,0-7.23,0-10,0C471.77,886.74,468.42,894.82,464.67,903.86Zm-1-30.72a36.86,36.86,0,1,0-37.13,36.67A36.63,36.63,0,0,0,463.68,873.14Z"
        fill="#f7691d" transform="translate(-361.65 -781.61)" />
    <path
        d="M593,1007.93a8.45,8.45,0,0,1,8.68,8.39,8.65,8.65,0,0,1-8.67,8.86,8.87,8.87,0,0,1-8.58-8.68A8.6,8.6,0,0,1,593,1007.93Z"
        fill="#f7691d" transform="translate(-361.65 -781.61)" />
    <path
        d="M548.4,1031a8.51,8.51,0,0,1-8.55,8.56,8.63,8.63,0,1,1,.11-17.25A8.55,8.55,0,0,1,548.4,1031Z"
        fill="#f7691d" transform="translate(-361.65 -781.61)" />
    <path
        d="M557.29,989.41a6.36,6.36,0,0,1,6.2,6.56,6.17,6.17,0,0,1-6.47,6.21,6.45,6.45,0,0,1-6.3-6.49A6.6,6.6,0,0,1,557.29,989.41Z"
        fill="#f7691d" transform="translate(-361.65 -781.61)" />
    <path
        d="M578.44,1042.53a6.33,6.33,0,0,1,6.25,6.49,6.4,6.4,0,1,1-12.79-.29A6.33,6.33,0,0,1,578.44,1042.53Z"
        fill="#f7691d" transform="translate(-361.65 -781.61)" />
    <path
        d="M647.43,834a6.41,6.41,0,0,1-6.21,6.58,6.61,6.61,0,0,1-6.57-6.3,6.41,6.41,0,0,1,6.3-6.48A6.18,6.18,0,0,1,647.43,834Z"
        fill="#f7691d" transform="translate(-361.65 -781.61)" />
    <path
        d="M677.26,845.81a6.43,6.43,0,0,1-6.58,6.21,6.22,6.22,0,0,1-6.19-6.5,6.33,6.33,0,0,1,6.48-6.27A6.58,6.58,0,0,1,677.26,845.81Z"
        fill="#f7691d" transform="translate(-361.65 -781.61)" />
    <path
        d="M646.31,858.25a6.48,6.48,0,0,1,6.3,6.5,6.28,6.28,0,0,1-6.45,6.28,6.35,6.35,0,0,1-6.32-6.43A6.49,6.49,0,0,1,646.31,858.25Z"
        fill="#f7691d" transform="translate(-361.65 -781.61)" />
    <path
        d="M438,856.06a6.41,6.41,0,0,1-6.3,6.47,6.3,6.3,0,0,1-6.46-6.26,6.38,6.38,0,0,1,6.25-6.51A6.51,6.51,0,0,1,438,856.06Z"
        fill="#f7691d" transform="translate(-361.65 -781.61)" />
    <path
        d="M408.33,869.18a6.28,6.28,0,0,1,6.45,6.27,6.46,6.46,0,0,1-6.29,6.5,6.54,6.54,0,0,1-6.48-6.34A6.35,6.35,0,0,1,408.33,869.18Z"
        fill="#f7691d" transform="translate(-361.65 -781.61)" />
    <path
        d="M440.23,880.9a6.29,6.29,0,0,1,6.2,6.52A6.37,6.37,0,0,1,440,893.7a6.62,6.62,0,0,1-6.3-6.56A6.48,6.48,0,0,1,440.23,880.9Z"
        fill="#f7691d" transform="translate(-361.65 -781.61)" />
</svg>