<svg data-name="Layer 1" id="Layer_1" viewBox="0 0 384 384" xmlns="http://www.w3.org/2000/svg">
    <path
        d="M348,893.25c2.1-3.76,3.58-8.09,6.41-11.17,5.93-6.45,13.67-8.11,22-5.34s13.65,8.71,14.38,17.44a269.67,269.67,0,0,1,.38,27.72c-.07,3.43,1.12,4.67,4.25,5.61,14.58,4.37,29,9.15,43.62,13.49,10.47,3.11,16.57,9.7,18,20.58a5.79,5.79,0,0,0,.48,1.17H524c.17-1.78.26-3.6.53-5.4,2.61-17.63,15.81-29.62,33.83-30,17.37-.37,34.75-.12,52.12-.08,4.4,0,6.86,2.26,6.77,5.8s-2.44,5.4-6.72,5.41c-16.5,0-33,0-49.49,0-16.31,0-25.53,9.26-25.53,25.6v75.65h152V938.5h-47a19.28,19.28,0,0,1-4.1-.23c-2.61-.57-4.55-2.41-4.08-5a10.83,10.83,0,0,1,3.54-5.45c.89-.81,2.86-.56,4.34-.56,14.87,0,29.75-.07,44.62,0,2.41,0,3.66-.54,4.7-3a21.21,21.21,0,0,1,23.14-12.67c10.46,1.93,17.78,9.86,18,20.47.31,15.86.13,31.74.13,47.61q0,31.68,0,63.37c0,6.59-1.63,8.2-8.17,8.22H710.5a25.55,25.55,0,0,0-.31,2.76c0,13.5,0,27-.06,40.49,0,2.24.64,3.17,2.84,3.89,9.36,3.06,15.25,9.6,18.12,19,.25.8.6,1.57.91,2.35v9c-1.76,6.13-3.89,12.3-9.25,16.07-4.25,3-9.3,4.83-14,7.18H700.5a2.47,2.47,0,0,0-.65-.36,27.68,27.68,0,0,1-22.71-25c-.7-13.6,5.81-23,19.91-28.69.75-.3,1.75-1.23,1.77-1.88.15-5.33.08-10.66.08-16.07H385.66c0,4.81.14,9.41-.06,14-.11,2.51.62,3.64,3.13,4.49a27,27,0,0,1,18.77,26.84,27.46,27.46,0,0,1-20.39,25.74c-.81.23-1.57.6-2.36.9h-9a7.5,7.5,0,0,0-1.31-.63c-12.86-3.3-21.29-13.21-21.84-25.72-.55-12.29,7-23.17,19.28-27.29,2.46-.82,2.55-2.13,2.54-4.09,0-13.24,0-26.48,0-39.72,0-1-.15-1.93-.25-3.24-6.17,0-12.14-.12-18.1,0-3.38.1-6.07-.82-8.05-3.61V973.5c2.08-2.31,4.38-4.24,7.73-2.87s3.55,4.39,3.54,7.54q-.06,28.86,0,57.74c0,1.31.11,2.62.17,3.92H524v-20.55H387.78c-6.11,0-7.76-1.64-7.77-7.76q0-19.5,0-39,0-36.56,0-73.11c0-3.75-.51-7.27-3.51-9.89a9.82,9.82,0,0,0-10.83-1.86c-4.38,1.82-6.41,5.38-6.41,10.08q0,24.93,0,49.87c0,3.17-.29,6.06-3.75,7.39s-5.58-.83-7.52-3.24Zm38,158.27v16.82H698.62v-16.82Zm5.46-43.76H524v-33.3H391.44Zm327.91,32.09c.07-1.5.18-2.84.19-4.17v-100a31.26,31.26,0,0,0-.19-4.11,9.65,9.65,0,0,0-6.64-8.29c-3.87-1.45-7.36-.59-10.43,2.1-2.89,2.53-3.38,5.87-3.38,9.51q.06,50.57,0,101.14c0,1.21.1,2.43.16,3.83Zm-274-77.09c0-5-2.62-8.67-7.62-10.28-8.53-2.76-17.1-5.42-25.66-8.09-6.75-2.11-13.52-4.18-20.61-6.36v24.73Zm-65.3,145.58a16.2,16.2,0,0,0-16.26,16.07,16.38,16.38,0,0,0,16.08,16.33,16.2,16.2,0,0,0,16.37-16.33A16,16,0,0,0,380.08,1108.34Zm324.5,0a16,16,0,0,0-16.24,16,16.15,16.15,0,0,0,15.9,16.41,16.21,16.21,0,1,0,.34-32.41Z"
        fill="#f7691d" transform="translate(-348 -768)" />
    <path
        d="M533.25,768c5.18,1.26,10.46,2.2,15.51,3.85a73,73,0,0,1,49.62,76.83c-3.68,34-30.33,61.09-64,65-40,4.6-75.39-22.81-81.18-62.84-5.59-38.55,21.72-75.37,60.74-81.91,1.45-.24,2.88-.6,4.32-.9Zm-69.42,73c-.23,33.7,27.51,61.73,61.29,61.94A61.86,61.86,0,1,0,463.83,841Z"
        fill="#f7691d" transform="translate(-348 -768)" />
    <path d="M708.75,1152c4.7-2.35,9.75-4.2,14-7.18,5.36-3.77,7.49-9.94,9.25-16.07V1152Z"
        fill="#fff" transform="translate(-348 -768)" />
    <path
        d="M544.09,859.94c-1.09,6.95,2.06,14.93-4.66,20.67-5.41,4.63-11.89,2.71-18,3s-11-2.09-12.73-7.78c-1.5-5-1.23-10.54-1.8-16.44-3,0-6.34,0-9.65,0-8.93-.09-14.19-5.36-14.25-14.24,0-3.13-.06-6.25,0-9.37a12.93,12.93,0,0,1,12.81-13c3.72-.14,7.45,0,11.29,0,1.28-7.53-2.07-15.89,5.25-21.58,5.3-4.13,11.5-2.43,17.37-2.71,6.09-.28,11.27,2.12,13,8,1.46,5,1.14,10.52,1.62,16,7.12,1,15.44-2.06,21.13,5.15,4.41,5.6,2.74,12.21,2.82,18.46.07,5.76-2.69,10.56-8.26,12.1C555.1,859.67,549.71,859.43,544.09,859.94Zm-25.38-39.77c0,2.5.08,5,0,7.49-.19,4.43-2.14,6.3-6.55,6.39-2.62.05-5.24,0-7.86,0-10.26,0-10.18,0-10.07,10.41,0,2.71.86,3.84,3.66,3.76,4.86-.14,9.73-.09,14.6,0,4,.07,6,1.95,6.19,5.94.16,2.74.05,5.49.05,8.24,0,10.52,0,10.46,10.7,10.09,2.42-.08,3.31-.89,3.25-3.31q-.18-7.29,0-14.6c.1-4.36,2.16-6.29,6.55-6.37,2.62,0,5.24,0,7.86,0,11.83-.24,9.86,2.21,10.08-10.79.05-2.37-.88-3.41-3.31-3.36-4.61.1-9.23.05-13.85,0-5.49,0-7.31-1.88-7.35-7.48,0-4.62.11-9.24-.1-13.85,0-1-1.25-2.76-2-2.78-3.7-.14-7.73-.61-10.95.72-1.24.51-.65,5.46-.89,8.39C518.69,819.42,518.72,819.8,518.71,820.17Z"
        fill="#f7691d" transform="translate(-348 -768)" />
</svg>