<svg data-name="Layer 1" id="Layer_1" viewBox="0 0 356.45 409.02"
    xmlns="http://www.w3.org/2000/svg">
    <path
        d="M362.15,1164.6c0-18.89-.32-37.79,0-56.68.38-20.86,13.53-37.15,33.2-44.12,18-6.38,35.55-14,53.3-21.06a20,20,0,0,0,2.21-1.28c-27.43-6.28-55-10.67-75.92-30.91.26-.57.3-.88.48-1,16.32-11.38,22.8-28.41,25.7-46.91,3.29-21,5.65-42.15,8.07-63.28,2.9-25.26,6.39-50.35,15.92-74.2,14.6-36.54,41.3-58.62,79.79-66,28.61-5.5,57.19-5,85.2,3.82,26.81,8.42,46.64,25.28,59.61,50.28,10.82,20.85,15.95,43.32,18.95,66.34,3.23,24.78,5.39,49.71,9.07,74.42,1.71,11.44,5.58,22.63,9.14,33.71,2.22,6.92,7,12.47,12.63,17.15,1.94,1.62,3.86,3.25,6,5.06a59.34,59.34,0,0,1-17.2,13.35c-16.57,8.64-34.45,13.11-52.6,16.73l-6.56,1.34c2,1,3.16,1.72,4.39,2.21,18.63,7.38,37.4,14.4,55.86,22.17,18.11,7.62,28,21.79,28.71,41.4.66,19.13.14,38.31.13,57.47ZM494.8,1026.43c-5.53,12.61-15.26,19.89-26.16,25.31-21.76,10.83-43.84,21-67.16,28.15-14.12,4.33-22.34,15-22.47,29.83-.1,11.57,0,23.15,0,34.73,0,.9.13,1.8.22,2.82h322.1c0-13.65.5-27-.14-40.24-.62-12.73-7.39-22.38-19.57-26-18.3-5.5-35.42-13.71-52.89-21.08-17.05-7.18-34-14.9-43.31-33.29C555.32,1051.05,525.16,1051.1,494.8,1026.43ZM447,908.72c.9,6.91,1.2,13.6,2.69,20,9.09,39.06,31.12,69.06,64.69,90.66,6.94,4.47,14.53,7.87,22.92,8.63,11.51,1,21.24-4,30.56-9.77,18.19-11.27,32.49-26.55,44-44.4,18-28,25.46-58.15,18.56-91.24a5.32,5.32,0,0,0-4.4-4.7,173.53,173.53,0,0,1-42-17.81c-8.48-4.93-16.62-10.43-25.15-15.82C526.73,873.88,491.51,898.48,447,908.72Zm-20-14.49c.88,0,1.39,0,1.89,0,26.19-2.77,49.82-12.59,72-26.32,28.08-17.41,51.87-39.74,73.26-64.73,5.91-6.89,11.38-14.16,17.43-21.73-4.87-1.53-8.85-3.05-12.95-4a165.93,165.93,0,0,0-70-1.59c-31.62,6-54,23.52-66.66,53.34C433.11,849.85,429.74,871.72,427,894.23Zm220.9-11.07c.19,1.5.34,2.8.53,4.11,2.11,15,2.3,29.94-.88,44.8-6.18,28.82-20.13,53.57-40.18,74.87a16.46,16.46,0,0,0-4.81,14.22c.38,3.51,3.12,6.38,6,5.88,12.94-2.27,26-4.06,38.76-7.14,10.88-2.62,21.4-6.75,32.31-10.28-2.67-4.58-4.92-8-6.76-11.66-9.15-18.12-12.07-37.84-14.43-57.66-2.12-17.81-3.91-35.66-5.85-53.5C652.32,884.26,651.9,881.88,647.88,883.16Zm-247,125.65c4,1.73,7.64,3.44,11.35,4.82,18.67,6.94,38.06,10.68,57.76,13.11,5.05.62,7.4-1.51,7.93-6.51.59-5.46-1.29-9.36-5-13.35-19.23-20.4-32.68-44.13-39.25-71.49-1.84-7.7-2.55-15.67-3.8-23.67-3.28-.88-5,.06-5.38,4.1-1.17,12.31-2.4,24.62-4.18,36.85C417.44,972.35,413.19,991.65,400.91,1008.81ZM649.24,865.5c-6.43-30.29-15.86-57.87-42.1-75.72L571.88,832C595,848.56,619.91,861,649.24,865.5Z"
        fill="#777676" transform="translate(-362.01 -755.58)" />
</svg>