<svg data-name="Layer 1" id="Layer_1" viewBox="0 0 384 339.64" xmlns="http://www.w3.org/2000/svg">
    <path
        d="M732,988.52c-8.68,9.46-17.29,19-26,28.37Q655.42,1071,604.78,1125c-.51.55-1,1.1-1.54,1.63-4.23,4.29-8.43,4.31-12.6-.13q-25-26.64-50-53.36c-7.17-7.66-14.42-15.26-21.47-23a4.7,4.7,0,0,0-5.46-1.59c-35.28,9.15-69.07,5.18-100.4-13.48-38.22-22.76-59.73-56.76-64.71-101.08a16.57,16.57,0,0,0-.63-2.47V912c1.22-7,2.14-14,3.71-21,11.43-50.39,54.89-91,105.88-99,29.73-4.69,57.93-.22,84.54,14a12.48,12.48,0,0,0,5.72,1.18q50.25.1,100.49.06c8.58,0,10.84,2.27,10.84,10.91s.07,17.5,0,26.25c-.06,4.25-2.6,7.15-6.28,7.69a7.28,7.28,0,0,1-8.27-4.91,14.51,14.51,0,0,1-.39-4.07c0-6.75,0-13.49,0-20.55H566.25c34.56,32.71,50.23,72.28,43,119.16s-34.16,79.64-76.84,100.63l64.59,69L707.15,993.68h-4.6q-24.19,0-48.38,0c-7.5,0-10-2.44-10-9.8q0-34.7,0-69.38a27,27,0,0,1,.07-3,7.37,7.37,0,0,1,6.62-6.59,7.11,7.11,0,0,1,7.76,5.12,17.44,17.44,0,0,1,.53,4.79q0,29.63,0,59.26v4.59h4.25c19.62,0,39.24.09,58.87-.07,4.5,0,7.75,1.3,9.7,5.41ZM596,921.84c.24-63.94-51.85-116.22-116.18-116.61-64-.38-116.52,51.73-116.84,115.9s51.73,116.72,116.12,117S595.79,986.25,596,921.84Z"
        fill="#f7691d" transform="translate(-348 -790.23)" />
    <path
        d="M651.61,886a7.29,7.29,0,0,1-7.41-7.32,7.46,7.46,0,0,1,7.27-7.53,7.61,7.61,0,0,1,7.67,7.58A7.42,7.42,0,0,1,651.61,886Z"
        fill="#f7691d" transform="translate(-348 -790.23)" />
    <path
        d="M581,921.76A101.46,101.46,0,1,1,479.68,820.32C535.62,820.43,581.06,866,581,921.76Zm-15,0a86.46,86.46,0,1,0-86.74,86.31A86.44,86.44,0,0,0,566,921.77Z"
        fill="#f7691d" transform="translate(-348 -790.23)" />
    <path
        d="M519.89,873.26c2.41,2,5.13,3.16,6,5.18s.25,4.93-.19,7.37c-.18,1.05-1.49,1.93-2.38,2.81Q484.83,927,446.28,965.27a17.93,17.93,0,0,1-3.12,2.67,7.21,7.21,0,0,1-9-1.13,7.28,7.28,0,0,1-1-9.26,20.83,20.83,0,0,1,2.72-3.08q38.53-38.33,77.14-76.59C514.76,876.15,517.15,875.07,519.89,873.26Z"
        fill="#f7691d" transform="translate(-348 -790.23)" />
    <path
        d="M445.09,909.85a22.51,22.51,0,1,1,22.49-22.63A22.56,22.56,0,0,1,445.09,909.85Zm.07-15a7.4,7.4,0,0,0,7.37-7.7,7.55,7.55,0,0,0-7.49-7.29,7.79,7.79,0,0,0-7.65,7.6A7.6,7.6,0,0,0,445.16,894.84Z"
        fill="#f7691d" transform="translate(-348 -790.23)" />
    <path
        d="M536.52,955.89a22.6,22.6,0,1,1-22.72-22.36A22.52,22.52,0,0,1,536.52,955.89Zm-15,0a7.35,7.35,0,0,0-7.74-7.31,7.54,7.54,0,0,0-7.41,7.36,7.74,7.74,0,0,0,7.64,7.57A7.51,7.51,0,0,0,521.49,955.85Z"
        fill="#f7691d" transform="translate(-348 -790.23)" />
</svg>