<svg data-name="Layer 1" id="Layer_1" viewBox="0 0 414.68 479.1" xmlns="http://www.w3.org/2000/svg">
    <path
        d="M337.42,1199.94c-4.58-3-5.17-7.37-5-12.54,1.35-35.2,14.35-65.48,38.84-90.55,21.35-21.85,47.5-34.93,77.87-39,7.85-1,15.83-1.18,23.76-1.47,6.06-.22,12.13,0,18.84,0,0-8.34.1-16.39-.12-24.43,0-1-1.5-2.22-2.57-3q-35.43-24.3-47.93-65.37c-.41-1.35-1.31-3.23-2.41-3.61-11.56-3.93-17.56-13-21.74-23.55-4.62-11.61-7.35-23.72-2.83-35.92,1.94-5.22,5.77-9.73,8.92-14.87-3.2-5.9-7.37-12.32-10.34-19.26-25.95-60.59,7.61-127.78,71.83-142.6,35.77-8.26,67.54,1.14,94.47,26.12,3.12,2.89,5.91,4.17,10.19,3.88,29.78-2,52.51,10,68.29,35.23,14.46,23.14,12.33,57.87-4.85,79.09l-5.21,6.41c12.45,5.25,19.51,14.07,19.87,27.24a63.68,63.68,0,0,1-5.55,28.19c-4,9-9.31,16.84-18.75,21.18-1.41.64-2.42,3-2.83,4.81-5.2,22.23-15.55,41.66-31.75,57.75-5.49,5.46-11.78,10.16-17.93,14.91-2.21,1.71-3.19,3.36-3.12,6.16.19,7,.06,14,.06,21.6,2.8,0,5.09,0,7.37,0,17.78-.1,35.5,0,52.81,5.08q56,16.33,83.77,67.6c10,18.39,14.6,38.26,15.66,59.09.26,5.17-1,9.14-5.49,11.85ZM628.57,908.83l-1.14-.1c0-8.73.07-17.46,0-26.18,0-2.14-.11-4.58-1.11-6.34-3.68-6.46-6.79-13.67-11.9-18.82-10.17-10.23-21.55-19.26-32.37-28.85-2.13-1.89-3.55-.72-5.25.58-10.4,7.94-21,15.64-31.23,23.77-22.49,17.85-47.94,27.21-76.67,27.89-10.66.25-16.81,6.4-16.93,17.06-.15,12.45-.49,25,.48,37.37,3.5,44.49,26.43,75.07,67.66,91.79,7.37,3,15.06,6.1,23.45,4.55a98,98,0,0,0,40.35-17.46c21.35-15.6,35.76-36.12,40.66-62.17C627.17,937.8,627.3,923.21,628.57,908.83Zm8.82-47.48c15.65-17,18.16-42.4,6.64-63.93C633.68,778.06,609.42,766,587.51,770c-6.92,1.25-11.57-.32-16.47-5.43-20.46-21.37-45.91-30.12-75.06-26.41-50.24,6.4-84.37,55.16-74,104.71a85.37,85.37,0,0,0,18.14,37.7c7.56-11.84,18.48-15.74,31.67-16,23.71-.5,44.57-9.11,63.18-23.67,12.52-9.79,25.28-19.29,38-28.87,5.23-4,7.77-4,13-.17C605.43,825.79,623.9,840.77,637.39,861.35ZM348.61,1183.76H501.14c4.42-24.39,8.7-48.6,13.3-72.75a10.26,10.26,0,0,0-2.18-8.91c-6.92-9.37-13.56-18.95-20.39-28.38a3.63,3.63,0,0,0-2.59-1.3c-11.21.08-22.54-.68-33.62.62-40,4.69-70.65,24.45-91.37,59.07C354.88,1147.84,349.83,1165.06,348.61,1183.76Zm229.63,0H730.13a3.93,3.93,0,0,0,.38-1.06,35.51,35.51,0,0,0-.2-3.72c-5.68-42.85-27.79-74.2-66-94.26-23.38-12.27-48.69-13.08-74.24-12.32a3.74,3.74,0,0,0-2.67,1.23c-3.93,5.56-7.63,11.28-11.56,16.85-3.68,5.22-9.4,9.85-10.8,15.57s1.47,12.43,2.47,18.71c0,.16,0,.32.06.47C571.12,1144.66,574.66,1164.09,578.24,1183.77Zm-70.52-145c0,7,.52,12.44-.11,17.8-1.09,9.31,1.66,16.86,8,23.68,4.52,4.88,7.25,12.51,12.63,15.17s13.1.9,19.77.61a8.53,8.53,0,0,0,5.68-2.79c5.56-6.9,10.76-14.09,16.07-21.2.64-.86,1.59-1.82,1.61-2.75.11-9.7.07-19.41.07-30.4C550,1050.33,529.21,1050.08,507.72,1038.78Zm54.27,145q-6.57-36.06-13-71.44H530.35c-4.32,23.84-8.61,47.5-13,71.44Zm81.6-255.23c6.33-9.53,9.34-19.73,6.56-31-.82-3.35-2.74-6-6.56-6.76Zm-208,9.1V898.81c-4.5,2.55-6.93,5.33-7.29,9.23A46.51,46.51,0,0,0,435.56,937.66Z"
        fill="#777676" transform="translate(-332.42 -720.84)" />
</svg>