<svg data-name="Layer 1" id="Layer_1" viewBox="0 0 311.38 360.01"
    xmlns="http://www.w3.org/2000/svg">
    <path
        d="M1023.58,636.16c35.89,2.77,64.87,18.15,86.14,47.13,15.63,21.28,22.73,45.44,21.5,71.79-1.36,29.14-12.36,54.33-32.89,75.07s-45.38,31.59-74.75,33.59v4.14q0,21.36,0,42.74c0,11.9-7.51,19.37-19.46,19.37q-82.32,0-164.66,0c-11.94,0-19.46-7.48-19.47-19.35q0-160.68,0-321.35c0-11.71,7.52-19.28,19.16-19.28q82.7,0,165.41,0c11.43,0,19,7.59,19,19,0,14.25,0,28.5,0,42.75ZM851.21,582H840.86c-7.33,0-8.91,1.6-8.91,9.07V909c0,7.4,1.61,9,9,9h163.52c4.9-.1,7.09-2.22,7.14-7.09,0-5.87,0-11.75,0-17.62v-29.5c-30-2.16-55.7-13.52-76.36-35.3s-31.13-47.9-31.38-78a109.62,109.62,0,0,1,22-67.88c21.3-28.6,50.14-43.71,85.68-46.5,0-16.26.06-32.25-.05-48.23a5.49,5.49,0,0,0-5.62-5.84c-4.47-.23-8.95-.06-13.56-.06-.86,3.45-1.64,6.71-2.5,10-2.29,8.69-9,14-18,14q-50.15.06-100.28,0c-8.78,0-15.52-5.32-17.8-13.78C852.88,588.94,852.12,585.66,851.21,582ZM1060.1,743.87c-1.7-14.26-3.35-28-5-42.28-25.33,8.43-49.66,8.45-74.24.22a204.77,204.77,0,0,0-5,42.06Zm-80,54.57a117,117,0,0,1,37.63-6.45c12.5,0,24.63,2.29,37.41,6.35,1.66-14.41,3.26-28.18,4.87-42.11H975.1C976.78,770.34,978.41,784.12,980.11,798.44Zm-63.7-42.23c-.35,20.41,14.08,53.59,26.9,62.73l25.46-16.47q-2.85-22.9-5.77-46.26ZM963,743.86c2-15.8,3.92-31.22,5.87-46.73-4.09-2.38-8.6-4.77-12.87-7.54s-8.28-5.91-12.39-8.88c-14.17,11.77-28.64,45.57-27,63.15Zm109.21-.12h46.67c-.41-21.84-13.13-51.22-26.9-62.75l-25.54,16.56C1068.32,712.82,1070.23,728.14,1072.18,743.74Zm0,12.4c-2,15.76-3.88,31.09-5.78,46.3l25.8,16.74a101.07,101.07,0,0,0,26.81-63Zm-88.24,54c4.21,12.87,9.15,25.1,18.81,34.69s19.93,9.61,29.56.08,14.75-21.94,18.84-34.68C1034.43,802.07,1003.27,802,984,810.11Zm0-120.19c22.15,8.89,52,7.2,67.09-.35-4.42-14.63-11.15-27.1-18.49-34.27-9.85-9.62-20-9.66-29.88-.08-.72.69-1.42,1.41-2.07,2.16C992.48,666.83,987.75,678,984,689.92ZM979.74,582.2H863.94c1.84,12.24,3.54,11.86,12.75,11.84,30.3-.1,60.59,0,90.88,0,9.07,0,9.82-.59,11.78-9.34C979.51,583.93,979.58,583.19,979.74,582.2Zm83.74,232.41L1047,847.5a99.46,99.46,0,0,0,36.36-19.83Zm19.67-142.12c-8.51-8.54-30.15-19.83-36.58-19.52,3,5.06,6.24,10.07,8.89,15.39s4.78,11.13,7.42,17.41ZM971.71,685.43l16.43-32.91a100.18,100.18,0,0,0-36.31,19.75Zm16.43,162.05-16.44-33-19.86,13.25C963.36,837.26,975.26,843.7,988.14,847.48Z"
        fill="#fff" transform="translate(-819.97 -569.99)" />
</svg>