<svg data-name="Layer 1" id="Layer_1" viewBox="0 0 384 384" xmlns="http://www.w3.org/2000/svg">
    <path
        d="M732,903H702V820.28L631.31,891l45.35,45.25L654.8,958.07l-45.26-45.44L576.13,946c.29.44.83,1.38,1.48,2.25,56.46,76.28,13.82,184.5-79.46,201.62-4.52.83-9.1,1.4-13.65,2.1h-18c-2.83-.44-5.64-.93-8.48-1.3-51.51-6.88-94.65-45.85-106.35-96.28-1.59-6.89-2.46-13.94-3.67-20.92v-18.75c1.25-7,2.2-14,3.8-20.91,11.35-49.09,55.46-88.93,105.09-95.47,35.15-4.63,66.91,3.42,95.43,24.43.5.37,1,.73,1.53,1.07.1.07.24.06-.1,0l33.07-33.09-45.26-45.18,21.55-21.25,45.89,46,72-72.24H597V768H732ZM378,1024.34A97.5,97.5,0,1,0,475.75,927,97.68,97.68,0,0,0,378,1024.34Z"
        fill="#777676" transform="translate(-348 -768)" />
    <path
        d="M348,1033.5c1.21,7,2.08,14,3.67,20.92,11.7,50.43,54.84,89.4,106.35,96.28,2.84.37,5.65.86,8.48,1.3H348Z"
        fill="#fff" transform="translate(-348 -768)" />
</svg>