<svg id="Layer_1" data-name="Layer 1" xmlns="http://www.w3.org/2000/svg"
    viewBox="0 0 512.54 512.58">
    <path
        d="M399.65,143.69l.83.05c2.77.43,5.5,1.16,8.27,1.51,15.95,2,32.29,2.47,47.81,6.27,90,22,151.2,77.17,184,163.63a221.86,221.86,0,0,1,14.22,76.6c0,2.88,1.48,5.76,1.48,8.65a.28.28,0,0,1,0,.09c-.43,2.76-1.16,5.49-1.51,8.27-2,15.95-2.47,32.29-6.27,47.8-22.05,90-77.17,151.21-163.63,184a221.9,221.9,0,0,1-76.6,14.22c-2.89,0-5.76,1.48-8.65,1.48h-.09c-2.76-.43-5.49-1.16-8.26-1.51-15.95-2-32.29-2.47-47.81-6.27-90-22.05-151.2-77.16-184-163.63a221.86,221.86,0,0,1-14.22-76.6c0-2.81-1.41-5.6-1.48-8.42v-.18c.36-2.82,1.22-5.6,1.46-8.43.86-10.09.94-20.3,2.51-30.27,7.56-47.94,26.64-90.8,58.72-127.38C255,178.25,316,148.45,389.75,145.25,393.06,145.11,396.33,143.83,399.65,143.69Zm-39.23,283a.47.47,0,0,1-.65,0l-4.4-4.31q-26-25.53-52-51.11c-3.2-3.18-5.33-3.38-9.62,2.28a148.39,148.39,0,0,1-30.09,29.29c-8.79,6.53-7.52,9.3,4.25,17.42a327.14,327.14,0,0,1,80.3,78.95c8.08,11.29,10.92,14.77,16.14,9.54Q451.9,421,539.65,333.49c3.16-3.16,2.91-5.14-.14-8.12-11.23-10.92-22.23-22.07-33.31-33.14-5.7-5.68-5.7-5.69-11.27-.12q-65,65-130,130.09Z"
        transform="translate(-143.73 -143.69)" fill="#3bb54a" />
</svg>