<svg id="Layer_1" data-name="Layer 1" xmlns="http://www.w3.org/2000/svg" viewBox="0 0 407.63 409.27"><path d="M39.71,453.83c3.13-11.49,6.1-22.39,9.08-33.29C55,398,61.21,375.39,67.21,352.76a10.58,10.58,0,0,0-.75-7.1C11.33,245.27,50,119,151.85,67c112.6-57.5,249.47.32,286.56,121.05,32.75,106.57-27.47,220.69-134.14,253.39-53,16.23-104.39,11.15-153.89-13.76a10.41,10.41,0,0,0-6.74-.69c-33.13,8.52-66.21,17.22-99.3,25.88C43,453.16,41.66,453.4,39.71,453.83Zm48.65-48c20.35-5.34,39.86-10.37,59.31-15.63a10.25,10.25,0,0,1,8.74,1.3c37.56,22.52,78,29.94,120.91,21.41,90.91-18.08,149.84-106,132.7-197.28C393,125,304.07,64.45,213.27,81.69,99.72,103.25,40.55,229.86,97.66,330.24c5.92,10.4,7.12,18.94,3.44,29.89C96.14,374.86,92.67,390.1,88.36,405.86Z" transform="translate(-39.71 -44.56)" fill="#4caf50"/><path d="M178.56,154.12c8.79-2.18,13,3,16,10.77,4.59,11.91,9.62,23.66,14.67,35.39,1.76,4.08,1.6,7.67-1,11.19-4,5.34-7.85,10.81-12.1,15.95-2.86,3.48-3.12,6.58-.82,10.43,16.56,27.82,39.67,47.94,69.81,60,4.14,1.65,7.42.9,10.2-2.58,5-6.21,10-12.33,15-18.58,3.62-4.59,5.71-5.73,10.91-3.36q21.48,9.81,42.58,20.44c1.74.88,3.3,4.08,3.27,6.18-.32,21.62-6.68,32-29.72,41.67-13.07,5.49-26.64,4.2-40.11.45-48.91-13.63-84.94-44.36-113.77-84.89-8.95-12.59-17-25.57-20.45-40.83-4.94-22,.45-41,16.61-56.9C164.82,154.26,171.14,153.1,178.56,154.12Z" transform="translate(-39.71 -44.56)" fill="#4caf50"/></svg>