<svg id="Layer_1" data-name="Layer 1" xmlns="http://www.w3.org/2000/svg" viewBox="0 0 288.22 287.98"><path d="M325.17,131.92c-.55-1.84-1-3.35-1.45-4.88A16.26,16.26,0,0,1,334,107.16c8.18-2.89,17.55.85,20.47,9,5.89,16.54,11.53,33.2,16.7,50,3.12,10.15-4.31,20-15.1,20.21-16.38.35-32.77.24-49.14,0a15.75,15.75,0,0,1-15.56-12.72c-1.61-7.16,2.09-13.77,10.59-18.33-1.3-.84-2.37-1.6-3.49-2.24-67.11-38.47-153.23,2.23-165.85,78.36A111.82,111.82,0,0,0,227.35,361c62,8.82,119.88-35.62,126.84-97.48.48-4.21.61-8.45.82-12.68.5-10,7.26-16.65,16.71-16.37,9.07.26,15.42,7.39,15.37,17.25C386.74,320.5,336.33,380.17,268.63,392c-78.48,13.65-152.19-37-167.21-114.84-14.86-77.07,36.71-152.93,114-167.56,38.22-7.23,73.73-.1,106.5,20.76.74.47,1.47.95,2.21,1.41A5.76,5.76,0,0,0,325.17,131.92Z" transform="translate(-98.87 -106.19)" fill="#3a3a3a"/></svg>