<svg data-name="Layer 1" id="Layer_1" viewBox="0 0 434.48 298.97"
    xmlns="http://www.w3.org/2000/svg">
    <path
        d="M477,264c-2.29,6.43-6.9,11.09-11.61,15.79q-61,60.81-121.85,121.76c-8.11,8.1-17,9.86-25.67,5.16a20,20,0,0,1-6.32-29.88,50,50,0,0,1,4.3-4.68q43.93-44,87.9-87.9c1.1-1.1,2.35-2,3.54-3.05L407,280h-4.7Q234,280,65.8,280c-9.18,0-16.72-2.72-21.09-11.33a19.9,19.9,0,0,1,13.92-28.6,42.09,42.09,0,0,1,8-.62q167.6,0,335.19,0h5.82c-1.6-1.73-2.56-2.86-3.61-3.9q-44.68-44.71-89.39-89.42c-8.93-8.94-9.8-20.22-2.36-28.87a20,20,0,0,1,27.81-2.48,59.25,59.25,0,0,1,4.34,4q60.46,60.43,121,120.86c4.71,4.7,9.32,9.36,11.61,15.79Z"
        fill="#fff" transform="translate(-42.52 -110.28)" />
</svg>