<svg data-name="Layer 1" id="Layer_1" viewBox="0 0 487.81 444.5" xmlns="http://www.w3.org/2000/svg">
    <path
        d="M502,454.34c-.45,1.14-1,2.27-1.35,3.43-4.14,12.12-12.6,19.48-25.19,21.07-12.4,1.56-22.63-3.23-29.23-13.93-8.16-13.23-15.66-26.87-23.46-40.32-.87-1.5-1.8-3-3-4.86l-4.67,5.09c3.09,6,6.92,11.11,8.46,16.85,5.1,19.09-9.21,37.28-29.05,37.44-22.24.18-44.48.05-66.72.05H114.34c-46.59,0-90.27-37.29-98.67-83.18-4.19-22.88.92-43.71,10.28-64.16C40,301.09,58.44,273,77.71,245.35c2.77-4,6.94-4.77,10.32-2.39,3.58,2.51,4,6.42,1.13,10.9C75.69,275.19,61.79,296.26,48.93,318c-9,15.14-17,31.13-19.58,48.76C25.59,392.18,33,414.88,50,434.12c14,15.95,31.58,26.34,52.7,30.15a43.79,43.79,0,0,0,7.59.56q64.8.06,129.62,0c1.08,0,2.15-.1,3.28-.16-5.84-19.24-4.76-25.82,5.51-37.72-3.07-6.67-7.3-12.62-8.53-19.13-3.61-19.11,10.52-35.31,30.14-35.4,28-.15,55.92,0,83.88,0h6.43c-2.15-7.7-3.67-14.93-6.16-21.8-9.14-25.25-23.06-48-37.56-70.4C295.17,246.72,271.22,214.87,246,184a9.19,9.19,0,0,0-6.33-2.89c-30.34-.19-60.68-.09-91-.2a7.62,7.62,0,0,0-6.81,3.26c-9.77,12.71-19.7,25.31-29.57,38-.88,1.13-1.68,2.33-2.62,3.39-3,3.39-7,3.94-10.13,1.47s-3.8-6.56-1.07-10.16c8.23-10.9,16.64-21.66,25-32.47,1-1.25,1.91-2.51,3-4-12.76-5.39-19.85-14.48-18.17-28.53,1.46-12.11,9.22-19,21.35-22.37-1.12-1.56-2.05-2.88-3-4.19-9.93-13.86-18-28.48-18.54-46.09-.48-17.24,7.15-30.3,21.48-39.42,9.75-6.21,20.1-6.71,30.24-.93,5.94,3.38,11.24,3.66,17.44.35,11.27-6,23-5.83,34.21.26,5.64,3.07,10.7,2.9,16.15-.25,11.19-6.47,22.21-5.52,32.71,1.65C269.9,47.28,276.46,56,279,67.45c1.05,4.74-1.1,8.36-5.1,9.29-3.8.88-7.09-1.29-8.57-5.64-.2-.6-.4-1.21-.57-1.82-2.11-7.36-6.68-12.89-13-17.07-5.5-3.66-11.22-4.16-17-.72-10,5.94-20,6.08-30.27.39a20.62,20.62,0,0,0-21,.09c-10.09,5.61-20,5.43-29.83-.36-6.37-3.74-12.38-2.91-18.24,1.26-11.32,8.05-15.78,20.63-11.71,35.47C128,103.7,136.44,116.63,148,127.49a6.33,6.33,0,0,0,3.67,1.72c5.07.19,10.14.08,15.16.08-1.64-9.9-3.33-19.53-4.81-29.19-.76-5,1.26-8.29,5.24-9.34,4.43-1.17,7.94,1.68,8.85,6.82,1.66,9.36,3.58,18.68,5.23,28,.52,2.92,1.87,3.88,4.82,3.74a146.37,146.37,0,0,1,15.25,0c3.27.19,5-.71,5.53-4.09,1.58-9.06,3.49-18,5.05-27.11.89-5.13,3.69-8.08,7.88-7.64,4.41.47,7.09,4.2,6.3,9.46-1.46,9.69-3.18,19.34-4.85,29.3,4.92,0,10,.17,15.06-.11a7.93,7.93,0,0,0,4.4-2.24A87.34,87.34,0,0,0,260,100.46c1.76-3.62,4.32-6,8.62-5.09,4.69,1,7.06,5.87,4.58,10.44-4.29,7.93-9.08,15.57-13.82,23.59,3,1.76,6,2.37,9.85,0,17.62-10.78,35.12-10.25,52.24,1.45,5.76,3.94,11.55,7.85,17.5,11.5,2,1.2,4.44,1.62,6.71,2.29,4.64,1.36,6.86,4.63,5.91,8.81a6.78,6.78,0,0,1-9.22,5,122.83,122.83,0,0,1-18-8.28c-5.12-2.83-9.61-6.77-14.66-9.74-11-6.52-22-5.66-32.64.94,1.05,3.49,1.86,6.69,3,9.77a4.11,4.11,0,0,0,2.48,2.19c23.15,6,35.75,22.25,42.8,43.87,2.16,6.63,3.45,13.58,6,20A141,141,0,0,0,341,236.15c2.56,4.36,2.69,8.44-.68,11s-7.42,1.69-10.77-2.29c-6.78-8.08-10.47-17.68-13.4-27.63-1.66-5.62-3-11.35-4.89-16.9-5-14.94-13.53-26.85-29.21-32.23-2.89-1-4.56-.57-6.8,2-3.57,4.06-8.16,7.23-12.83,11.22,1.39,1.76,3.49,4.42,5.57,7.08,29,37,56.93,74.81,80.14,115.83,10.4,18.38,20,37.2,24.52,58.08.7,3.22,1.16,6.51,1.75,9.92h18c-3.14-5.48-6.08-10.63-9-15.78-4.4-7.69-5.74-15.82-3-24.3,3.92-12.18,12.44-19.48,25-21.22,11.84-1.64,21.71,2.77,28.51,12.56,4.7,6.75,8.54,14.12,12.54,21.33a7,7,0,0,1-2.65,9.86c-3.43,1.87-7.47.76-9.79-3.07-3.55-5.83-6.82-11.82-10.29-17.69-5.13-8.68-14.33-11.5-22.33-6.92s-10.34,14.07-5.37,22.72q30.63,53.24,61.4,106.38c5,8.59,14.52,11.26,22.44,6.55,7.7-4.57,10-14,5.18-22.43-10.7-18.74-21.56-37.39-32.33-56.09a23.91,23.91,0,0,1-2.32-4.67c-1.06-3.44,0-6.36,3.14-8.14s6.47-1.27,9,1.58a20.67,20.67,0,0,1,2.28,3.62c10.64,18.41,21.35,36.78,31.85,55.27,2.16,3.81,3.55,8.05,5.3,12.09ZM332.33,386.7c-20.65,0-41.29-.06-61.94,0-9.29,0-16,6.24-16.63,14.94-.68,10,6.77,17.05,18.39,17.07q59.81.06,119.6,0a30.59,30.59,0,0,0,6.62-.65c9.82-2.28,13.92-11.64,9-20.24a25.47,25.47,0,0,1-2.12-3.71c-2.22-6.11-6.94-7.51-12.84-7.48C372.36,386.77,352.35,386.7,332.33,386.7Zm-.48,78.16c20.65,0,41.3,0,61.95,0,7.41,0,13.23-4,15.6-10.36,3.91-10.51-3.58-21.27-15.21-21.37-20-.18-40-.06-60.05-.06-21.12,0-42.25.05-63.38,0-7,0-12.37,2.72-15.49,9-5.23,10.6,2.47,22.66,14.62,22.75C290.55,465,311.2,464.85,331.85,464.86ZM194.12,166.64h6.67c17.63,0,35.27.06,52.9,0,7.87,0,12.76-5.3,12.11-12.63-.59-6.54-5.5-10.37-13.55-10.37q-58.14,0-116.27,0a24,24,0,0,0-3.8.17,11.37,11.37,0,0,0-9.81,11.63c.11,6.61,4.9,11.18,12.18,11.21C154.41,166.69,174.27,166.63,194.12,166.64Z"
        fill="#b9c1d8" transform="translate(-14.19 -34.71)" />
    <path
        d="M202.55,298.33c-13.7,0-26.85,0-40,0a37.42,37.42,0,0,1-5.71-.21c-3.61-.55-5.62-2.82-5.82-6.46s1.46-6.19,5-7.11a22.73,22.73,0,0,1,5.66-.49c13.49,0,27,0,40.48,0-.59-7.57-9-14.41-17.95-14.62-8.41-.2-16.83,0-25.25-.1-4.07,0-7.14-1.7-7.88-6.05-.82-4.82,2.41-8.17,8-8.19,14.77-.06,29.55,0,44.32,0,8.58,0,17.16,0,25.73,0,5.23,0,8.24,2.76,8.17,7.17-.06,4.17-3,6.95-7.92,7.07-5.55.14-11.1,0-16.87,0,1.79,4.61,3.37,9,5.27,13.26.35.78,2,1.3,3.09,1.37,3,.2,6,0,9,.14,4.66.29,7.36,3,7.38,7.08s-2.72,7.44-7.27,7c-8.37-.89-12.7,1.56-16.3,10-5.43,12.78-17,18.69-31,19.32-2.94.14-5.89,0-9.84,0,7.92,10,15.17,19.16,22.44,28.32,5.52,7,11.1,13.89,16.58,20.89,3.44,4.39,3.41,8.66.08,11.39s-7.79,1.83-11.39-2.68c-13.74-17.28-27.41-34.6-41.22-51.83-3.37-4.21-4.79-8.61-2.46-13.65,2.45-5.29,7-6.94,12.54-6.75q6.66.23,13.34,0C191.85,312.88,199.28,307.44,202.55,298.33Z"
        fill="#b9c1d8" transform="translate(-14.19 -34.71)" />
</svg>