<svg id="Layer_1" data-name="Layer 1" xmlns="http://www.w3.org/2000/svg" viewBox="0 0 383.31 383.2"><path d="M267.65,448h-24a15.9,15.9,0,0,0-2.5-.59c-33-2.48-63.48-12.59-90.91-31.05C104.93,385.83,77,343.61,67,289.76c-1.32-7.08-2-14.28-3-21.42v-24c.22-1.21.48-2.41.67-3.62,1.42-9.23,2.2-18.6,4.34-27.66,24.26-102.76,124.14-165.86,227.56-144,84.75,17.94,148.09,93.5,150.64,180C448.69,299.4,433.29,344,400.32,382c-29.64,34.18-67,55.2-111.63,63.13C281.73,446.33,274.67,447,267.65,448ZM255.54,91.54c-91.12.15-165,74.15-164.72,165a164.89,164.89,0,0,0,164.8,164.6c91,.07,165-73.86,164.9-164.87S346.51,91.38,255.54,91.54Z" transform="translate(-64 -64.8)"/><path d="M250.31,160.17c13.33.09,23.32,1.74,32.75,6.23,22.62,10.79,30.27,34.08,18.39,56.15-5.24,9.74-12.8,17.43-21.3,24.31-2.23,1.8-4.44,3.63-6.54,5.58A27,27,0,0,0,264.76,272c-.09,2.49,0,5-.14,7.48-.19,4.83-2.25,7.57-6.84,9.15a15.6,15.6,0,0,1-2.52.67c-14,2.42-19-1.73-19.32-15.83-.34-16.66,5.53-30.39,19-40.67,4.25-3.25,8.44-6.62,12.35-10.28,4.57-4.27,7.75-9.42,7.91-16s-2.73-11.49-8.57-14.59a28.67,28.67,0,0,0-37.08,8.9c-5.33,7.65-10.33,9.32-17.72,5.94-6.85-3.14-9.84-10.18-7.4-18.31,3.55-11.78,12.17-18.78,23-23.49A60.36,60.36,0,0,1,250.31,160.17Z" transform="translate(-64 -64.8)"/><path d="M269.33,326.75a19.58,19.58,0,0,1-19.28,19.34c-10.58,0-19.26-8.93-19.15-19.77a19.22,19.22,0,1,1,38.43.43Z" transform="translate(-64 -64.8)"/></svg>