<svg data-name="Layer 1" id="Layer_1" viewBox="0 0 509.62 509.06"
    xmlns="http://www.w3.org/2000/svg">
    <path
        d="M272,4c12.6,4.05,21.59,13,30.65,22.07Q400.73,124.46,499,222.71c4.49,4.51,9,9.75,11.34,15.52,13.33,32.33-6.59,65.25-41.22,66.65-2.65.11-5.3,0-8.79,0v6c0,48.8.09,97.61,0,146.41-.07,26.7-17,48.25-42.56,54.25a62.57,62.57,0,0,1-13.8,1.46c-25.9.13-51.8.08-77.69.06C315,513,309,507.1,309,495.85q0-57.53,0-115c0-17.73-10.07-27.84-27.7-27.88q-21.42-.06-42.83,0C221.11,353,211,363.12,211,380.55q0,57,0,114c0,13-5.52,18.45-18.48,18.45q-37.86,0-75.7,0c-33.43,0-57.07-23.59-57.11-57q-.11-72.21,0-144.42v-6.17C54,305,48.52,305,43.25,304c-17.77-3.47-29.93-14-35.69-31-5.71-16.89-2.2-32.39,9.31-46,1.5-1.77,3.18-3.38,4.83-5q97.37-97.38,194.7-194.78c9.38-9.39,18.48-19,31.66-23.09Zm66.9,479.16H345c18.43,0,36.89-.69,55.28.19,18.63.9,30.64-11.19,30.39-30.09-.69-53.27-.24-106.56-.24-159.85,0-12.87,5.56-18.36,18.57-18.38,6.47,0,12.95.1,19.42,0,6.94-.15,12-3.53,15-9.75,3.08-6.47,2.07-12.61-2.35-18.16a57.84,57.84,0,0,0-4.45-4.69L275.17,41C264.28,30.06,255.79,30,245,40.85L64.66,221.16c-8.33,8.33-16.76,16.58-24.95,25.05-5.09,5.26-6.33,11.67-3.44,18.41S44.5,274.88,51.87,275c6.31.1,12.62,0,18.92,0,13.29,0,18.77,5.46,18.77,18.7q0,81.42,0,162.86c0,16,10.49,26.52,26.46,26.56q30.13.06,60.26,0c1.45,0,2.89-.17,4.81-.28v-6.14c0-32.54-.14-65.08,0-97.62.18-30.81,21.4-53.91,52.14-55.7,17.69-1,35.5-.25,53.26-.15a42.27,42.27,0,0,1,8.87,1.14c26.1,5.85,43.27,27.27,43.41,54.55.17,32.54,0,65.08,0,97.62Z"
        fill="#797d87" transform="translate(-4.87 -4)" />
</svg>