<svg data-name="Layer 1" id="Layer_1" viewBox="0 0 388.34 493.95"
    xmlns="http://www.w3.org/2000/svg">
    <path
        d="M266.78,12.09c6.1,1.84,12.46,3.11,18.26,5.64a46.4,46.4,0,0,1,24.87,25.62c1.32,3.2,3,4.27,6.43,4.18,9-.23,18-.1,27-.06a50.24,50.24,0,0,1,6.73.37c7.05,1,9.94,4.45,10,11.75,0,5.46,0,10.92,0,17.18,1.91,0,3.59,0,5.27,0,15.42.26,30.87-.06,46.24,1C431.34,79.08,450.42,98,453,117.66a109.71,109.71,0,0,1,1,13.91c0,107.86-.56,215.73.41,323.59.28,31.06-23.08,50.9-51.16,50.88q-42.68,0-85.36,0H118.2c-15.76,0-29.75-4.51-40.74-16.35-7.4-8-11.41-17.35-11.41-28.32q0-31.11,0-62.21V128.6c0-24.92,14.22-43.73,38.27-50.19a57.62,57.62,0,0,1,13.82-1.57c12.22-.21,24.44-.06,36.65-.08,1.57,0,3.14-.13,5.2-.22,0-6-.06-11.76,0-17.5.08-7.13,3.2-10.89,10.4-11.2,10.91-.47,21.86-.17,32.78-.52,1.77-.06,4.41-1.39,5.1-2.86,8.16-17.43,21.54-28,40.44-31.53a7.41,7.41,0,0,0,1.66-.84Zm93.29,89V123.9c0,13.41-4.11,17.53-17.56,17.53H177.06c-1.29,0-2.57,0-3.86,0-8.23-.34-13-5.13-13.19-13.45-.14-7.56,0-15.12,0-22.67,0-1.53-.19-3.07-.28-4.51a10.66,10.66,0,0,0-1.87-.41c-13,0-26.05-.09-39.07,0-18.59.06-29.31,10.83-29.31,29.35V459.61c0,9.78,4.73,16.79,13.68,20.09a48.34,48.34,0,0,0,16.45,2.77q140.37.25,280.74.11a69.49,69.49,0,0,0,7.21-.37c15.7-1.71,23.11-10,23.11-25.78V129.87c0-1.13,0-2.25,0-3.38-.34-13.65-10.22-25-23.83-25.69-15.07-.77-30.21-.29-45.31-.33C361.19,100.47,360.9,100.72,360.07,101.12ZM183.88,117.71H336.09V70.93c-10.36,0-20.44,0-30.52,0-7.73,0-11.84-3-14.31-10.37-.46-1.36-.83-2.76-1.28-4.13a32.2,32.2,0,0,0-45-18.77c-9.31,4.66-14.85,12.34-17.81,22.23-2.51,8.39-6.42,11-15.16,11.05-8.19,0-16.38,0-24.57,0-1.21,0-2.42.23-3.58.35Z"
        fill="#797d87" transform="translate(-66.04 -12.09)" />
    <path
        d="M316,394.23c21.36,0,42.71-.05,64.07.06a24.5,24.5,0,0,1,8.43,1.4c4.55,1.76,7.17,7,6.54,11.78a11.17,11.17,0,0,1-9.16,9.83,36.58,36.58,0,0,1-6.69.59q-63.35.06-126.68,0c-1,0-1.93,0-2.89,0-8-.49-13-5.15-12.87-12S242,394.35,250,394.28c14.61-.14,29.22,0,43.83,0Z"
        fill="#797d87" transform="translate(-66.04 -12.09)" />
    <path
        d="M315.49,229.7c-21.06,0-42.12,0-63.18,0a30,30,0,0,1-8.1-.9c-4.59-1.33-7.64-6.28-7.48-11.24a11.1,11.1,0,0,1,8.28-10.6,27.08,27.08,0,0,1,6.65-.8q64.16-.08,128.31,0a26.59,26.59,0,0,1,7.59,1c4.72,1.41,7.93,6.72,7.51,11.69a11.25,11.25,0,0,1-9.2,10.35,39.6,39.6,0,0,1-6.71.52Q347.33,229.73,315.49,229.7Z"
        fill="#797d87" transform="translate(-66.04 -12.09)" />
    <path
        d="M316,323.73c-21.86,0-43.73,0-65.59,0-8.44,0-13.62-4.5-13.68-11.61a11.3,11.3,0,0,1,9.64-11.46,37.07,37.07,0,0,1,5.77-.3q63.66,0,127.32,0c10.28,0,15.6,3.94,15.67,11.57s-5.44,11.83-15.95,11.83Z"
        fill="#797d87" transform="translate(-66.04 -12.09)" />
    <path
        d="M161.3,309.62c11.61-11.07,23.32-22.3,35.1-33.45,5.82-5.52,11.41-6.2,16.85-2.27s6.55,10.66,2.54,16a32,32,0,0,1-3.58,3.88Q191.61,313.4,171,333c-7.93,7.51-13.31,7.35-21-.5-6.63-6.78-13.26-13.55-19.82-20.39a23.83,23.83,0,0,1-3.8-4.94,12,12,0,0,1,2.4-14.15,11.46,11.46,0,0,1,14.21-.42,43.13,43.13,0,0,1,4.31,3.82C151.85,300.66,156.37,305,161.3,309.62Z"
        fill="#797d87" transform="translate(-66.04 -12.09)" />
    <path
        d="M161.06,215.75c12-11.42,23.84-22.76,35.76-34,5.92-5.59,12.2-5.88,17.59-1a11,11,0,0,1,1.67,14.76,28.64,28.64,0,0,1-3.54,3.93q-20.61,19.6-41.27,39.17c-8.48,8-13.33,7.88-21.59-.55-6.41-6.54-12.85-13.06-19.2-19.67A26,26,0,0,1,126.4,213a12,12,0,0,1,2.37-14.15,11.36,11.36,0,0,1,14.26-.36,37.43,37.43,0,0,1,4.62,4.2c4.07,4.12,8.07,8.3,12.11,12.44C160,215.37,160.32,215.42,161.06,215.75Z"
        fill="#797d87" transform="translate(-66.04 -12.09)" />
    <path
        d="M161.37,403.6l33.76-32.12a37.57,37.57,0,0,1,3.57-3.23c5.45-4,12.13-3.47,16.5,1.32,4.23,4.64,4,10.88-.66,16-1.29,1.43-2.76,2.69-4.16,4q-19.94,18.92-39.89,37.82c-7.44,7-12.8,6.88-19.86-.3-6.76-6.87-13.59-13.68-20.18-20.73a23.58,23.58,0,0,1-4.84-7.57,11,11,0,0,1,4-12.39,11.11,11.11,0,0,1,13.07,0,44.36,44.36,0,0,1,4.67,4.13C152,394.82,156.51,399.07,161.37,403.6Z"
        fill="#797d87" transform="translate(-66.04 -12.09)" />
</svg>