<svg data-name="Layer 1" id="Layer_1" viewBox="0 0 408.86 386.64"
    xmlns="http://www.w3.org/2000/svg">
    <path
        d="M464.6,110.89c-2.25,2.14-4.2,4.82-6.82,6.34-13,7.48-26.12,14.66-39.22,21.94a24.46,24.46,0,0,1-3.56,1.75,7.87,7.87,0,0,1-9.68-3.33c-2-3.45-1.42-8.1,2.25-10.21,15.28-8.79,30.66-17.4,46.2-25.71,4.17-2.23,7.7,0,10.83,5.23Z"
        transform="translate(-55.74 -67.07)" />
    <path
        d="M217.3,323.55c3.19,5.53,6.11,10.56,9,15.6,4,6.93,2.95,10.66-4,14.71L204,364.43c2.41,4.19,4.73,8.17,7,12.19,6.16,10.86,12.78,21.5,18.31,32.67,7,14.24,1,31.93-13,40.12-13.74,8.08-32.29,4.51-41.37-8.46-4.78-6.84-8.76-14.26-13-21.49q-14-24.12-27.88-48.36c-1.31-2.29-2.41-2.69-5-1.83-27,9-55.95-3.64-68.19-29.54-11.81-25-3.21-55.67,20.68-70.35C103.53,256,126,243.57,148.16,230.63a20.51,20.51,0,0,0,5.64-4.85q50.72-64.42,101.28-129c4.57-5.83,9.65-10.53,17.38-11.54,11.05-1.43,19.21,3,24.72,12.34q13.57,23,26.68,46.28c1.67,3,3.43,4.07,6.82,3.77,8.21-.74,16.46-1,24.69-1.63,4.5-.33,7.6,1.41,9.81,5.32,4.77,8.45,9.65,16.83,14.55,25.2a9,9,0,0,1-.3,10.45c-4.9,7.28-9.62,14.68-14.58,21.92-1.4,2-1.43,3.49-.16,5.65,8.29,14.09,16.54,28.21,24.56,42.45,8.9,15.81.14,33.43-17.81,36.44-8.9,1.5-17.76,3.33-26.62,5.07C302.58,306.8,260.35,315.1,217.3,323.55Zm38.4-202.07a23,23,0,0,1-1.27,2.06q-43.1,54.94-86.27,109.85c-1.47,1.86-1.19,3.07-.14,4.88q19.72,34,39.27,68c1.21,2.12,2.35,2.5,4.71,2,29.32-5.83,58.68-11.5,88-17.25,15.9-3.11,31.79-6.28,48.11-9.5ZM154,245.81c-10.62,6.12-20.87,12-31.08,17.93-11.25,6.53-22.73,12.72-33.64,19.78-14.8,9.58-21,28.44-15.51,44.9,8.14,24.52,35.56,35,58.4,22.1,19.89-11.24,39.59-22.8,59.36-34.23.75-.43,1.42-1,2.25-1.59Zm222.85,22.68a49.69,49.69,0,0,0-2.33-5.05Q349,219.21,323.47,175q-19.64-34-39.26-68c-1.63-2.83-3.32-5.46-6.92-6-4.61-.74-6.9,2.32-9.45,5.34-2.22,2.64.09,4.15,1,5.92,2.34,4.32,4.87,8.54,7.32,12.8Q319.46,200,362.72,274.89c.65,1.12,1.29,2.63,2.32,3.09C369.7,280.06,376.78,275,376.81,268.49ZM146.62,360.66c.85,1.54,1.46,2.69,2.11,3.83q18.12,31.39,36.27,62.78a30.87,30.87,0,0,0,3,4.67,15.2,15.2,0,0,0,15.73,5.4c6.06-1.3,10-5.19,11.84-11.17,1.52-4.95.2-9.4-2.28-13.7q-18.94-32.76-37.85-65.56c-.38-.65-.86-1.25-1.42-2.07ZM354.16,196.22c3.28-5,6.27-9.32,9-13.82.44-.72.07-2.26-.41-3.14q-4.12-7.5-8.55-14.83c-.54-.9-1.68-2.08-2.51-2.06-5.27.14-10.53.58-16.5,1ZM188.05,336.76l8,13.8,13.75-8c-2.78-4.8-5.33-9.22-7.95-13.76Z"
        transform="translate(-55.74 -67.07)" />
    <path
        d="M417,176.34l8.34,2.22c7.17,1.92,14.35,3.76,21.5,5.77,5.41,1.52,7.92,5.37,6.73,9.95s-5.33,6.77-10.7,5.39c-9.75-2.51-19.5-5.06-29.18-7.81-4.8-1.36-7.15-5.1-6.35-9.18S411.41,176.16,417,176.34Z"
        transform="translate(-55.74 -67.07)" />
    <path
        d="M377.66,67.07c5.33,0,9.4,4.29,8.28,9-2.56,10.82-5.46,21.57-8.57,32.25-1.22,4.21-5.1,6-9.13,5.13s-6.85-4.3-5.85-8.58c2.58-11.07,5.63-22,8.74-33C372.06,68.64,375,67.34,377.66,67.07Z"
        transform="translate(-55.74 -67.07)" />
    <path
        d="M113.24,340.25c-10.17-.43-16.85-3.91-21.53-11-2.73-4.14-2.08-8.66,1.53-11.34,3.44-2.55,7.72-1.89,11,1.71,5,5.48,7.39,5.86,13.82,2.17,3.57-2.05,7.09-4.21,10.72-6.14,4.65-2.48,9.26-1.41,11.53,2.48s1,8.5-3.51,11.24a166.78,166.78,0,0,1-15,8.31C118.67,339.2,115.06,339.73,113.24,340.25Z"
        transform="translate(-55.74 -67.07)" />
    <path d="M160.81,313.93a7.77,7.77,0,1,1,8.24-7.41A7.75,7.75,0,0,1,160.81,313.93Z"
        transform="translate(-55.74 -67.07)" />
</svg>