<svg id="Layer_1" data-name="Layer 1" xmlns="http://www.w3.org/2000/svg" viewBox="0 0 508.9 487.9"><path d="M120.07,200.23a102.12,102.12,0,0,1-15.6-153.47c38.25-40.4,101.16-42.54,143.08-3.5,23.4,21.8,33.76,49.47,31.27,81.4-2.48,31.69-17.77,56.49-43.27,75.41,73.75,30.8,112,86.06,117.45,165.82H324.81c-1.67-50.95-22.53-91.67-63.79-121.24-27.62-19.79-58.8-28.11-92.73-26.38C97,221.92,29.7,283.69,29.64,365.51H2.07c1.26-36.83,11.15-70.79,32.81-101C56.42,234.41,84.68,213.12,120.07,200.23Zm131.77-83.45A73.91,73.91,0,1,0,104,116.54c-.08,40.5,32.92,73.68,73.55,74S251.69,157.56,251.84,116.78Z" transform="translate(-2.07 -15.18)" fill="#2d2d2d"/><path d="M419.51,237.26C476.75,261.31,507,303.68,511,366H489.6c-.75-6.57-1.15-12.83-2.19-19a114.73,114.73,0,0,0-111.3-95.53c-42.57-.67-74.77-28.77-79.92-70.85-3.44-28.15,11.06-61.25,42.45-77.47,38.78-20,81.5-4.12,101.5,27,22.67,35.25,14.77,79.69-18.29,105.35ZM317.24,172.8a57.22,57.22,0,1,0,57.2-57.18A57.33,57.33,0,0,0,317.24,172.8Z" transform="translate(-2.07 -15.18)" fill="#2d2d2d"/><path d="M401.06,421.22c-2.64,7.24-4.84,13.66-7.37,19.95a8.77,8.77,0,0,1-3.49,3.9c-38.5,23.2-80.13,33.66-125,30-46.85-3.81-87.94-21.6-122.44-53.33-12-11-22-24.38-32.26-37.14-5.84-7.22-4-17.18,2.73-21.61,6.56-4.29,15.85-1.85,20.81,5.71,22.24,33.92,52.93,57,91.16,69.81,41,13.71,82,12.77,122.17-3.58,9.47-3.85,18.36-9.14,27.54-13.71a9.41,9.41,0,0,1,4.12-1.35C386.1,420.18,393.2,420.72,401.06,421.22Z" transform="translate(-2.07 -15.18)" fill="#2d2d2d"/><path d="M415.55,411.67c-6.74-.49-12.5-.95-18.26-1.31-18.72-1.16-37.44-2.25-56.16-3.43-6.06-.38-11.76-2-14.43-8s-2-12.19,3.24-16.35a17.45,17.45,0,0,1,10.83-3.51c25.21,1.27,50.4,3.05,75.59,4.66,6.3.41,12.61.68,18.9,1.27,11,1,16.49,9,12.83,19.27q-16.05,45-32.68,89.84c-2.81,7.59-10.38,10.74-17.87,8.05-7.3-2.62-10.92-9.47-8.23-17.33,5.7-16.66,11.88-33.16,17.85-49.73C409.85,427.61,412.52,420.13,415.55,411.67Z" transform="translate(-2.07 -15.18)" fill="#2d2d2d"/></svg>