<svg data-name="Layer 1" id="Layer_1" viewBox="0 0 478.44 478.44"
    xmlns="http://www.w3.org/2000/svg">
    <path
        d="M20.61,255.17c2.39-4.11,4.23-8.69,7.27-12.23,5-5.81,12.08-7.12,19.52-7.11q90.87.07,181.74,0h6.71v-6.24c0-59.64.22-119.29-.15-178.93-.09-14.89,4.82-25.32,19.47-30.07h9.34c4.11,2.38,8.68,4.23,12.23,7.27,5.81,5,7.11,12.08,7.11,19.52q-.08,90.89,0,181.76v6.69h6.26q91.34,0,182.69,0c13.67,0,23,7,25.74,19.11,2.87,12.78-5.89,26-18.79,28.23a53.05,53.05,0,0,1-8.83.59q-90.18,0-180.35,0h-6.72v6.24q0,91.35,0,182.69c0,13.7-7,23-19.1,25.76-12.77,2.87-26-5.88-28.25-18.77a53.24,53.24,0,0,1-.58-8.84q0-90.16,0-180.35v-6.73h-6.22c-59.65,0-119.3-.21-178.95.15-14.86.09-25.31-4.82-30.07-19.46Z"
        fill="#fff" transform="translate(-20.61 -20.61)" />
</svg>