<svg id="Layer_1" data-name="Layer 1" xmlns="http://www.w3.org/2000/svg" viewBox="0 0 488.18 459.78"><path d="M11.5,245.54c.76-3.23,1.43-6.48,2.3-9.68a66.81,66.81,0,0,1,63-49.23c1.73,0,3.46,0,5.48,0,5.61-53.22,29.33-96,72.49-127.27,30.06-21.79,64-32.44,101.22-32.24,45,.23,84.26,15.59,117.27,46s51,68.55,55.37,112.84c6.57.8,12.78,1.13,18.8,2.38,29.49,6.14,51.7,32.85,52,63,.19,17.6.8,35.36-1.05,52.8-3.18,30-30.19,54.23-60.35,55.85-7.76.42-15.56.27-23.34.23-10.27-.06-16.1-6-16.11-16.41q0-71,0-142c0-33.94-9.81-64.77-31.67-90.71-39-46.32-89.2-63.78-147.68-48.4S126.05,118,114.49,177.48c-1.62,8.34-1.89,17-1.93,25.59-.18,46.38-.08,92.76-.08,139.14,0,11.67-3.64,16.71-15,18-35.85,4.15-66.57-8.2-80.68-40.83-2.41-5.59-3.54-11.75-5.26-17.64Z" transform="translate(-11.5 -27.11)" fill="#937d7d"/><path d="M255.69,486.85c-6.35,0-12.7.11-19.05,0-17.06-.34-30.24-13.52-30.4-30.26a30.5,30.5,0,0,1,29.59-30.65c13.17-.4,26.36-.42,39.52,0a30.45,30.45,0,0,1-.62,60.88C268.39,487,262,486.85,255.69,486.85Z" transform="translate(-11.5 -27.11)" fill="#937d7d"/><path d="M189.37,448v16.32C132.54,471.14,83,428.55,76.24,378.21H92.63C106.8,426.57,139.36,449.42,189.37,448Z" transform="translate(-11.5 -27.11)" fill="#937d7d"/></svg>