<svg data-name="Layer 1" id="Layer_1" viewBox="0 0 467.22 468.98"
    xmlns="http://www.w3.org/2000/svg">
    <path
        d="M126.77,25.1c15,2.92,25.76,12.35,36,22.84,18.1,18.58,36.84,36.56,54.49,55.56,16.59,17.85,16.51,41.95.17,60.09-11.32,12.57-23.61,24.27-35.67,36.16-2.45,2.41-3,4.08-1.46,7.32,12.07,25.25,29.53,46.57,48.4,66.83,19.32,20.73,40.55,39.29,64.49,54.57,6.53,4.17,13.57,7.56,20.28,11.48,2.28,1.34,3.65.93,5.45-.9,10.16-10.35,20.17-20.87,30.83-30.68,5.76-5.3,12.17-10.54,19.23-13.63,18.2-8,34.85-3.51,48.77,10,20.16,19.54,39.7,39.74,59.74,59.41,20.73,20.37,22.5,47.36,3.23,68.14-14.2,15.31-28.67,30.48-44.14,44.48-16.56,15-37.22,18.68-59,16.94-34.2-2.75-65.5-14.84-95.84-30-45-22.43-85.82-50.87-121.75-86C106,325,62.46,265,37.64,192.87,30.75,172.84,26.49,152.32,27,131c.45-20.7,7.28-38.81,21.9-53.68Q67,58.87,85.43,40.71A57.7,57.7,0,0,1,114.86,25.1ZM385.53,470.46c14.32.35,27.5-3.23,37.88-13.27q20.55-19.87,39.92-41c9.68-10.52,9.55-22.06-.41-32.3-20.54-21.12-41.44-41.89-62.47-62.51-8.2-8-18.61-8.22-27.92-1.43a57.2,57.2,0,0,0-6.49,5.77c-11.37,11.3-22.65,22.69-34,34-7.63,7.56-15.61,8.87-25,4.08-6.65-3.39-13.31-6.82-19.71-10.65-28.89-17.31-54.13-39.09-76.95-63.72-21.13-22.8-40.37-47-53.23-75.62-5.6-12.47-4.31-19.23,5.47-28.65,11.21-10.8,22.39-21.64,33.28-32.76,12.79-13.07,12.69-23.68.21-37-.21-.23-.42-.44-.64-.66C176.64,96,157.92,77.16,139,58.49A38,38,0,0,0,128.79,51c-10.39-4.84-19.07-.59-26.5,6.63C90.25,69.3,78.17,81,66.78,93.31A64.7,64.7,0,0,0,54.69,111.9c-6.31,15.23-4.65,31.19-1.49,46.86,6,29.85,17.53,57.79,32.46,84.13C139,337,213.75,408.25,313.26,452.32,336.27,462.52,360.16,469.54,385.53,470.46Z"
        fill="#fff" transform="translate(-26.92 -25.1)" />
</svg>