<svg data-name="Layer 1" id="Layer_1" viewBox="0 0 512 512" xmlns="http://www.w3.org/2000/svg">
    <path
        d="M1256,735v30a34.19,34.19,0,0,0-.85,4.31c-2.49,35.72-11.92,69.56-29.18,100.85-39.81,72.14-100.32,116.27-181.37,131.8-9.76,1.88-19.73,2.72-29.6,4H985a27.65,27.65,0,0,0-3.86-.82c-35.9-2.43-69.9-11.88-101.35-29.24C807.66,936.12,763.54,875.61,748,794.55c-1.87-9.75-2.71-19.69-4-29.55V735a34.19,34.19,0,0,0,.85-4.31C747.34,695,756.77,661.13,774,629.84,813.84,557.7,874.35,513.57,955.4,498c9.76-1.88,19.73-2.72,29.6-4h30a27.65,27.65,0,0,0,3.86.82c35.9,2.43,69.9,11.88,101.35,29.24,72.13,39.82,116.25,100.33,131.76,181.39C1253.84,715.2,1254.68,725.14,1256,735Zm-256,231c119.14,0,215.77-96.6,216-215.8S1119.23,534,1000,534,784.18,630.6,784,749.8,880.77,966,1000.05,966Z"
        fill="#1d8d07" transform="translate(-744 -494)" />
    <path
        d="M965.92,789.63c1.23-1.92,2-3.88,3.43-5.26q56.64-56.79,113.37-113.49c4.51-4.51,9.46-7.94,16.11-7.88,8,.08,14.11,3.71,17.83,10.77s3.1,14.16-1.52,20.72a40.2,40.2,0,0,1-4.63,5.22q-64.47,64.51-129,129c-11.28,11.27-22.07,11.26-33.33,0q-30-30-60.07-60.09c-7.46-7.49-9.15-16.37-4.88-24.53,6.5-12.44,22.2-14.46,32.88-4,15,14.72,29.7,29.67,44.55,44.51C962,785.91,963.29,787.12,965.92,789.63Z"
        fill="#1d8d07" transform="translate(-744 -494)" />
</svg>