<svg data-name="Layer 1" id="Layer_1" viewBox="0 0 461.19 524.25"
    xmlns="http://www.w3.org/2000/svg">
    <path
        d="M808.41,1321.84c-9,0-17.37.14-25.7-.07a25.49,25.49,0,0,1-9-1.64c-5-2.08-7.59-7.94-6.54-13.14a12.08,12.08,0,0,1,12-10c9.44-.26,18.89-.06,28.8-.06V1215h-22.6c-1.28,0-2.55,0-3.82,0-9-.19-14.75-5.23-14.6-12.73s5.73-12.17,14.48-12.26,17.44,0,26.58,0v-81.89c-8.8,0-17.67.42-26.48-.19-3.87-.26-8.53-1.63-11.22-4.19-6.81-6.52-3.08-18.05,6.33-19.8,5.82-1.07,11.93-.68,17.91-.82,4.35-.11,8.7,0,13.47,0v-81.87c-5.27,0-10.49,0-15.7,0-4.91,0-9.85.19-14.72-.3a12,12,0,0,1-10.65-11.91c-.09-5.81,3.87-11.25,9.82-12,6.64-.78,13.4-.6,20.11-.77,3.62-.08,7.24,0,11.65,0,0-8.46,0-16.58,0-24.7,0-11.67,2.26-22.81,8.29-32.9,13-21.79,32.5-31.72,57.66-31.7q143.79.14,287.57.05c2.54,0,5.09.12,7.63.27a61.74,61.74,0,0,1,58.07,58.71c.11,2.36.18,4.73.18,7.09q0,196,.08,392c0,22.48-7.82,40.79-26,54.27-11.35,8.43-24.35,11.88-38.38,11.87-97,0-193.9.15-290.84-.08-38-.09-64.28-27.07-64.38-65C808.39,1338.27,808.41,1330.47,808.41,1321.84Zm25.09,0c0,8.53,0,16.32,0,24.11.1,23.92,15.56,40.16,39.36,40.21q145.44.25,290.88,0c8.9,0,17.26-2.17,24.48-7.77,11-8.51,15-20,15-33.48q-.06-103.18,0-206.37,0-92.55,0-185.09c0-9.67-1.73-18.78-7.81-26.66-8.49-11-20-15-33.47-15q-77.49.08-155,0-66.32,0-132.62,0c-20.83,0-37.15,11.78-39.66,30.11-1.5,11-.27,22.39-.27,34.25h22.35c12.19,0,18.12,4,18.25,12.37s-5.72,12.57-17.9,12.57H833.78V1083c5.32,0,10.37-.1,15.41,0,5.44.13,11-.2,16.27.84,9.36,1.84,13,13.43,6.17,19.87-2.72,2.54-7.39,3.85-11.27,4.11-8.8.59-17.67.18-26.41.18v81.88h10.81c5.82,0,11.65-.16,17.46.07,5.47.23,9.83,2.6,11.93,8,1.82,4.66,1.33,9.61-2.49,12.53a23.11,23.11,0,0,1-11.79,4.25c-8.61.62-17.31.19-25.91.19v81.93c9.9,0,19.36-.19,28.8.06a12.11,12.11,0,0,1,12,10c1.05,5.34-1.46,11-6.47,13.18a25.2,25.2,0,0,1-9,1.68C851,1322,842.63,1321.84,833.5,1321.84Z"
        fill="#32363d" transform="translate(-766.8 -886.91)" />
    <path
        d="M1018.52,1273.91q-38.17,0-76.34,0c-12.18,0-16.9-4.85-16.12-17,2.58-40,21.2-69.8,58.81-84.82,53.87-21.51,111.46,10.79,123.65,68.16a110.86,110.86,0,0,1,2.11,17.82c.51,10.77-4.47,15.83-15.23,15.86C1069.77,1274,1044.14,1273.91,1018.52,1273.91Zm65.9-25.29c-4.84-34.19-33.13-58.58-66.81-58.07s-62.19,25.78-65.38,58.07Z"
        fill="#32363d" transform="translate(-766.8 -886.91)" />
    <path
        d="M1018.4,1145.27a60.32,60.32,0,0,1-60.53-60.15c-.07-33.65,27.19-61,60.56-60.81a60.48,60.48,0,0,1,0,121Zm-.08-25.11a35.7,35.7,0,0,0,35.53-35.31c.1-19.23-15.94-35.43-35.32-35.67s-35.73,16.11-35.65,35.75A35.32,35.32,0,0,0,1018.32,1120.16Z"
        fill="#32363d" transform="translate(-766.8 -886.91)" />
</svg>