<svg data-name="Layer 1" id="Layer_1" viewBox="0 0 638.8 638.97" xmlns="http://www.w3.org/2000/svg">
    <path
        d="M1074.21,580.91c55.89,0,111.78-.11,167.67,0,37.41.1,67.08,23.57,75,59.27a85.93,85.93,0,0,1,1.84,18.47q.16,166.66.07,333.35c0,45.46-32.62,78.08-78,78.09q-166.66,0-333.34,0c-45.06,0-77.86-32.43-77.91-77.45q-.2-167,0-334c0-45.44,32.63-77.68,78.28-77.74Q991,580.83,1074.21,580.91ZM879.68,825.56q0,82.82,0,165.63c0,19.65,9.2,28.85,28.91,28.85q165.63,0,331.26,0c19.61,0,28.83-9.27,28.83-28.95q0-165.63,0-331.26c0-19.63-9.22-28.83-28.93-28.83q-165.63,0-331.25,0c-19.66,0-28.82,9.21-28.83,28.93Q879.67,742.75,879.68,825.56Z"
        fill="#d2b9ac" transform="translate(-680.03 -431.17)" />
    <path
        d="M1168.25,529.61h-49c0-6.56,0-13.09,0-19.62-.06-18.86-9.94-28.88-28.61-28.88q-166,0-332,0c-18.88,0-28.87,9.86-28.88,28.59q0,166,0,332c0,18.83,9.94,28.81,28.63,28.86,6.85,0,13.7,0,21,0V919.2c-49,7.63-89.47-14.29-98.45-62.39a64.94,64.94,0,0,1-.84-11.92q-.06-169,0-337.95c.07-38.5,25.65-68.21,63.43-74.67a87.39,87.39,0,0,1,14.57-.85c110.88-.05,221.76.36,332.63-.25,40-.22,72.4,27.42,77.25,64.5C1169.45,506.54,1168.25,517.76,1168.25,529.61Z"
        fill="#d2b9ac" transform="translate(-680.03 -431.17)" />
</svg>