<svg data-name="Layer 1" id="Layer_1" viewBox="0 0 353.73 264.22"
    xmlns="http://www.w3.org/2000/svg">
    <path
        d="M46.89.39H354C346.53,7,339.38,14,331.53,20.07c-14.45,11.25-28.72,22.62-39.61,37.58-17.6,24.17-27.42,51.51-31.93,80.84-3.73,24.23-10.43,47.36-23.16,68.49-26.57,44.14-71.74,63.44-120.36,56.12-26.37-4-48.39-17.56-69.89-32.18C33.94,222.33,21.65,213,6.69,208.86,1.36,207.4.27,205.1.29,200c.2-43.45-.32-86.9.29-130.34C.93,44.67,11.3,24,32,9.25,36.69,5.91,41.91,3.32,46.89.39Z"
        fill="#f7691d" transform="translate(-0.27 -0.39)" />
</svg>