<svg data-name="Layer 1" id="Layer_1" viewBox="0 0 140.03 498.94"
    xmlns="http://www.w3.org/2000/svg">
    <path
        d="M150,10.06V509c-10.22-6.54-21-12.4-30.56-19.74-24.18-18.49-36.95-42.94-37.37-73.84-.28-20.3-1.36-40.61-2.9-60.85-1.79-23.54-8.83-45.48-24.09-63.95-7-8.44-15.14-15.88-22.71-23.83C18.85,252.56,10.15,236.23,10,216c-.13-17.54,5.41-33.4,13.91-48.38,17.18-30.27,41.77-53.76,69-74.75a162.89,162.89,0,0,0,32.61-32.84C136.64,44.82,143.9,27.72,150,10.06Z"
        fill="#f7691d" transform="translate(-10 -10.06)" />
</svg>