<svg id="Layer_1" data-name="Layer 1" xmlns="http://www.w3.org/2000/svg"
    viewBox="0 0 408.82 408.96">
    <path
        d="M604.6,388.17v24c-.62,5.26-1.13,10.54-1.88,15.78-5.72,40-21.37,75.52-48,106-32,36.7-72.1,59.36-120.16,67.61-7.7,1.32-15.5,2.08-23.25,3.1H389a34,34,0,0,0-3.86-.71,197.05,197.05,0,0,1-71.74-18.64C224.66,543.07,178.76,446.87,201.59,351.3c24-100.47,123.26-168.07,225.83-153.75,40.85,5.7,77.06,21.84,108,49.26,35.77,31.75,57.91,71.3,66.11,118.5C602.8,372.88,603.58,380.55,604.6,388.17ZM400.72,227.52c-94.8-.94-172.21,75.88-173.2,171.9-1,95,75.82,172.58,172.15,173.29,95,.7,172.72-75.72,173.22-172.23C573.38,305.45,497,228.47,400.72,227.52Z"
        transform="translate(-195.78 -195.64)" fill="#f6681c" />
    <path
        d="M400.87,421.39c-3.22,3.39-6.27,6.72-9.45,9.91Q374.23,448.55,357,465.71c-4.85,4.82-10.62,6.58-17.17,4.22-6-2.16-9.49-6.69-10.32-13-.75-5.75,1.73-10.28,5.71-14.23q20.24-20.13,40.43-40.29a22.94,22.94,0,0,1,3.79-2.47C364,384.48,349.57,370,335.08,355.5c-4.33-4.31-6.65-9.24-5.36-15.45a15.7,15.7,0,0,1,24.95-9.42,37,37,0,0,1,3.82,3.49q19.65,19.59,39.24,39.22a33.62,33.62,0,0,1,2.8,3.82c1.76-1.63,2.82-2.55,3.82-3.54Q424.71,353.32,445,333c4.8-4.8,10.33-6.93,17-4.82A15.65,15.65,0,0,1,470,352.47a37.39,37.39,0,0,1-3.72,4.15Q446.62,376.24,427,395.8a25.64,25.64,0,0,1-3.58,2.54l-.3,1.8a19,19,0,0,1,3.77,2.3c13.7,13.59,27.41,27.16,41,40.89,8.81,8.93,6,22.76-5.27,26.64-6.93,2.38-12.71.21-17.74-4.84q-20.26-20.37-40.65-40.64C403.24,423.58,402.27,422.71,400.87,421.39Z"
        transform="translate(-195.78 -195.64)" fill="#f6681c" />
</svg>