<svg data-name="Layer 1" id="Layer_1" viewBox="0 0 409.22 483.1" xmlns="http://www.w3.org/2000/svg">
    <path
        d="M316,18.08c3.95.92,7.94,1.7,11.85,2.78,30.5,8.43,52.56,35.21,54.32,66.8,1.23,22,.78,44-5.68,65.78,1.39.5,2.64,1,3.93,1.4,17.62,5.79,25.49,24.68,17,41.09-8.22,15.9-16.57,31.73-24.83,47.62a22.19,22.19,0,0,1-11.94,10.78,9.77,9.77,0,0,0-4.93,4.72,232.81,232.81,0,0,1-25.31,45.65c-2.56,3.57-4.94,7.64-8.38,10.13-7.15,5.16-5.73,12.26-5.42,19.13,0,1.07,2.37,2.53,3.89,3A335.67,335.67,0,0,1,388,364.43c26.72,14.31,47.43,34.36,60.54,61.93,9.77,20.54,12.32,42.37,11.54,64.78-.22,6.49-4,10-10.65,10q-72.42.06-144.83,0c-6.43,0-10.72-3.8-10.83-9.33s4.36-9.57,11-9.58q64.88,0,129.73,0h6.74c-.72-7.17-.89-14-2.15-20.68-6.44-34.09-24.54-60-54.81-77.3a298.51,298.51,0,0,0-64.78-27.74c-1.19-.34-2.41-.62-3.72-.95-9.17,29.13-28.12,46.12-59.25,44.34-27.31-1.56-43.78-18.12-51.64-44.76-8.88,3.05-17.81,5.83-26.53,9.17-19.41,7.43-38.36,16-55,28.54C94.54,414.49,80.77,444,79.85,479.8a19.3,19.3,0,0,0,.32,2.43H213.54c1.42,0,2.84-.05,4.25,0a9.55,9.55,0,0,1,9.36,8.83,9.69,9.69,0,0,1-8.29,9.91,29.43,29.43,0,0,1-4.7.16H73.58c-9.9,0-12.74-3.06-13-12.95-.88-30.81,6.28-59.1,25-84.14,15.39-20.62,35.84-34.46,58.59-45.54a313.32,313.32,0,0,1,56.21-21.48c3.25-.87,4.5-2.35,4-5.53a1.85,1.85,0,0,1,0-.47c.82-6.75-1.34-11.73-6.23-17-14.64-15.85-24.52-34.86-32.8-54.68-1.1-2.63-2.36-4.34-5.3-5.15-5.45-1.51-9.12-5.35-11.7-10.28-8.15-15.59-16.4-31.13-24.43-46.77-9.39-18.28-1.61-36.47,18-42.54a7.24,7.24,0,0,0,1-.43c-.53-11.27-1.92-22.22-1.41-33.08,2.26-48.06,37.8-89.74,84.84-100.2,4.72-1,9.49-1.89,14.24-2.82h16C265,20.23,273,23.26,279.4,29.72c6.43-6.51,14.32-9.35,22.49-11.64Zm-5.8,102.74c.2-.25-.11.11-.36.5-22.36,33.91-61.85,40.86-94.51,16.62-9.81-7.28-20.47-9-31.45-3.49S167.55,149.67,167.13,162c-.38,11.19-4.47,14.29-15.13,11.28-4.16-1.17-7.82-.26-10.7,3s-3.31,7-1.26,10.91c8.15,15.58,16.25,31.18,24.49,46.72a4.39,4.39,0,0,0,3.09,2c7.95.32,9.61,1.38,12.35,8.9A208.75,208.75,0,0,0,205.26,293c27.65,39.5,82.39,39.61,110.07.22a216.15,216.15,0,0,0,26.07-50c2.26-6.16,4.83-7.59,11.36-7.54a5.12,5.12,0,0,0,3.67-2.41c7.92-14.82,15.6-29.76,23.49-44.59,2.36-4.44,3-8.61-.51-12.63s-7.76-4.05-12.47-2.31c-7.35,2.7-12.78-.58-14-8.34-2.09-13.07-9-22.89-20-30C325.47,130.67,318,125.85,310.24,120.82Zm-149.92,7.05c.69-.14,1.06-.1,1.22-.26,19-19.72,47.24-19.25,67.88-3.24,25.53,19.8,62.67,5.14,69.61-26.44.8-3.67.84-7.5,1.56-11.18a9.37,9.37,0,0,1,18.47.24c.34,1.86.41,3.75.7,5.62,1.39,9,5.41,16.73,13.4,21.17,10.38,5.76,20.26,11.9,27.71,22.4a17.81,17.81,0,0,0,.59-2.53c.68-14,2-27.9,1.85-41.84-.19-26.4-18.63-48.22-44.46-53.66-10.14-2.13-19.41-1.38-27.7,6.2-6.86,6.27-17.1,5.84-24.18-.43a26.66,26.66,0,0,0-19.87-6.84,90.77,90.77,0,0,0-81.79,60.41C161.89,107.27,159.88,117.33,160.32,127.87ZM297,333.49c-24.48,11-48.85,10.73-73.23,0-1.92,17.65,1.61,32.65,17.28,42.23,13.29,8.13,27,7.8,40-.78C295.69,365.18,298.87,350.53,297,333.49Z"
        fill="#fff" transform="translate(-55.78 -18.08)" />
    <path
        d="M116,18.08c2,2.28,4.75,4.25,5.84,6.91,2.41,5.9-2.33,11.9-9.2,12-10.67.14-21.34,0-32,0H74.9c0,2.85,0,5.32,0,7.78,0,9.89.11,19.78-.06,29.67-.11,6.17-4,10.13-9.47,10.1s-9.42-4-9.47-10.16c-.15-15.39,0-30.77-.06-46.15,0-4.79,2.82-7.69,6.39-10.18Z"
        fill="#fff" transform="translate(-55.78 -18.08)" />
    <path
        d="M458.51,18.08c5.05,3.11,6.6,7.66,6.48,13.48-.27,14,0,27.94-.11,41.91,0,6.85-3.79,11.08-9.53,11.1-5.44,0-9.36-3.93-9.45-10.11-.16-10.67-.06-21.35-.07-32V37c-13,0-25.38,0-37.76,0-4,0-7.51-1.62-8.58-5.31-.83-2.83-.31-6.37.61-9.27.56-1.77,3-2.93,4.63-4.36Z"
        fill="#fff" transform="translate(-55.78 -18.08)" />
    <path d="M301.89,18.08c-8.17,2.29-16.06,5.13-22.49,11.64C273,23.26,265,20.23,256.6,18.08Z"
        fill="#fff" transform="translate(-55.78 -18.08)" />
    <path
        d="M74.91,325.26h5.61c10.69,0,21.38-.1,32.06.09,5.89.1,9.81,4,9.91,9.23s-4,9.6-10,9.66q-23.34.22-46.67,0c-6-.07-9.77-3.8-9.85-9.83q-.29-23.32,0-46.67c.06-6,4.36-10.15,9.67-10.05s9.18,4.14,9.27,10.37c.15,10.53.05,21.06.05,31.59C74.91,321.32,74.91,323,74.91,325.26Z"
        fill="#fff" transform="translate(-55.78 -18.08)" />
    <path
        d="M445.83,325.29c0-5.62,0-10.61,0-15.59,0-7.7-.12-15.41.17-23.1a9.15,9.15,0,0,1,8.72-8.89c4.61-.33,9.58,2.9,9.7,7.73q.6,25.43.05,50.87c-.1,4.91-4.21,7.88-9.56,7.93q-23.32.21-46.67,0c-6-.06-10.13-4.37-10-9.7s4.05-9.11,9.95-9.2C420.44,325.17,432.69,325.29,445.83,325.29Z"
        fill="#fff" transform="translate(-55.78 -18.08)" />
    <path
        d="M260.69,482.26a9.3,9.3,0,0,1,9.17,9.76,9.43,9.43,0,0,1-9.42,9.11,9.58,9.58,0,0,1-9.46-9.59A9.42,9.42,0,0,1,260.69,482.26Z"
        fill="#fff" transform="translate(-55.78 -18.08)" />
</svg>