<svg id="Layer_1" data-name="Layer 1" xmlns="http://www.w3.org/2000/svg" viewBox="0 0 343.11 486.66"><path d="M407.21,12.67c1.9.73,3.83,1.39,5.69,2.21a24.4,24.4,0,0,1,14.19,27.27,23.85,23.85,0,0,1-22.68,18.94c-17.58.34-35.17.15-52.75.19h-6.79c12.24,17.09,18.75,35.64,21.33,56.11,8.75,0,17.27,0,25.78,0a114.29,114.29,0,0,1,13.74.49,24.41,24.41,0,0,1,21.72,25.61c-.56,13.07-10.4,23.4-23.66,23.91-12.5.48-25,.22-37.54.13-2.69,0-4.24.51-5.19,3.4-11.23,34.18-34.45,57.19-67,71.42-1.29.56-2.54,1.2-4.51,2.12,1.57,1,2.62,1.76,3.78,2.33,18.8,9.36,31.51,24.5,40.88,42.85C345.06,310.93,349.09,334.25,355,357c7.23,27.67,14.94,55.23,22.73,82.75A49.65,49.65,0,0,0,384,453c8.88,13.72,6.44,30.15-6.38,40.3C365.9,502.6,348.86,501,338,489.57c-11.43-12-18.51-26.61-22.81-42.21-10.38-37.64-19.85-75.53-29.77-113.3-4.21-16.05-10.2-31.3-21.43-43.94-12.4-13.95-28.63-20.46-46.65-21.55-20.52-1.23-41.15-.9-61.73-1.18-8.4-.11-16.81.23-25.19-.13a24.32,24.32,0,0,1-23.57-21.91,24,24,0,0,1,17.84-25.82,45.93,45.93,0,0,1,10.82-1c28.51-.25,57.05.32,85.53-.79,24.72-1,47.25-8.77,64.72-27.51a62.89,62.89,0,0,0,13.71-22.6h-5.63q-91,0-182,0c-12.67,0-22.09-6.07-25.79-16.45a24.86,24.86,0,0,1,20.13-33.25,56.81,56.81,0,0,1,8-.48q90.8,0,181.57,0H302A62.38,62.38,0,0,0,284.63,85.9C272.24,73.62,256.79,67.33,240,64.25a166.6,166.6,0,0,0-28.26-2.84c-33.59-.33-67.18-.15-100.77-.12C99.87,61.3,91.22,57,86.52,46.63c-5.72-12.64.85-27.37,14-32.23,1.46-.54,2.9-1.15,4.35-1.73Z" transform="translate(-84.44 -12.67)" fill="#383b42"/></svg>