<svg data-name="Layer 1" id="Layer_1" viewBox="0 0 500 135.62" xmlns="http://www.w3.org/2000/svg">
    <path
        d="M515,205c-.5,3.25-1.41,6.49-1.43,9.74-.18,33.32-.21,66.63-.29,99.95v8.81c-3.87-1.92-6.9-3-9.51-4.78-21.61-14.45-43.52-28.5-64.6-43.7-26.44-19.07-55.89-28.18-88.05-29.1-26.27-.76-52.18,2.89-78.12,6.82-34.33,5.2-68.8,10.41-103.7,8-29-2-56.65-9.27-81.57-24.8-23-14.31-45.64-29.06-68.41-43.66A45.38,45.38,0,0,1,15,188.75H477.5c1.77.47,3.53,1.32,5.3,1.34,10.73.08,21.47,0,32.2-.09Z"
        fill="#42454d" transform="translate(-15 -188.75)" />
    <polygon fill="#42454d"
        points="461.21 0 500 0 500 2 480.61 6.46 464.2 4.37 461.21 1.21 461.52 0.62 461.21 0" />
    <polyline fill="#42454d"
        points="500 8.07 500 49.1 500 97.85 500 135.62 495.35 133.36 494.04 122.17 470.15 35.82 480.61 15.25" />
</svg>