<svg data-name="Layer 1" id="Layer_1" viewBox="0 0 345.51 491.56"
    xmlns="http://www.w3.org/2000/svg">
    <path
        d="M259.24,506c-5.45-2.21-8.75-6.48-11.77-11.36Q181.71,388.41,115.71,282.33C94,247.61,84.17,210.17,88.41,169.41c3.76-36.16,17.73-68.1,41.68-95.56a170.44,170.44,0,0,1,72.49-49.39,167.86,167.86,0,0,1,84.56-7.75c48.93,8,87.77,32.7,115.7,73.41,26.09,38,35,80.39,27.62,126-3.62,22.39-11.84,43-23.46,62.42Q342.17,386.77,277.44,495c-2.88,4.81-6.18,8.86-11.48,11Zm3.14-42.38c.73-1,1.13-1.54,1.46-2.09,40-66.78,80.19-133.45,119.91-200.39,21.79-36.74,26.56-76.1,13.83-116.86C375.72,74.29,306,32.57,233.89,45.52c-61.39,11-109.63,62.62-116.8,125-4,34.72,4.31,66.46,22.75,96q60.07,96.21,119.65,192.72C260.32,460.61,261.23,461.89,262.38,463.62Z"
        transform="translate(-87.44 -14.44)" />
    <path
        d="M260.07,273.62a86.47,86.47,0,0,1-86.27-86.49c.07-47.53,39-86.41,86.54-86.31s86.35,39.05,86.26,86.58A86.42,86.42,0,0,1,260.07,273.62Zm0-28.7a57.7,57.7,0,1,0-57.59-57.64A57.56,57.56,0,0,0,260.09,244.92Z"
        transform="translate(-87.44 -14.44)" />
</svg>