<svg data-name="Layer 1" id="Layer_1" viewBox="0 0 4191.94 5502.02"
    xmlns="http://www.w3.org/2000/svg">
    <path
        d="M360.07,5697.14V207c540.06-3.92,1080.11-11.09,1620.16-10.61,352.82.31,707.63-9.8,1058,23,603.1,56.41,1069.3,485.15,1205,1067.94C4365.7,1813.53,4132.84,2343.09,3634,2675.19c-38.45,25.6-72.74,57.45-133.08,105.67,89.38,39.53,156.72,69.52,224.21,99.14,542.9,238.25,848.75,726.91,825.62,1319.21-33.18,849.65-679.16,1485-1531.26,1492.44C2133.09,5699.36,1246.56,5695.78,360.07,5697.14ZM3087.93,2907.85c-22.71-5.36-87.5-25.09-153.75-35.36-167.95-26-248.65-138.55-334.87-274.74-54-85.24-183.93-130.66-288.22-173.35-96.67-39.57-209.72-39.08-306.47-78.52-245-99.89-313.3-614.91-105.79-780.9,40.55-32.44,97.39-53.2,149.49-61.08C2366,1455.8,2528.93,1580,2634.14,1922c18.49,60.1,94.63,147.83,141.69,146.33,282.87-9.05,565.65-35.39,846.74-69.86,40.94-5,108.42-89,103.53-129.09C3612.47,937.45,2808.57,272.26,1956.41,448.29,1357.5,572,978.06,936.77,780.2,1502.08,601.13,2013.69,776,2426.3,1151.74,2779.9c195.91,184.34,211.58,183.91,361.57-46.3,5.87-9,23-10.69,46.86-20.92,16.43,68.94,19.91,141.5,50.35,200.05,80.69,155.21,140.23,383.11,268.78,436.63,173,72,263.22,144.23,269.4,318,429.47,11.9,463.72-11.39,474.36-259L2767.63,3521c-13.21,58-63,147-44.19,217.55,68.73,257.25-26,537.15-235.2,628.35-257.33,112.17-546.77,21.12-678.27-230.37-56.33-107.74-65.08-239.83-117.69-350.26-27.41-57.55-102.16-128.83-157.17-130.24-171.81-4.42-344.17,28.48-516.74,34.3-480,16.2-480.09,13.69-377,478.54,178.88,806.89,781.87,1332,1591.38,1306,811.45-26,1338.58-398.24,1568.49-1254.67,157.32-586.05,1.22-1038-434.56-1318.93C3168.65,2773.69,3127.83,2788.26,3087.93,2907.85ZM2301.44,4271c65.35-102.4,127.51-158.66,128.48-216,.64-37.41-88.43-107.25-135.67-105.88S2163.37,4023.8,2164.83,4063C2166.9,4118.79,2232.11,4172.23,2301.44,4271ZM2337,1890.72c-87.6-51.8-143.93-112-188.83-104.41-49,8.26-87.35,79.32-130.34,123,50,44,95.56,113.22,151.63,123.19C2206.49,2039.09,2258.65,1960.54,2337,1890.72Z"
        fill="#f54b0b" transform="translate(-360.07 -195.12)" />
</svg>