<svg id="Layer_1" data-name="Layer 1" xmlns="http://www.w3.org/2000/svg" viewBox="0 0 485.1 323.53"><path d="M499,373.5c-2.26,9.05-5,17.75-11.23,25.16-10.5,12.57-23.79,18.82-40,19.11-3,.05-6,0-9,0q-185.65,0-371.31,0c-22.55,0-39.26-9.77-48.84-30.16a50.37,50.37,0,0,1-4.46-20.55Q13.68,256,14,145c.06-26.72,19.76-47.83,46.35-50.37,2.19-.21,4.41-.31,6.61-.31q189.45,0,378.89,0c22.57,0,38.93,10.14,48.77,30.39,2.1,4.32,2.95,9.25,4.38,13.89ZM256.48,397.43q94.72,0,189.43,0c20.26,0,32.9-12.51,32.92-32.7q.1-108.69,0-217.38c0-20.21-12.65-32.68-32.93-32.69q-189.42,0-378.86,0c-20.26,0-32.89,12.51-32.91,32.71Q34,256,34.23,364.72a37.56,37.56,0,0,0,3.24,15.52c5.87,12.45,16.53,17.27,30.06,17.24Q162,397.3,256.48,397.43Z" transform="translate(-13.9 -94.27)" fill="#f37021"/><path d="M255.81,276.46c-12.06-.13-22.87-4.08-32.73-10.83Q142,210.16,60.93,154.72c-4.21-2.88-7.19-6.32-6.19-11.74.75-4.06,3.4-7.48,7.38-7.57a19.78,19.78,0,0,1,10.82,3.2c30.22,20.38,60.25,41,90.33,61.63l69.54,47.58c16.68,11.41,30.62,11.43,47.27,0q79.5-54.41,159-108.8a37,37,0,0,1,5.25-3.17,9.86,9.86,0,0,1,11,16.07,28.1,28.1,0,0,1-4.07,3.22q-80.28,55-160.55,109.9C280.16,272.32,268.7,276.55,255.81,276.46Z" transform="translate(-13.9 -94.27)" fill="#f37021"/><path d="M458.36,364.93c.09,9.66-7.48,14.56-14.2,11.17a31,31,0,0,1-5.73-4.14Q381.72,324.74,325,277.46a54.16,54.16,0,0,1-4.61-4.06c-4-4.17-4.27-9.62-.89-13.68s8.83-4.68,13.66-1.62a24.35,24.35,0,0,1,2.62,2q58.51,48.75,117,97.61C455.48,360,457.21,363.41,458.36,364.93Z" transform="translate(-13.9 -94.27)" fill="#f37021"/><path d="M53.07,367.47c2.39-3.54,3.73-6.91,6.17-9Q118.51,308.8,178,259.41c5.61-4.65,11.72-4.32,15.52.46s2.83,10.47-2.92,15.27q-53.17,44.43-106.45,88.78c-4.48,3.73-8.92,7.52-13.51,11.12-3.44,2.69-7.61,3.16-11.05.73C57.07,374,55.54,370.71,53.07,367.47Z" transform="translate(-13.9 -94.27)" fill="#f37021"/></svg>