<svg data-name="Layer 1" id="Layer_1" viewBox="0 0 477.6 318.58" xmlns="http://www.w3.org/2000/svg">
    <path
        d="M499,399.19c-2.91,9-7.79,16.3-17.46,18.95a38.72,38.72,0,0,1-10.11,1.28q-211.28.09-422.55,0c-17.5,0-27.48-10-27.48-27.5q0-131.76,0-263.51c0-17.46,10-27.5,27.48-27.5q211.27,0,422.55,0c14.36,0,23.37,6.76,27.57,20.31Zm-31.53,1.72c-1.71-2.16-2.83-3.61-4-5q-49-60.53-98-121a26,26,0,0,1-3.17-4.58,8.94,8.94,0,0,1,13.54-11,22.44,22.44,0,0,1,3.55,3.67q48,59.22,95.93,118.49c1.41,1.74,2.86,3.44,4.89,5.89V131.34c-1.83,1.29-3.2,2.21-4.52,3.2q-93.44,70-186.87,140.07c-3.46,2.59-7.08,5.23-11,6.85-16.11,6.6-31.21,4.55-45.22-6Q138.68,205,44.66,134.55c-1.32-1-2.69-1.91-4.36-3.09V387.09c1.85-2.22,3.15-3.75,4.42-5.31q48-59.25,95.94-118.49a26.2,26.2,0,0,1,3.83-4,8.93,8.93,0,0,1,13.55,11,25.41,25.41,0,0,1-3.16,4.58q-49,60.54-97.95,121.05c-1.21,1.49-2.35,3-3.9,5.05ZM55.81,119.64c1.72,1.41,2.82,2.39,4,3.27Q151.92,192,244,261.09c10.52,7.88,22,7.79,32.63-.22L460.13,123.24c1.31-1,2.58-2,4.56-3.6Z"
        fill="#fff" transform="translate(-21.4 -100.9)" />
</svg>