_<svg data-name="Layer 1" id="Layer_1" viewBox="0 0 388.09 490.74"
    xmlns="http://www.w3.org/2000/svg">
    <path
        d="M270,14.26c5.54,1.87,11.4,3.09,16.54,5.72,19.23,9.81,29.59,25.73,30.52,47.36.44,10.2.21,20.44.05,30.66,0,2.93.84,4.44,3.55,5.82,41.65,21.22,67.54,54.67,76.16,100.67,2.3,12.29,2.14,25.09,2.51,37.67,1,32.13,3.53,64.06,11.57,95.31,5,19.41,11.51,38.26,23.64,54.5,3.85,5.15,8.86,9.54,13.8,13.73,4.58,3.88,6.83,8.32,5.89,14.23s-4.64,9.7-10.35,11.27a27.12,27.12,0,0,1-7.1.74q-48.14.07-96.29,0h-5.91c-1.2,23.7-10.52,43-28.88,57.42A71.35,71.35,0,0,1,256,504.86c-35.93-2.07-68-30.8-69.86-72.88h-5.45q-48.87,0-97.73,0c-9.61,0-15.8-4.9-16.6-13-.48-4.95.89-9.51,5-12.24,12.14-8,19.23-19.83,25.35-32.38,9.1-18.63,14.24-38.53,17.87-58.85,5.13-28.69,6.54-57.66,6.91-86.76.51-41.48,16.15-76.49,47.33-103.87,9.24-8.12,20.34-14.19,30.88-20.73,2.86-1.78,4-3.32,3.9-6.59-.17-9.89-.23-19.8,0-29.7.69-26.55,18.92-47.78,45-52.67a11.24,11.24,0,0,0,2.11-.88ZM115.46,402.82h291a20.88,20.88,0,0,0-1-2.16C394.25,382,387.05,361.82,382,340.78c-8.61-35.6-11.19-71.83-11.55-108.33A130.54,130.54,0,0,0,368,206.77c-12.64-59.35-67.5-96.31-127.37-86.18-47.23,8-85.66,49.33-89.52,97-1.31,16.21-1,32.55-1.92,48.81-1.76,32.45-5.9,64.59-16.56,95.44C127.8,375.81,121.25,389.15,115.46,402.82Zm99.61,29.33c1.37,17.35,8.89,30.42,23.81,38.41,16.36,8.76,32.68,7.68,47.86-3.05,12-8.47,18-20.4,18.81-35.36ZM232.8,92c9.25-.69,18.43-1.9,27.61-1.9S278.75,91.33,288,92c0-9.13.95-18.63-.22-27.86-1.91-15.11-17.64-24.06-34.37-20.63-10.57,2.16-19.3,9.89-20.43,20.21C232,73.16,232.8,82.78,232.8,92Z"
        fill="#222" transform="translate(-66.31 -14.26)" />
</svg>