<svg id="Layer_1" data-name="Layer 1" xmlns="http://www.w3.org/2000/svg" viewBox="0 0 512.52 512.57"><path d="M255.92,0l.83.05c2.77.43,5.5,1.16,8.27,1.51,16,2,32.29,2.47,47.81,6.27,90,22,151.2,77.17,184,163.63a221.77,221.77,0,0,1,14.22,76.6c0,2.88,1.48,5.76,1.48,8.65v.09c-.43,2.76-1.16,5.49-1.51,8.27-2,15.95-2.47,32.29-6.27,47.8-22.05,90-77.17,151.21-163.63,184a222,222,0,0,1-76.6,14.22c-2.89,0-5.76,1.48-8.65,1.48h-.09c-2.76-.43-5.49-1.16-8.26-1.51-16-2-32.29-2.47-47.81-6.27-90-22.05-151.2-77.16-184-163.63a221.77,221.77,0,0,1-14.22-76.6c0-2.81-1.41-5.6-1.48-8.42V256c.36-2.82,1.22-5.6,1.46-8.43.86-10.09.94-20.3,2.51-30.27,7.56-47.94,26.64-90.8,58.72-127.38C111.27,34.56,172.27,4.76,246,1.56,249.33,1.42,252.6.14,255.92,0ZM216.69,283a.48.48,0,0,1-.65,0l-4.4-4.31q-26-25.53-52-51.11c-3.2-3.18-5.33-3.38-9.62,2.28a148.38,148.38,0,0,1-30.09,29.29c-8.79,6.53-7.52,9.3,4.25,17.42a327.14,327.14,0,0,1,80.3,78.95c8.08,11.29,10.92,14.77,16.14,9.54q87.56-87.75,175.3-175.26c3.16-3.16,2.91-5.14-.14-8.12-11.23-10.92-22.23-22.07-33.31-33.14-5.7-5.68-5.7-5.69-11.27-.12q-65,65-130,130.09Z" transform="translate(-0.01)" fill="#7276d6"/></svg>