<svg data-name="Layer 1" id="Layer_1" viewBox="0 0 481.35 482.19"
    xmlns="http://www.w3.org/2000/svg">
    <path
        d="M383.46,502c-11.75-2.53-23.67-4.49-35.23-7.72-23.83-6.65-46-17.34-67.38-29.68-60.56-35-112.32-80.53-158.25-132.93-29.79-34-55.82-70.63-75.9-111.25-12.36-25-22.08-50.93-25.41-78.82-2.09-17.5-1.52-34.9,7.07-50.92a63.4,63.4,0,0,1,10.21-14C52.56,62.29,67.05,48.36,81.09,34c19.48-19.94,49.73-17.89,68.12,0,21.93,21.36,43.49,43.09,65,64.9,18.92,19.22,19.06,48,.28,65.54a45.67,45.67,0,0,1-14.29,8.74c-13.13,5.18-23.49,13.06-29.2,26.28a40.19,40.19,0,0,0-1.83,27.11c7,26.17,21.87,47.72,39.73,67.42,18.6,20.51,39.66,38,64.71,50.17,11,5.37,22.39,10.14,35.13,8.48,17.27-2.25,30.42-10.58,37.25-27.05,4.23-10.19,9.21-19.52,18.92-25.6,18.19-11.38,40.61-9.31,56.66,6.32q33.91,33,66.94,66.92c18,18.56,17.33,48.14-.93,66.71-14.41,14.67-29.07,29.08-43.59,43.65-10.29,10.32-22.94,15.55-37.17,17.49a31.77,31.77,0,0,0-3.55.89Z"
        fill="#3a3a3a" transform="translate(-20.27 -19.81)" />
</svg>