<svg data-name="Layer 1" id="Layer_1" viewBox="0 0 512 512" xmlns="http://www.w3.org/2000/svg">
    <path
        d="M4,275V245c.41-3.6.83-7.19,1.23-10.79,6.12-55.09,27.16-103.69,64.29-144.89C108.94,45.58,157.79,18.27,215.9,8c9.64-1.7,19.4-2.67,29.1-4h30a27.65,27.65,0,0,0,3.86.82c40,2.83,77.51,14.28,111.69,35.23C456.87,80.7,497.69,139.29,512,216c1.8,9.59,2.68,19.35,4,29v30l-1.23,10.79c-6.12,55.09-27.16,103.69-64.29,144.89C411.06,474.42,362.21,501.73,304.1,512c-9.64,1.7-19.4,2.67-29.1,4H245a27.65,27.65,0,0,0-3.86-.82c-40-2.83-77.51-14.28-111.69-35.23C63.13,439.3,22.31,380.71,8,304.05,6.19,294.45,5.31,284.69,4,275Zm490.72-14.76c.44-128.88-105-234.51-234.48-235-128.88-.44-234.52,105-235,234.48-.44,128.88,105,234.52,234.48,235C388.64,495.16,494.28,389.74,494.72,260.24Z"
        fill="#ececec" transform="translate(-4 -4)" />
    <path
        d="M196,259.92c0-31,0-62,0-93,0-4.94.75-9.36,5.41-12.05,4.86-2.81,9.18-1.11,13.49,1.67q72.24,46.51,144.52,92.94c9.9,6.37,9.84,14.68-.13,21.1q-72,46.33-144.11,92.66c-4.27,2.75-8.54,4.71-13.49,2S196,358,196,352.9C196,321.9,196,290.91,196,259.92Z"
        fill="#f7691d" transform="translate(-4 -4)" />
</svg>