<svg data-name="Layer 1" id="Layer_1" viewBox="0 0 383.34 384" xmlns="http://www.w3.org/2000/svg">
    <path
        d="M808,908.25c2.11-7.74,6.33-13.7,13.81-17.17.76-.35,1.11-2.28,1.11-3.47q.11-37.12.05-74.25c0-1.87,0-3.75,0-5.62.13-5.19,3-8.15,8.13-8.22,6.11-.08,12.23,0,18.34,0h86.36v-4.8q0-37.5,0-75c0-8,2.23-10.2,10.24-10.2,6.24,0,12.47,0,18.71,0,5.27,0,8.51,2.87,8.6,7.34.09,4.63-3.22,7.58-8.67,7.64-4.47,0-8.94,0-13.66,0V889.31h97.16V724.5c-4.56,0-9,0-13.47,0-5.55,0-8.84-2.84-8.86-7.46s3.27-7.48,8.79-7.52q10.11-.06,20.21,0c5.75,0,8.51,2.74,8.55,8.51.06,10.62,0,21.24,0,31.87v4.61h103c7.38,0,9.82,2.47,9.82,9.94q0,61.3,0,122.61c0,2.46.5,3.87,2.94,5.15,7.83,4.1,11.83,10.88,12,19.72.16,6.63-.18,13.26.11,19.87.21,4.63-1.27,8-5.31,10.21H808Zm353.18-138.51h-97.46V889.26h97.46ZM823,926.74h353.29V915.26c0-8.68-2.1-10.76-10.87-10.76H833.85c-1.13,0-2.25,0-3.37,0-4.32.26-7.31,3.07-7.45,7.36C822.87,916.73,823,921.6,823,926.74Zm112.64-112H838.22v74.47h97.41Z"
        fill="#f5681d" transform="translate(-808 -558)" />
    <path
        d="M1003.37,558c6.78,2.35,11,7.29,14,13.62a140.32,140.32,0,0,0,7.54,13.78,7.7,7.7,0,0,0,4.44,3.16c6.81,1.49,13.76,2.34,20.56,3.86a17.06,17.06,0,0,1,9.22,28.19c-4.66,5.36-9.65,10.45-14.62,15.54a5.76,5.76,0,0,0-1.8,5.61c1.15,6.76,2.12,13.57,2.78,20.4,1.32,13.57-11.55,23.05-24.05,17.68-6.51-2.8-12.77-6.21-19.28-9a7.54,7.54,0,0,0-5.45.06c-5.93,2.59-11.68,5.6-17.51,8.42-6.34,3.06-12.6,3-18.38-1.23-5.62-4.07-7.87-9.75-6.94-16.7s1.85-13.85,2.54-20.81a6.06,6.06,0,0,0-1.33-4.21c-4.44-4.9-9.08-9.62-13.71-14.35-5-5.07-6.77-11-4.73-17.84s7-10.72,13.93-12c6.35-1.22,12.71-2.44,19.1-3.49a6.59,6.59,0,0,0,5.61-4.08c2-4.41,4.72-8.51,6.73-12.93,2.92-6.4,7.08-11.33,13.91-13.62ZM968.68,662.65c.14.52.11,2.52,1,3.05s2.85.06,4.08-.52c6.88-3.21,13.75-6.46,20.49-9.95a10.45,10.45,0,0,1,10.29,0c7,3.51,14.12,6.82,21.22,10.15,3.9,1.84,5.16,1,4.65-3.2-1-7.93-2-15.84-3.23-23.73a9.65,9.65,0,0,1,2.89-8.81c5.65-5.81,11.19-11.74,16.71-17.67,2.69-2.88,2.18-4.51-1.63-5.23-7.95-1.49-15.91-3-23.89-4.27a9.34,9.34,0,0,1-7.2-5.27c-3.75-7-7.54-14.06-11.43-21-.67-1.19-1.91-2.8-3-2.84s-2.3,1.59-2.95,2.77c-3.8,6.87-7.52,13.79-11.1,20.78a9.65,9.65,0,0,1-7.51,5.42q-11.77,2.07-23.48,4.45a5.49,5.49,0,0,0-3.5,2c-.36.66.76,2.46,1.61,3.37,4.94,5.29,9.82,10.66,15.09,15.61,3.8,3.57,4.76,7.51,3.94,12.46C970.56,647.33,969.77,654.53,968.68,662.65Z"
        fill="#f5681d" transform="translate(-808 -558)" />
    <path
        d="M999.76,709.53a7.54,7.54,0,0,1,7.32,7.42,7.46,7.46,0,1,1-14.91-.27A7.55,7.55,0,0,1,999.76,709.53Z"
        fill="#f5681d" transform="translate(-808 -558)" />
</svg>