<svg id="Layer_1" data-name="Layer 1" xmlns="http://www.w3.org/2000/svg" viewBox="0 0 408.84 300.29"><path d="M924.6,546.31c-2.09,2.51-4.23,4.91-8,3.44s-4-4.54-4-7.9q0-22.35,0-44.71c0-8.92-3.19-13.19-11.69-15.68-7.65-2.25-15.28-4.53-23-6.56a5,5,0,0,0-4,1.06c-4,3.69-7.91,7.52-11.55,11.57a8,8,0,0,0-1.64,5c-.12,16-.08,31.93-.08,47.9,0,.93,0,1.86,0,2.79-.21,4.36-2.54,7.05-6.06,7s-5.87-2.72-5.88-7.1c0-16.76-.07-33.53,0-50.29a7.59,7.59,0,0,0-2.59-6.27c-2.87-2.57-5.5-5.41-8.23-8.14-4.74-4.74-4.74-4.74-11.54-1.89,9.3,9.44,9,21.32,8.81,33.22-.14,10.37,0,20.75,0,31.13,0,1.07.06,2.14,0,3.19-.34,3.73-2.84,6.22-6.09,6.15s-5.72-2.61-5.8-6.38c-.12-6.25,0-12.51,0-18.76,0-8.65,0-17.3,0-26-.07-9.36-4.55-16.16-13.19-19.42-12.66-4.78-25.42-9.31-38.56-14.1l-12.11,18.16c-1.41,2.1-2.73,4.26-4.25,6.27-4.82,6.38-13,7.15-18.83,1.7-3.08-2.88-5.89-6-9.63-9.91-.12,2.59-.24,4-.24,5.35q0,26.94,0,53.89c0,6.11-2,9.08-5.95,9.14s-6-2.9-6-9q0-26.94,0-53.89v-4.24l-1.5-1c-2.46,2.88-4.73,5.94-7.4,8.61-7,7-15.31,6.22-20.88-2-5.15-7.58-10.17-15.24-15.45-23.16-13.69,5.09-27.39,9.75-40.72,15.28-7.92,3.28-11,10.4-11,18.8,0,13.83,0,27.67,0,41.51a29.31,29.31,0,0,1-.15,4,5.48,5.48,0,0,1-5.35,5,5.37,5.37,0,0,1-6-4.22,16.58,16.58,0,0,1-.48-4.33c0-13.84-.36-27.69.13-41.51.23-6.21,2.13-12.36,3.35-19-4.66-3.35-4.66-3.35-9.45,1.23-10.63,10.16-22.1,12.32-32.84,5.75-3.36-2-6.25-4.93-9.14-7.66-1.67-1.59-2.94-2.06-5.13-.87-5.25,2.87-10.65,5.45-16,8.09-5.87,2.88-8.61,7.53-8.56,14.07.09,13.17,0,26.35,0,39.52a30.82,30.82,0,0,1,0,3.19c-.38,3.45-2.88,5.88-6,5.86a6,6,0,0,1-5.88-5.91c-.2-3.72-.08-7.45-.08-11.18q0-16,0-31.93c0-11,4.92-19.07,14.7-24.12,4.82-2.48,9.69-4.87,14.71-7.38-4.47-2.87-8.72-5.42-12.76-8.26a49.68,49.68,0,0,1-5.55-5.13c-4.27-4.1-4.78-8.29-3-14.31,2.45-8.3,2.9-17.22,3.83-25.92,1-9.63.71-19.49,2.58-28.94,4.25-21.55,22.29-38.16,42.54-40.45,25-2.83,47.6,11.79,54.5,36.25,2.35,8.32,2.47,17.29,3.38,26,.94,9,1.48,18,2.45,27a29.69,29.69,0,0,0,2.24,8c1.64,3.91,1,7.07-1.68,10.31-5.4,6.68-12.29,11.28-20.15,15,2.9,2.56,5.22,2.73,8.91,1.17,11.73-5,23.79-9.14,35.75-13.54a10,10,0,0,0,6-5c2.29-4.06,6.34-7.09,9.32-10.82,1.2-1.51,1.59-3.68,2.3-5.57.13-.35,0-.79,0-1.19,1.25-9.95-1.49-17.71-8.86-25.43-12-12.56-16.69-28.89-16.62-46.19,0-8.63-2-16.63-3.89-24.92-4.26-18.63-5.4-37.61,3.37-55.43,9.79-19.89,26.35-31.23,48.42-31.9,30.44-.93,60.93-.32,91.4-.3,4.62,0,7.05,2.29,7,6.86-.06,23.28-.06,46.56-.57,69.83a49.67,49.67,0,0,1-3.44,15.88,37.91,37.91,0,0,0-2.36,14.77c.44,13.75-.89,27.32-8,39.33-4.29,7.22-10.21,13.47-15.25,20.26a22.86,22.86,0,0,0-2.27,5.08c-.14.35,0,.8,0,1.19-1.59,10.58,1,19.56,10,26.06a2,2,0,0,1,.8.88c1.49,6,6.89,6.54,11.45,8.23,7,2.59,14,5,20.93,7.72,3,1.17,5.8,1.53,8.84.29,1.71-.69,3.56-1.06,5.34-1.58,7.88-2.25,8.51-3.15,7.26-11.18a5.24,5.24,0,0,0-1.81-2.83c-11.76-9.87-17.56-22.49-17.26-37.78a32.38,32.38,0,0,0-3.23-14.89C796.7,376.13,813,348,837.47,346.82c20.3-1,40.68-.57,61-.64,4.16,0,6.77,2.13,6.77,5.82,0,12.49-.18,25-.65,37.46a20.08,20.08,0,0,1-2.57,8.71c-2.72,4.88-3.2,9.95-3.07,15.34.39,15.31-5,28.07-17.22,37.64-3.61,2.83-1.69,6.67-1.6,10,0,1.07,2.72,2.49,4.42,3,6.58,2.08,13.25,3.89,19.9,5.77,10.16,2.87,17,9.05,19.47,19.54a3.42,3.42,0,0,0,.65.95ZM784.31,262.43a3.87,3.87,0,0,0-1-.29c-28.33,0-56.68-.43-85,.23-19.75.45-36.88,15.08-41,34.36-2.92,13.78-3,28,1.73,41.36,2.65,7.41,3.25,14.65,3.2,22.23a66.31,66.31,0,0,0,6,29c10.61,22.72,33,35.44,58.81,33.24,22.67-1.93,43.71-19.67,49.06-42.83,2.12-9.19,1.55-19,2.34-28.49a56.49,56.49,0,0,1,1.47-8.14c1.49-6.44,4.24-12.81,4.44-19.28.63-20.2.32-40.43.35-60.65C784.67,263,784.47,262.74,784.31,262.43Zm109.05,95.92c-1-.11-1.64-.24-2.28-.24-16.09,0-32.18-.05-48.28,0a30.85,30.85,0,0,0-7.1.85c-16.53,4-24.74,22.63-16.83,36.29,2.7,4.66,3.43,9.55,3.47,14.87a61.07,61.07,0,0,0,1.8,15.33c3.44,12.71,14.8,21.55,28.6,23,11.4,1.21,24.06-5.84,30.11-16.62,3.36-6,4.38-12.49,4.17-19.21-.2-6.31.2-12.3,3.47-18.08a24.76,24.76,0,0,0,2.74-10.68C893.62,375.56,893.36,367.17,893.36,358.35ZM618.45,409c1.12-15.35-2.65-27.9-11.2-38.11-12.31-14.7-36.28-16.66-51-4.42-13.8,11.46-16.36,26.81-16,43.33,5.73,1.94,6.17,2.49,6.87,8.45.08.66.19,1.32.28,2,2,14.45,13.34,26.35,26.68,27.9,16.33,1.9,29.6-5.72,35.54-20.21,1.8-4.39,1.71-8.18-1.26-12.2-7.74-10.49-18.5-15.44-30.84-18.08-5.72-1.22-10.38-.74-13.8,4.53a19.21,19.21,0,0,1-3,3.16c-2.94,2.79-6.43,3.1-8.89.83s-2.46-6.09.41-9.2,6-6.07,8.82-9.23a9,9,0,0,1,7.82-3C588.57,385.86,605.66,392.34,618.45,409Zm69.37,17.95c0,3.56-.13,6.34.07,9.09a4.37,4.37,0,0,0,1.48,3c10.24,7.12,20.56,14.13,30.91,21.19,10.4-7.1,20.62-14,30.76-21.08a4.35,4.35,0,0,0,1.65-2.86c.22-2.84.08-5.71.08-9.1C731,437.41,709.71,437.63,687.82,426.92Zm42.53,40.87,15,15.17,14.38-21.5c4.45-6.65,4.45-6.65-1.56-11.93-.08-.08-.24-.07-.79-.21ZM695.2,483l15.11-15.14L682.63,449a55.46,55.46,0,0,0-4.46,4.89,3.34,3.34,0,0,0-.35,3C683.58,465.68,689.48,474.44,695.2,483ZM566.32,459.78c-.23,6.17-2.87,13.61,5.91,17.91a15,15,0,0,0,14.41-.05c8.69-4.34,6.42-11.58,5.62-17.86Zm288.26,18.85c3.88-4.05,7-7.71,10.53-10.85,2.92-2.58,3.48-5.32,2.57-8.06H841.15c.29,1.65,0,4.44,1.18,6C845.89,470.08,850.08,474,854.58,478.63Zm-316-44.86c-1.15,4.5-2.22,8.31-3,12.18a3.91,3.91,0,0,0,.82,3.05c4.85,5,10.74,8.36,18.35,10.81-.69-3.15-.38-6.55-1.89-7.85A54.89,54.89,0,0,1,538.62,433.77Zm66.32,25.87c6.63-2.41,12.41-5.45,17.11-10.28.73-.75,1.52-2.1,1.34-3-.83-4-2-7.87-2.87-11.14-3.92,4.7-7.56,10.11-12.25,14.35C605,452.51,603.89,455.18,604.94,459.64Z" transform="translate(-515.76 -249.93)" fill="#fff"/><path d="M899,525.14c0,5.84,0,11.68,0,17.51,0,4.67-2.29,7.48-5.89,7.56s-6-2.79-6.06-7.72q0-17.52,0-35c0-4.75,2.15-7.42,5.83-7.48s6.09,2.7,6.12,7.64C899.06,513.46,899,519.3,899,525.14Z" transform="translate(-515.76 -249.93)" fill="#fff"/><path d="M553.35,529.16c0,4.78.07,9.57,0,14.35-.08,4-2.49,6.67-5.87,6.7s-6-2.61-6-6.6q-.17-14.54,0-29.08c.05-4.08,2.48-6.6,5.93-6.63,3.61,0,5.93,2.56,6,6.92C553.4,519.6,553.35,524.38,553.35,529.16Z" transform="translate(-515.76 -249.93)" fill="#fff"/><path d="M796.76,531.49c0,3.73,0,7.45,0,11.18-.08,4.67-2.36,7.49-6,7.55s-5.95-2.76-6-7.42q-.07-11.37,0-22.75c0-4.53,2.1-7.12,5.65-7.27,3.73-.16,6.1,2.52,6.3,7.13,0,.14,0,.27,0,.4Z" transform="translate(-515.76 -249.93)" fill="#fff"/><path d="M655.73,531.58c0,4.13,0,8.25,0,12.37-.05,3.59-2,5.75-5.5,6.21A5.81,5.81,0,0,1,644,544.3q-.36-12.76,0-25.54a5.79,5.79,0,0,1,6.13-6c3.31.12,5.53,2.51,5.66,6.44.13,4.12,0,8.25,0,12.37Z" transform="translate(-515.76 -249.93)" fill="#fff"/><path d="M681.42,318.85c0,4.38.07,8.48,0,12.58-.1,4.86-2.19,7.37-5.94,7.38s-5.91-2.5-6-7.36c-.08-4.38-.15-8.78.17-13.14a12,12,0,0,1,10.46-11.38c20.1-2.9,40.22-3.69,60.22.74,10.5,2.33,20.24,6.44,28.19,14,3,2.81,3.28,6.21,1,8.83a5.63,5.63,0,0,1-8.22.47c-11.36-10.23-25.35-12.74-39.81-13.93C708.15,315.94,695,316.93,681.42,318.85Z" transform="translate(-515.76 -249.93)" fill="#fff"/><path d="M879.7,389.06c.08,5.28-3.46,8.48-7.25,7.07-12.14-4.55-24.8-5.3-37.5-6.15-3.39-.23-5.27-2.32-5.39-5.74a5.4,5.4,0,0,1,5.69-5.88c13.68.15,27.34,1,40.11,6.58C877.37,385.83,878.76,388.13,879.7,389.06Z" transform="translate(-515.76 -249.93)" fill="#fff"/></svg>