<svg id="Layer_1" data-name="Layer 1" xmlns="http://www.w3.org/2000/svg" viewBox="0 0 512 503.2"><path d="M656,393c-.45,1.06-.89,2.13-1.33,3.2-3.75,9-13,14.24-22.11,12.52A19.93,19.93,0,0,1,616,389c-.12-19,0-38,0-57q0-50.73,0-101.47c0-25.65-16.92-42.51-42.63-42.51H226.46C200.85,188,184,204.91,184,230.65q0,128,0,255.94C184,512,201,529,226.25,529c31.16,0,62.31.18,93.47,0,9.09-.07,15.84,3,21.44,10.29,17.43,22.53,35.2,44.79,52.85,67.15,5,6.34,6.73,6.3,11.71-.06,17.45-22.3,35-44.5,52.29-67,5.55-7.21,12.19-10.55,21.35-10.48,31.32.26,62.64.12,94,.1,25,0,41.41-15.62,42.68-40.48a20.11,20.11,0,0,1,16.56-19.25c9.13-1.72,18.35,3.5,22.1,12.53.45,1.06.89,2.13,1.33,3.2v13a7.63,7.63,0,0,0-.79,1.76C648.09,541.86,616.1,569,573.46,569c-27.49,0-55,.1-82.47-.1-3.95,0-6.32,1.31-8.65,4.33-15.5,20-31,40-46.82,59.8-19.54,24.36-52.31,24.07-71.71-.4q-23.74-30-47.3-60.07A8.37,8.37,0,0,0,309,569c-28.66.1-57.32.19-86,0A79.82,79.82,0,0,1,146.88,510c-1.08-4-1.93-8-2.88-12V219a17.19,17.19,0,0,0,.9-2.77A79.76,79.76,0,0,1,223.54,148q176.46-.2,352.93,0c36.18,0,67.39,24.42,76.77,59.42,1,3.82,1.84,7.69,2.76,11.54Z" transform="translate(-144 -147.93)" fill="#f6681c"/><path d="M420,398.84c0,17.49,0,35,0,52.45,0,12.66-8.27,21.61-19.86,21.68-11.77.08-20.11-9-20.12-21.91q0-52.18,0-104.39c0-12.65,8.26-21.61,19.85-21.68,11.81-.07,20.11,8.92,20.13,21.91Q420,372.87,420,398.84Z" transform="translate(-144 -147.93)" fill="#f6681c"/><path d="M399.93,256A20,20,0,1,1,380,276,20,20,0,0,1,399.93,256Z" transform="translate(-144 -147.93)" fill="#f6681c"/></svg>