<svg id="Layer_1" data-name="Layer 1" xmlns="http://www.w3.org/2000/svg" viewBox="0 0 383.01 319.32"><path d="M208,386.15c3.24-6.62,9.13-10.11,15.59-12.62q38.47-14.94,77-29.62,132-50.55,264.06-101.06a29.84,29.84,0,0,1,6.45-1.84c11.8-1.67,20.19,5.37,19.85,17.88-.22,8.13-2,16.28-3.75,24.29Q560.13,410.92,532.72,538.6a51.14,51.14,0,0,1-4.42,12.62c-3.92,7.6-10.68,10.46-18.85,8a38.69,38.69,0,0,1-11.36-5.4c-27.47-19.89-54.78-40-82.14-60-1.1-.8-2.21-1.58-3.56-2.55-1.09,1-2.12,1.81-3.08,2.73q-21,20-41.93,40.06a20.47,20.47,0,0,1-15.26,6.2c.36-5.4.7-10.69,1.08-16,1.66-23.38,3.29-46.77,5.1-70.14a8.29,8.29,0,0,1,2.49-5Q440.31,377.53,520,306.07c.37-.33.88-.59,1.1-1,1-1.84,1.92-3.73,2.88-5.61-2.28-.44-4.68-1.55-6.81-1.17-2.59.47-5.1,2-7.4,3.39Q410.67,363.6,311.59,425.53a7.42,7.42,0,0,1-5.37.93c-28.1-8.59-56.14-17.36-84.2-26.08-5.69-1.78-10.85-4.33-14-9.74Z" transform="translate(-208 -240.77)" fill="#fff"/></svg>