<svg data-name="Layer 1" id="Layer_1" viewBox="0 0 1440 768" xmlns="http://www.w3.org/2000/svg">
    <defs>
        <linearGradient gradientUnits="userSpaceOnUse" id="linear-gradient" x2="1440" y1="384"
            y2="384">
            <stop offset="0" stop-color="#33373e" />
            <stop offset="1" stop-color="#393c44" />
        </linearGradient>
    </defs>
    <path
        d="M0,676V0H1440V396c-1,.26-1.93.47-2.87.79A795.94,795.94,0,0,0,1312.75,452c-35.1,19.41-68.42,41.4-97.08,69.77-32,31.71-50.5,71.91-69.52,111.75-5.51,11.55-10.42,23.49-17.07,34.36-31.79,51.94-76.88,85.36-137.45,96.39-8.81,1.6-17.75,2.48-26.63,3.69H938c-1.78-.33-3.56-.72-5.35-1-13.67-1.89-27.5-3-41-5.75C833.49,749.39,778,729.46,724.91,703.13c-17.27-8.56-34.59-17.4-50.55-28.1-19.81-13.29-39.48-26.63-61.09-36.77-47.33-22.21-95.81-33.38-148.53-20.59C400.91,633.14,338.22,651.6,278,677.89c-5.62,2.45-11.19,5.27-17.07,6.89a597.47,597.47,0,0,1-102,18.48C122,706.76,85.65,704.49,50.12,694,33.13,689,16.69,682.05,0,676Z"
        fill="url(#linear-gradient)" />
</svg>