<svg data-name="Layer 1" id="Layer_1" viewBox="0 0 487.52 487.2" xmlns="http://www.w3.org/2000/svg">
    <path
        d="M504,274.87c-1.23,8.92-2.25,17.88-3.71,26.76-15.11,91.68-85.46,168.92-175.75,193.07C190.35,530.59,55.11,449.92,23,314.83-8.69,181.45,78.41,46.67,213.23,20.68c10.53-2,21.26-3.12,31.89-4.65h29.51c9.41,1.25,18.86,2.19,28.21,3.78,39,6.64,74.12,22.33,105.55,46.31,5.34,4.08,6.54,9.34,3.26,14s-9.24,5.31-14.65,1.2A222.56,222.56,0,0,0,314.06,41.5c-119.8-29-241.2,42.59-270.89,162.21-21.11,85,1.42,159.15,64.39,220.56,1,1,2.12,1.83,2.83,2.43C135.54,348.4,187.18,304.81,271.2,308c65.8,2.52,122.61,51.1,138.16,119.29,1.25-1,2.36-1.72,3.33-2.62,42.65-40,66.78-89.05,71.46-147.39,3.77-47-6.55-91-30.28-131.74-.48-.83-.95-1.65-1.37-2.5-2.5-5.06-1.22-10.21,3.19-12.89,4.6-2.79,10.43-1.68,13.1,3.46,6.63,12.77,13.44,25.52,18.91,38.8,9,21.81,13.79,44.74,15.5,68.3a25.21,25.21,0,0,0,.8,3.68ZM259.54,484.27c45.39-.37,86.34-12.22,123.59-36.51,9.85-6.42,9.85-6.41,7.13-18.05-16.83-71.93-86.55-116-158.87-100.38-52.13,11.25-93,53.77-102.25,106.29-.68,3.9-.21,6.41,3.56,9A224.12,224.12,0,0,0,259.54,484.27Z"
        fill="#676f7d" transform="translate(-16.48 -16.03)" />
    <path
        d="M260.59,147.35A67.37,67.37,0,1,1,193,214.46,67.49,67.49,0,0,1,260.59,147.35Zm-.12,119.77A52.4,52.4,0,1,0,207.92,215,52.51,52.51,0,0,0,260.47,267.12Z"
        fill="#676f7d" transform="translate(-16.48 -16.03)" />
    <path d="M398.21,129.41a7.46,7.46,0,1,1-7.58,7.15A7.54,7.54,0,0,1,398.21,129.41Z" fill="#676f7d"
        transform="translate(-16.48 -16.03)" />
</svg>