<svg data-name="Layer 1" id="Layer_1" viewBox="0 0 383.19 365.14"
    xmlns="http://www.w3.org/2000/svg">
    <path
        d="M808,749.25a21.54,21.54,0,0,0,2.49-2c13-14.37,25.86-28.8,38.86-43.13a6.48,6.48,0,0,0,1.74-5.69c-2.19-19.62-4.22-39.24-6.29-58.87-.07-.72,0-1.45,0-2.41,14.88-3.15,29.59-6.26,44.31-9.39,4.15-.88,8.25-2.2,12.43-2.57,5.1-.45,7.68-3.17,10.05-7.44,8.7-15.71,17.8-31.21,26.76-46.79.62-1.07,1.29-2.1,2.09-3.41,1.22.49,2.36.91,3.46,1.4,17.51,7.84,35,15.64,52.5,23.58a7.26,7.26,0,0,0,6.65-.05c17.35-7.87,34.77-15.62,52.17-23.4,1.11-.5,2.25-1,3.67-1.56.76,1.29,1.45,2.44,2.12,3.6,9.26,16.12,18.61,32.19,27.71,48.41a9.81,9.81,0,0,0,7.35,5.3c18.91,3.85,37.78,7.93,56.67,11.94.47.1.94.24,1.86.48-.61,6.06-1.19,12.1-1.83,18.14-1.57,14.77-3.22,29.54-4.63,44.34-.13,1.42.93,3.27,2,4.44,12.69,14.27,25.49,28.46,38.26,42.67.9,1,1.77,2,2.82,3.26l-23.09,25.73c-6.09,6.78-12.28,13.48-18.2,20.4a7.79,7.79,0,0,0-1.62,5.25c2,19.76,4.1,39.5,6.19,59.25.06.61,0,1.23,0,2.22L1125,869.21c-10.24,2.18-20.45,4.45-30.71,6.46a6.44,6.44,0,0,0-4.75,3.58q-14.19,24.87-28.5,49.68c-.67,1.16-1.36,2.31-2.17,3.68l-25.12-11.22c-10.12-4.54-20.27-9-30.32-13.68a7.93,7.93,0,0,0-7.34,0c-17.34,7.9-34.76,15.64-52.16,23.43-1,.45-2,.85-3.43,1.43-.73-1.19-1.46-2.3-2.11-3.44C929,912.75,919.5,896.45,910.26,880a8.74,8.74,0,0,0-6.51-4.73c-19.52-4-39-8.17-59-12.4.29-3.41.53-6.83.89-10.24,1.84-17.39,3.74-34.77,5.53-52.16a4.84,4.84,0,0,0-.89-3.37q-20.57-23.07-41.29-46c-.21-.24-.64-.27-1-.4Zm61.43-94.33c0,1.49-.1,2.61,0,3.71,1.36,12.92,2.32,25.9,4.27,38.72,1.23,8.07.87,14.95-6.2,20.19a27.14,27.14,0,0,0-3.54,3.85L838.32,750c1.39,1.58,2.6,3,3.83,4.35,10.19,11.33,20.43,22.6,30.5,34a7.84,7.84,0,0,1,1.77,5.26c-.93,10.57-2.19,21.11-3.31,31.67-.68,6.54-1.3,13.09-2,19.75,14.82,3.14,29.12,6.57,43.57,9.07,7,1.21,12,3.69,14.63,10.54,1.24,3.23,3.39,6.1,5.13,9.13l17.24,29.94c1.21-.51,2.23-.91,3.22-1.36,14.33-6.4,28.69-12.74,43-19.27a7.94,7.94,0,0,1,7.37-.09c8.79,4.12,17.7,8,26.57,12,6.53,2.93,13.07,5.84,19.66,8.79,8.7-15.12,17.09-29.86,25.7-44.48a8.34,8.34,0,0,1,4.73-3.44c7.37-1.82,14.85-3.22,22.28-4.8,9.21-2,18.43-4,27.58-5.93,0-1.63.11-2.88,0-4.1-1.61-15.28-3.19-30.56-4.94-45.82a8.74,8.74,0,0,1,2.35-7.72c10.58-11.47,20.94-23.15,31.37-34.76.79-.89,1.53-1.82,2.36-2.8-11.65-12.94-23.05-25.52-34.28-38.25a7.79,7.79,0,0,1-1.81-5.24c.91-10.45,2.15-20.87,3.25-31.31.7-6.66,1.34-13.34,2-20.17-13.59-2.88-26.64-6.26-39.9-8.26-9.65-1.45-16.55-5-20.21-14.52-1.77-4.61-4.85-8.71-7.34-13-4.34-7.57-8.69-15.13-13.11-22.82-1.56.67-2.93,1.22-4.27,1.82-14.21,6.36-28.39,12.8-42.68,19a8.17,8.17,0,0,1-5.86,0c-14.28-6.2-28.45-12.64-42.67-19-1.41-.63-2.87-1.19-4.35-1.8-8.66,15.06-17.05,29.81-25.67,44.43a8.12,8.12,0,0,1-4.72,3.46C902.8,647.9,886.23,651.35,869.43,654.92Z"
        fill="#5ed27f" transform="translate(-808 -567.47)" />
    <path
        d="M984.25,815.41l-66.56-66.69,15-15,49.77,49.89c27.18-30.51,53.81-60.4,80.77-90.64L1080,708Z"
        fill="#5ed27f" transform="translate(-808 -567.47)" />
</svg>