<svg data-name="Layer 1" id="Layer_1" viewBox="0 0 477.26 477.27"
    xmlns="http://www.w3.org/2000/svg">
    <path
        d="M499,355.63c-2.7,5-4.7,10.57-8.27,14.83-5.34,6.38-13,8.68-21.34,8.48-2.32-.05-4.65,0-7.68,0V384q0,29.36,0,58.71c-.06,31.74-23.64,55.46-55.29,55.5q-60.12.11-120.23,0a25.61,25.61,0,0,1-3.72-.12,9.28,9.28,0,0,1,.3-18.43,42.54,42.54,0,0,1,4.66-.08q58.71,0,117.43,0c23.37,0,38.19-14.78,38.21-38.06,0-20.64,0-41.28,0-62.6h-5.13c-21.59,0-43.19.24-64.78-.1a50.22,50.22,0,0,1-49.37-51.32c.46-26.53,22.16-48.69,48.71-49.14,21.58-.37,43.18-.1,64.77-.11h5.8v-4.62c0-19.58,0-39.15,0-58.72,0-22.34-15.09-37.33-37.5-37.33H78c-22.65,0-37.55,15-37.55,37.75q0,113.23,0,226.48c0,22.92,14.94,37.76,38,37.77q58.72,0,117.44,0c1.55,0,3.11-.09,4.65.06a9.28,9.28,0,0,1,.19,18.48,34.39,34.39,0,0,1-4.19.1q-59.19,0-118.37,0c-33,0-56.38-23.38-56.39-56.27q0-113.48,0-226.94c0-32.62,23.49-56,56.1-56.09,8.22,0,17.33,2,24.4-.87,6.91-2.83,11.75-10.72,17.46-16.43,33.07-33.06,66.27-66,99.11-99.27,10-10.16,20.46-19,35-21.37H266c14.87,2.61,25.57,11.72,35.43,22.37,6.22,6.71,12.83,13.08,19.46,19.4a7,7,0,0,0,5.1,1.91C350.5,61,366.7,68.76,379.18,90.37q19.2,33.25,38.49,66.45a9.33,9.33,0,0,0,4.54,4c24.92,8.08,39.46,27.86,39.5,54.15q0,29.12,0,58.23v5c3.07,0,5.4.05,7.72,0,8.89-.24,16.77,2.52,22.3,9.48,3.18,4,4.9,9.18,7.27,13.83Zm-301.64-197H396.9c-.8-1.52-1.34-2.6-1.95-3.65q-16.27-28.2-32.57-56.4c-9.67-16.7-25.24-20.92-41.86-11.33q-59.43,34.31-118.82,68.65C200.43,156.62,199.22,157.45,197.36,158.62Zm224,201.65v0c16,0,32,0,47.95,0,7.63,0,11.05-3.48,11.08-11.15q.06-20.47,0-41c0-7.92-3.41-11.25-11.42-11.25-31.34,0-62.69-.06-94,.06a36,36,0,0,0-10.51,1.58c-14.53,4.56-23.82,19.24-21.78,33.91,2.18,15.71,15,27.51,30.77,27.74C389.36,360.45,405.34,360.27,421.32,360.27ZM129.07,159c9.36,0,17.83.14,26.29-.08a15.29,15.29,0,0,0,6.95-1.87q70.16-40.35,140.2-80.9c1-.57,1.86-1.34,3-2.18-8.25-8.24-16.15-16.14-24.06-24-13.88-13.85-29.79-13.84-43.68,0l-105,105C131.71,156,130.74,157.15,129.07,159Z"
        fill="#222" transform="translate(-21.74 -21)" />
    <path d="M241.71,479.64a9.29,9.29,0,1,1-9.26,9.06A9.4,9.4,0,0,1,241.71,479.64Z" fill="#222"
        transform="translate(-21.74 -21)" />
    <path
        d="M381.71,328.42a9.15,9.15,0,0,1-8.89,9.46,9.29,9.29,0,1,1-.34-18.58A9.13,9.13,0,0,1,381.71,328.42Z"
        fill="#222" transform="translate(-21.74 -21)" />
</svg>