<svg data-name="Layer 1" id="Layer_1" viewBox="0 0 468.57 486.46"
    xmlns="http://www.w3.org/2000/svg">
    <path
        d="M51.93,504c-9.73-2.49-18.31-7-22.45-16.54A43.23,43.23,0,0,1,25.85,471c-.28-48-.22-95.95-.13-143.93,0-20.53,12.75-33,33.35-33,10.45,0,20.91.33,31.34-.08,14.49-.58,26.11,3.93,33.59,17.42,7.27-3.52,14.36-6.91,21.43-10.36,16.77-8.19,33.52-16.39,51.83-20.77A162.82,162.82,0,0,1,242,276.2q33.71,1.38,67.39,2.71c17,.66,30.38,10.17,34.95,25a36.44,36.44,0,0,1-14,40.29c-7.09,5.08-15.47,6.13-23.69,7.7-13.2,2.52-26.41,5-39.61,7.54-6.53,1.27-8,4.67-4.68,10.54.07.14.21.25.26.4,3,8.59,9.07,10.68,17.87,9.84,12.74-1.23,25.61-1.36,38.42-1.54A80.13,80.13,0,0,0,370,360q31.26-25.55,62.71-50.85c13.63-11,30.52-12.69,43.64-4.39,21.68,13.73,24.21,42.73,4.52,59.4-26.21,22.19-52.52,44.31-79.62,65.41-25.45,19.82-55.07,30-87.36,29.63-33.38-.38-66.79-1.91-100.11-4a262.73,262.73,0,0,0-71.19,5.51c-4.95,1-9.94,1.88-15.72,3,0,2.83.06,5.76,0,8.7-.36,15.57-8.58,26.34-23.4,30.77a19.53,19.53,0,0,0-2.11.92Zm74.93-60.52c3.74-.65,6.7-1.12,9.64-1.68,21.76-4.18,43.5-8.17,65.87-7,33.67,1.81,67.36,3.18,101,4.75,24.39,1.14,47.61-3.42,69.1-15.1a157.1,157.1,0,0,0,23.67-15.68c24.11-19.52,47.85-39.5,71.73-59.3,5.76-4.78,8.37-10.74,6-18.11-2.28-7.14-7.29-11.39-14.82-12.2-5.54-.6-10.06,1.87-14.26,5.29-20.38,16.58-40.86,33-61.22,49.64-11.94,9.73-25,17.4-40.08,20.74-24.94,5.52-50.36,4.32-75.63,4.34-15.15,0-30.21-28.07-26.35-39.76s11.46-17.63,23.06-19.72q23.56-4.26,47.09-8.79c9.42-1.79,15.36-9,14.7-17.51-.66-8.71-7.42-14.43-17.21-14.82-18.67-.75-37.37-1-56-2.51-32.09-2.53-62.3,3.07-90.75,18.34-10.16,5.45-20.68,10.24-31.17,15.05-3.29,1.52-4.58,3.25-4.56,7.06.18,33.88.11,67.76.11,101.64ZM107.1,399.1q0-36.11,0-72.21c0-9.11-3.91-13-13-13.06q-17.82-.07-35.63,0c-9,0-13.12,4-13.13,13q0,72.21,0,144.42c0,9,4,13,13,13,11.56.07,23.12,0,34.68,0,10.44,0,14-3.59,14-13.93Q107.12,434.72,107.1,399.1Z"
        fill="#222" transform="translate(-25.64 -17.54)" />
    <path
        d="M337.21,17.55c70-.76,128,56.5,129,127.37.94,70.28-56.52,128.49-127.52,129.2-70.3.71-128.41-56.86-129-127.79C209.09,76.18,266.39,18.32,337.21,17.55Zm.68,237c59.73.28,108.67-48.63,108.75-108.67.07-59.76-48.12-108.06-108.32-108.57-59.68-.5-108.63,48.21-109,108.41C229,205.49,277.65,254.24,337.89,254.51Z"
        fill="#222" transform="translate(-25.64 -17.54)" />
    <path
        d="M324.42,168l7.19,6.84c9.43,8.92,18.91,17.78,28.26,26.78,4.93,4.74,5.44,10.54,1.63,14.73-4,4.37-9.95,4.24-15.1-.61-17.4-16.38-34.72-32.86-52.1-49.25-3.65-3.44-5.59-7.44-3.64-12.29s6.33-6.26,11.23-6.28c7,0,13.93.09,20.89-.12,8.42-.24,14.59-4.37,19.58-12.48h-5.07c-12,0-24.06.1-36.09,0-8.16-.09-12.95-6-10.77-12.87,1.39-4.37,5.21-6.79,11.28-6.82,11.71-.08,23.42,0,35.13,0,1.52,0,3-.12,5.2-.22-4.46-8.08-10.49-12.82-19.28-13.2-7.27-.32-14.56,0-21.84-.18-8.25-.25-13.17-6.83-10.24-13.59,2.11-4.89,6.4-6.13,11.31-6.12q32.06,0,64.1,0c3,0,6-.09,9,0,6.51.27,10.72,4,10.87,9.61s-4.24,9.84-10.88,10.07c-5.53.19-11.06,0-17,0,1.64,4.36,3,8.45,4.79,12.39.33.72,2.09,1.07,3.22,1.13,3.15.16,6.34-.1,9.49.12,6.35.42,10.54,4.6,10.36,10.08s-4.37,10.09-10.39,9.37c-9.25-1.1-13.36,2.4-17.19,10.84C352.89,158,342,164.77,328.65,167,327.45,167.15,326.28,167.52,324.42,168Z"
        fill="#222" transform="translate(-25.64 -17.54)" />
</svg>