<svg id="Layer_1" data-name="Layer 1" xmlns="http://www.w3.org/2000/svg" viewBox="0 0 512 512"><path d="M512,460v43l-9,9H9l-9-9V460a15.84,15.84,0,0,0,1-2.73c2.39-13,8.84-23.64,20.15-30.18,7.56-4.38,16.38-6.57,24.64-9.74.82.1,1-1,1-2.17q0-100.68.09-201.36c0-3.82-1.37-4.84-5-4.75-8.49.2-17-.27-25.48.16C9.23,209.6,3.49,207.8,0,201V149c3-3.14,5.57-7.14,9.19-9.3Q106.72,81.38,204.55,23.57C219.5,14.75,233.39,3.65,251,0h10c6.91,2.73,14.34,4.58,20.66,8.31Q392.23,73.54,502.4,139.4c3.77,2.25,6.43,6.36,9.6,9.6v52c-3.5,6.76-9.22,8.63-16.51,8.23-7.8-.43-15.65-.1-23.48-.1-6.88,0-6.89,0-6.89,6.69V418.71c1.69.23,2.81.41,3.93.53,20.6,2.21,36.31,15.56,41.32,35.11C510.86,456.25,511.46,458.12,512,460ZM372.31,418.93c.12-2,.28-3.5.28-5q0-99.7.11-199.4c0-4.52-1.45-5.51-5.72-5.5q-110.93.18-221.86.1c-1.75,0-3.5.21-5.38.33V418.93ZM489,186c0-7.94-.19-15.57.08-23.18.12-3.61-1.06-5.66-4.21-7.53Q377.3,91.55,269.84,27.54c-9.42-5.61-18.19-5.7-27.63,0-26.36,15.92-52.91,31.51-79.39,47.24Q95,115.07,27.19,155.4c-1.5.9-3.87,2.21-3.91,3.4-.33,9-.18,18.13-.18,27.19ZM256,489H386c32.65,0,65.3-.05,98,.06,3.72,0,5.46-.71,5.21-4.91-.35-6,0-12-.11-18C488.77,452,478.73,442,464.62,442Q256,441.89,47.33,442C33.24,442,23.2,452.09,23,466.25c-.08,5.33,0,10.66,0,16,0,6.79,0,6.8,6.67,6.8ZM70,209.13V418.82H116.6V216.27c0-7.13,0-7.14-6.89-7.14H70ZM395.4,418.82h46.47V209.13c-13.74,0-27,.29-40.32-.14-5.34-.17-6.25,1.73-6.24,6.53q.19,98.67.09,197.33Z" fill="#233266"/><path d="M302.17,116.2a46.21,46.21,0,1,1-46.48-46.11A46.33,46.33,0,0,1,302.17,116.2Zm-22.8.34A23.39,23.39,0,1,0,255.79,140,23.35,23.35,0,0,0,279.37,116.54Z" fill="#233266"/></svg>