<svg data-name="Layer 1" id="Layer_1" viewBox="0 0 511.52 513" xmlns="http://www.w3.org/2000/svg">
    <path
        d="M976,392c-14.34,25.24-35.57,45.06-53.37,67.57-12.4,15.67-25.87,30.49-38.37,46.08-18.76,23.41-43.33,34-72.81,34.09-41.66.13-83.33.54-125-.23-15.47-.28-25.83,7-35.27,17.36a5.21,5.21,0,0,0-.76,4c2.31,11.55-.72,21.37-9.11,29.62-15.1,14.83-30.13,29.73-45.24,44.54-1.87,1.84-4.07,3.32-6.12,5h-6c-3.34-3-6.84-5.74-10-8.9Q522.18,579,470.45,526.84c-7.92-8-8-12.3-.12-20.17,13.86-13.94,27.81-27.8,41.58-41.83,7.59-7.73,16.19-12.57,27.45-11.74,1.33.1,3.37-1.29,4.14-2.56,25.08-41.65,63-60.06,110.47-61a125.34,125.34,0,0,1,45.51,7.84,33.87,33.87,0,0,0,11.15,2c33.15.15,66.31.31,99.46,0,14.57-.14,27.35,3.19,38.83,16.51,1-2,1.48-4,2.7-5.27,18.64-19.29,37.4-38.47,56.08-57.71C916,344.31,926,339.8,938,339.94a39.46,39.46,0,0,1,36.17,24.63A35.45,35.45,0,0,0,976,368ZM637.93,541.26a2.55,2.55,0,0,0,.76-.38,26.42,26.42,0,0,0,2.18-2c12.86-14.09,28.77-19.57,47.83-19.28,41,.61,82,.24,123,.17,22.93-.05,42-8.15,56.77-26.34,15.73-19.41,32-38.38,48.06-57.55q17.64-21.07,35.28-42.16c4.85-5.77,6.73-12.28,4.6-19.55-4.35-14.84-22.46-19.25-33.66-7.92-21.56,21.8-42.85,43.87-64.13,65.95a8,8,0,0,0-1.85,5.23c.55,22-14.83,40.67-36.61,41.55-28.12,1.14-56.3.65-84.45.6-6.58,0-10.81-4.6-10.67-10.19s4.35-9.37,11.14-9.7c1.33-.07,2.67,0,4,0q36,0,72,0a48.78,48.78,0,0,0,8.46-.57,19.76,19.76,0,0,0,15.81-22.07c-1.67-11.08-9.69-17.39-22.49-17.41-35.5-.06-71,0-106.49-.1a33,33,0,0,1-11.21-1.86c-32.66-12.29-64.69-10.74-95.75,4.85a90.8,90.8,0,0,0-40.75,40.66ZM488.1,516.78,588.18,614.6c-.63.37-.15.19.18-.13,13.08-12.84,26.21-25.62,39.16-38.57,5.22-5.22,5-10.73-.42-16.2Q585.59,518.17,544,476.78c-5.08-5-10.24-5.12-15.33-.14C515.29,489.69,502.11,502.88,488.1,516.78Z"
        fill="#373a42" transform="translate(-464.48 -127)" />
    <path
        d="M773,127c9.33,2.31,18.94,3.83,27.94,7.06,43.26,15.49,72,56.76,72.15,102.82a110.07,110.07,0,0,1-72,103.53c-66.05,24.44-137.92-18.83-147.19-88.6a110.31,110.31,0,0,1,86.86-122.56c4.05-.84,8.14-1.5,12.22-2.25ZM763,327.22a90.07,90.07,0,0,0,90-89.83c.13-49.7-40.45-90.39-90.12-90.35a90.09,90.09,0,0,0,.1,180.18Z"
        fill="#373a42" transform="translate(-464.48 -127)" />
    <path
        d="M693,477.82a10.41,10.41,0,0,1-9.8-10A10.17,10.17,0,0,1,693.57,458,9.92,9.92,0,0,1,703,468.16,10.15,10.15,0,0,1,693,477.82Z"
        fill="#373a42" transform="translate(-464.48 -127)" />
    <path
        d="M793.4,188.82c-1.06,2.56-1.53,4-2.2,5.29q-22.91,45.16-45.86,90.32c-2.58,5.08-5.67,6.62-9.38,4.88-3.88-1.83-4.66-5.49-2-10.67q22.91-45.16,45.87-90.31c1.61-3.17,3.89-6.1,7.66-4.78C789.82,184.38,791.53,187.09,793.4,188.82Z"
        fill="#373a42" transform="translate(-464.48 -127)" />
    <path
        d="M818.84,258.5a24.34,24.34,0,0,1-24.17,24.18,24.31,24.31,0,1,1,.29-48.61A24.23,24.23,0,0,1,818.84,258.5Zm-24.21,11.29a11.42,11.42,0,0,0,.1-22.84,11.42,11.42,0,1,0-.1,22.84Z"
        fill="#373a42" transform="translate(-464.48 -127)" />
    <path
        d="M754.92,214.87a24.23,24.23,0,0,1-24.07,24.24c-13.47.11-24.73-10.94-24.71-24.26a24.79,24.79,0,0,1,24.74-24.33A24.45,24.45,0,0,1,754.92,214.87ZM742,214.63a11.5,11.5,0,0,0-11.49-11.26,11.67,11.67,0,0,0-11.38,11.46A11.42,11.42,0,0,0,731,226.24,11.26,11.26,0,0,0,742,214.63Z"
        fill="#373a42" transform="translate(-464.48 -127)" />
</svg>