<svg data-name="Layer 1" id="Layer_1" viewBox="0 0 384 352" xmlns="http://www.w3.org/2000/svg">
    <path
        d="M528,381c3.67-9.31,10.6-12.18,20.4-12.15,72.45.27,144.9.11,217.35.25,4.17,0,6.22-1,8.15-5,8.68-17.77,23.19-27.29,43-27.08,19.63.2,33.78,9.92,42.23,27.56,1.61,3.35,3.22,4.62,7,4.47,8.48-.33,17,.33,25.47-.21,9.84-.64,16.71,2.83,20.4,12.11v6c-3.7,9.26-10.56,12.72-20.41,12.12-9-.55-18,0-27-.17-2.48,0-3.69.66-4.8,3.08-8.49,18.51-22.9,28.9-43.4,28.89s-35-10.26-43.35-28.89c-1.56-3.49-3.78-3-6.33-3-72.78,0-145.56-.13-218.34.14-9.8,0-16.71-2.86-20.4-12.15Zm288.19,20.06a17.06,17.06,0,1,0,.4-34.12,17.06,17.06,0,1,0-.4,34.12Z"
        fill="#373a42" transform="translate(-528 -208)" />
    <path
        d="M912,258c-3.29,9.62-10.21,12.59-20.06,12.56-72.45-.23-144.9-.09-217.35-.2-4.25,0-6.58.89-8.64,5.16-8.52,17.67-23.12,27.06-42.63,26.93S589.41,292.73,581,275c-1.72-3.58-3.52-4.83-7.41-4.69-8.48.31-17-.27-25.47.19-9.88.55-16.78-2.91-20.07-12.53v-5c3.22-9.63,10.1-13.13,20-12.66,9,.44,17.95,0,26.93.15,2.9,0,4.33-.88,5.53-3.64A45.73,45.73,0,0,1,609,210.78c3.6-1.19,7.36-1.87,11-2.78h8a29.13,29.13,0,0,0,3.23,1c15.82,2.92,27.61,11.49,34.53,25.93,2.19,4.58,4.63,5.65,9.34,5.64,72.3-.15,144.6,0,216.9-.22,9.85,0,16.76,3,20,12.68Zm-305.46-3.27a17.15,17.15,0,0,0,16.34,17.85c9.21.5,17.35-7,17.88-16.39.51-9.17-7-17.34-16.43-17.87C615.09,237.79,607,245.27,606.54,254.73Z"
        fill="#373a42" transform="translate(-528 -208)" />
    <path
        d="M528,510c3.28-9.63,10.2-12.69,20.06-12.57,30.14.37,60.29.09,90.44.2,3.24,0,4.91-.83,6.36-3.95,8.44-18.18,23-28.07,42.91-28.13s34.53,9.86,43,28c1.6,3.43,3.44,4.11,6.75,4.11,51.47-.08,102.94.09,154.4-.19,9.86-.05,16.77,2.95,20.06,12.57v5c-3.25,9.63-10.15,12.73-20,12.68-51.46-.25-102.93-.08-154.39-.2-3.69,0-5.4,1.08-7,4.52-6.55,14.17-17.68,23-32.91,26.62-1.91.45-3.81.92-5.71,1.38h-8a20.34,20.34,0,0,0-2.78-.88c-16.86-2.77-29-11.88-36.18-27.34-1.51-3.28-3.2-4.3-6.66-4.29-30.13.13-60.26-.14-90.39.19-9.85.11-16.75-3-20-12.68Zm142.84,2.55a17.13,17.13,0,0,0,17,17.15,17.16,17.16,0,0,0,0-34.31A17.07,17.07,0,0,0,670.84,512.55Z"
        fill="#373a42" transform="translate(-528 -208)" />
</svg>