<svg id="Layer_1" data-name="Layer 1" xmlns="http://www.w3.org/2000/svg" viewBox="0 0 491.95 153.7"><path d="M401.73,212.06c17.49-10.81,28.22-10.18,45.65,2.15,6.54-5.92,14.13-9.52,23.25-9.73,18.76-.43,33.09,16.59,32.58,31.9-1,30.23-.3,60.52-.3,90.79,0,6-.61,6.61-6.5,6.66-5.5,0-11,0-16.5,0-6.38,0-7.64-1.24-7.65-7.5q0-40.15-.06-80.32c0-7.35-3.1-10.32-10.38-10.14-6.3.15-9.22,3-9.29,9.77-.13,12.14,0,24.28,0,36.42,0,14.8,0,29.6,0,44.4,0,6.58-1,7.47-7.53,7.49-5.17,0-10.33,0-15.5,0-7.26,0-8.11-.84-8.12-7.95q-.06-39.9-.09-79.82c0-7.4-3.1-10.35-10.35-10.2-6.48.13-9.32,3.1-9.33,10.21q-.07,39.41,0,78.82c0,8.19-.62,8.8-8.81,8.81-4.83,0-9.66,0-14.49,0-6.67,0-7.92-1.22-7.93-7.78q0-27.18,0-54.38,0-29.18,0-58.36c0-6.68,1.14-7.79,7.85-7.81,5.16,0,10.33.11,15.5,0C398.08,205.32,401.92,205.71,401.73,212.06Z" transform="translate(-11.27 -181.01)" fill="#54c1f0"/><path d="M184.66,279.18q0,19.69,0,39.39c0,10.31-4.63,15.07-14.8,15.12-12.32.07-24.65.13-37,0-18.52-.21-29.74-10-31.06-28.07a200.43,200.43,0,0,1,.33-31.85c1.21-13.91,12.43-24.28,26.49-25.46,5.8-.48,11.65-.25,17.48-.42,5-.15,7-2.1,6.87-6.49s-2.63-6.14-6.81-6.12q-12.49.06-25,0c-5.44,0-6.79-1.39-6.84-6.77-.06-5.66,0-11.31,0-17,0-3.13,1.34-5.56,4.47-5.52,14.12.18,28.43-.61,42.31,1.38,16.15,2.33,23.25,13.08,23.51,31.4C184.8,252.25,184.65,265.71,184.66,279.18Zm-31.47,12.24c.24-15.27.69-14.72-14.08-14.55-3.6.05-5.66,2-5.76,5.49a149.64,149.64,0,0,0,.17,17.85,7.37,7.37,0,0,0,4.28,5.11c11.12,3.24,15.39-.1,15.39-11.41Z" transform="translate(-11.27 -181.01)" fill="#233266"/><path d="M279,258.33c0,14.3,0,28.6,0,42.9-.08,20.15-12.55,32.68-32.7,32.82-11.16.08-22.33-.08-33.49.06-4.72.06-6.64-2.07-6.55-6.64.11-5.65,0-11.3,0-17,0-6.16,1.2-7.35,7.22-7.38,9-.05,18,0,27-.13,1.9,0,4.25-.4,5.55-1.56s2.3-3.88,1.71-5.11a7.67,7.67,0,0,0-5-3.92c-4.42-.59-9-.24-13.47-.29-19.57-.21-32.35-12.63-32.61-32.06-.21-15.79-.09-31.59,0-47.38,0-5.75,1.3-6.93,7.18-7s11.66.07,17.49,0c4.62-.08,6.64,2,6.61,6.63-.1,13.63,0,27.27,0,40.9,0,6.2,1.73,7.85,8.06,7.93,1.5,0,3,0,4.5,0,5.56-.15,7.44-1.95,7.47-7.62.07-13.3,0-26.6,0-39.9,0-7.06.89-7.9,8.16-7.92,5.16,0,10.33,0,15.49,0,6.14,0,7.34,1.21,7.35,7.25Q279,235.65,279,258.33Z" transform="translate(-11.27 -181.01)" fill="#233266"/><path d="M42.66,295.94c0,10.73,0,20.68,0,30.62,0,6.13-1.25,7.37-7.22,7.4s-12-.09-18,0c-4.17.1-6.18-1.66-6.18-5.87q0-58.33,0-116.66c0-4,2-5.77,5.86-5.77,16.15,0,32.32-.4,48.45.15s27,11.53,27.72,27.67c.49,11.44.49,22.94,0,34.39-.69,16.92-12.47,27.85-29.48,28C57,296,50.24,295.94,42.66,295.94Zm.23-31.5c5,0,9.47.1,13.92,0,3.38-.1,5.18-2.11,5.23-5.43.09-5.48.39-11-.18-16.41-.2-1.9-2.51-4.86-4.18-5.1-4.81-.7-9.79-.25-14.79-.25Z" transform="translate(-11.27 -181.01)" fill="#233266"/><path d="M310.15,237c-4.36,0-8-.05-11.63,0-4.23.07-6.56-1.57-6.44-6.17q.26-9.47,0-18.94c-.11-4.2,1.73-6.25,5.87-6.23,11.51.07,19.88-5.23,26.26-14.57a33.56,33.56,0,0,1,8.64-8.74c4.46-3,7.7-.93,7.8,4.45.11,6.09,0,12.19,0,18.86,4.07,0,7.53,0,11,0,4.28-.07,6.5,1.74,6.4,6.26-.13,6.31-.11,12.63,0,18.94.06,4.19-1.91,6.14-6,6.14h-11.1v6.25q0,41.13,0,82.26c0,8.71-.48,9.17-9.43,9.17-4.49,0-9,0-13.49,0-6.91,0-7.85-.93-7.85-7.68q0-41.62,0-83.26Z" transform="translate(-11.27 -181.01)" fill="#54c1f0"/></svg>