<svg data-name="Layer 1" id="Layer_1" viewBox="0 0 408.68 408.71"
    xmlns="http://www.w3.org/2000/svg">
    <path
        d="M558.12,588.6c-7.83-2.05-15.51-4.28-22.22-9.17A49.22,49.22,0,0,1,517.12,529q13.53-60.36,57.18-104.06a203.46,203.46,0,0,1,76-47.85c1.46-.52,2.9-1.07,4.8-1.77-28.22-22.67-43.27-51.53-43.33-87.28,0-29.66,10.85-55.37,31.81-76.38,42.21-42.31,109.69-42.24,153.05-.37,40.93,39.51,48,118.21-10.78,163.88,7.5,3.11,15,6.07,22.39,9.34s11.32,10.45,9.88,17.68c-2,10.2-12.05,15.46-22,11.77-10.82-4-21.49-8.71-32.62-11.53-42.7-10.79-83.91-6-123.15,14-34,17.32-59.55,43.33-77,77.18a167.54,167.54,0,0,0-15.09,43.12,16.25,16.25,0,0,0,13.54,19.61,37.17,37.17,0,0,0,6,.34q95.19,0,190.38.06a25,25,0,0,1,8.6,1.17c6.31,2.36,9.69,7.28,10.16,14A15.72,15.72,0,0,1,767.72,587c-1.19.57-2.4,1.06-3.61,1.59ZM796.84,288.3c-.09-42.22-34.7-76.7-76.82-76.55s-76.66,34.79-76.46,76.92c.2,42.72,34.71,76.38,78.22,76.3C762.58,364.9,796.93,329.81,796.84,288.3Z"
        fill="#373a42" transform="translate(-515.92 -179.89)" />
    <path
        d="M845.55,588.6c-9.54-3.25-13.16-10-12.87-19.93.4-13.14.1-26.3.1-39.95h-4.5c-12.64,0-25.28,0-37.92,0-10.21,0-17.33-6.53-17.44-15.78s7.1-16.11,17.47-16.14c14,0,27.91,0,42.39,0v-4.46c0-12.64,0-25.28,0-37.92,0-10.38,6.73-17.58,16.14-17.47,9.25.1,15.74,7.22,15.78,17.43,0,13.95,0,27.91,0,42.42h4.42c11.84,0,23.7.3,35.53-.09,9.89-.34,16.68,3.32,19.93,12.86v6.39c-3.25,9.54-10,13.2-19.92,12.87-11.82-.4-23.67-.09-35.5-.09h-4.46c0,13.67-.3,26.83.09,40,.3,9.89-3.34,16.67-12.87,19.92Z"
        fill="#373a42" transform="translate(-515.92 -179.89)" />
</svg>