<svg data-name="Layer 1" id="Layer_1" viewBox="0 0 383.23 384" xmlns="http://www.w3.org/2000/svg">
    <path
        d="M1011.6,942h-24a20.84,20.84,0,0,0-2.88-.62c-20.41-1.52-40.21-5.9-58.91-14.23C862.77,899,824.25,851.08,810.93,783.08c-1.36-7-2-14.05-2.93-21.08V738c.22-1.09.47-2.17.64-3.26,1.52-9.73,2.42-19.6,4.63-29.17,17.15-74.35,78.4-131.92,153.71-144.7,6.85-1.16,13.78-1.92,20.67-2.87h24c1,.21,1.92.48,2.89.62,8.74,1.29,17.58,2.1,26.22,3.9,85.27,17.81,149.21,95.53,150.5,182.79.73,49.4-14.61,93.15-46.94,130.5-29.64,34.24-67,55.32-111.63,63.28C1025.68,940.33,1018.62,941,1011.6,942ZM999.93,588c-89.15-.25-161.58,72-162,161.5S909.86,911.73,999.32,912c89.14.27,161.55-71.93,162-161.51C1161.74,661.08,1089.41,588.26,999.93,588Z"
        fill="#3f455b" transform="translate(-808 -558)" />
    <path
        d="M984.66,782q0-23.43,0-46.84c0-9.61,6.42-16.56,15.09-16.46s14.83,6.91,14.84,16.34q0,47,0,94.05c0,9.51-6.18,16.16-14.91,16.18s-15-6.63-15-16.06C984.63,813.48,984.66,797.74,984.66,782Z"
        fill="#3f455b" transform="translate(-808 -558)" />
    <path d="M979.43,679.92a20.2,20.2,0,0,1,40.39.41,20.2,20.2,0,1,1-40.39-.41Z" fill="#3f455b"
        transform="translate(-808 -558)" />
</svg>