<svg data-name="Layer 1" id="Layer_1" viewBox="0 0 408.81 386.43"
    xmlns="http://www.w3.org/2000/svg">
    <path
        d="M1204.6,936.24c-2.4,5.06-6.45,6.6-11.94,6.59q-192.4-.15-384.8-.08c-9.28,0-12.05-2.82-12.06-12.21,0-2.66,0-5.33,0-8,.11-8.65,4.53-13.81,13.1-15.32.52-.09,1-.27,2-.55,0-2.95-.08-6,0-9,.24-8.2,5.91-14,14.11-14.3,5.44-.2,10.9-.15,16.35-.23.1,0,.21-.15.86-.64,0-3,0-6.4,0-9.81,0-8.33,2.61-11.76,11-14.27V850c0-8.53,1.49-11.42,5.89-11.49,4.55-.08,6.1,2.89,6.1,11.69v8.28h18.91V737H865.26v4.25q0,35.93,0,71.85a18.69,18.69,0,0,1-.18,4c-.67,3.08-2.63,5-5.86,5s-5.17-1.94-5.78-5a22.68,22.68,0,0,1-.16-4.37q0-37.71,0-75.36c-9.37-3.72-11-6.13-11-16.08v-9.09c-5.37,0-10.26,0-15.15,0-8.38-.1-12.77-4.49-12.87-12.84,0-3.43,0-6.85,0-10.46-3.54-.21-6.71-.19-9.82-.65-4.87-.73-7.51-3.59-7.95-8.5-.26-2.91,0-5.85-.21-8.77-.35-5.61,2.18-9.14,7.13-11.7,26-13.46,51.8-27.1,77.69-40.68,37.78-19.81,75.59-39.54,113.28-59.51,6.15-3.25,11.54-3.57,17.59,0,7.76,4.62,15.85,8.69,23.81,13,2.6,1.4,4.64,3.13,4.44,6.44-.27,4.64-4.79,6.86-9.5,4.4-8.12-4.24-16.21-8.56-24.18-13.1-2.52-1.44-4.38-1.29-6.89,0Q906,619,812.17,668c-3.75,2-4.59,4.26-3.4,8.18h382.9c1.13-3.93.28-6.3-3.59-8.37q-64.49-34.56-128.76-69.49a26.19,26.19,0,0,1-3.73-2.28c-2.53-2-3.2-4.61-1.69-7.44s4.15-3.62,7.16-2.76a18.71,18.71,0,0,1,3.59,1.71q65.92,35.64,131.89,71.23c5.34,2.87,8.11,6.56,7.6,12.65-.17,2,0,4,0,6-.18,7.43-3.63,10.86-11.1,11-2.1,0-4.21,0-6.84,0,0,3.85,0,7.39,0,10.94-.12,8.08-4.55,12.49-12.68,12.62-4.65.07-9.31.06-14,.1a6.72,6.72,0,0,0-1.36.46v9.16c0,9.32-2.12,12.29-10.9,15.26V858.27c9.1,3.48,10.89,6.07,10.9,15.66v9.43c4.43,0,8.64.27,12.81-.05,13.22-1,19.64,7,18.56,18.39-.15,1.58,0,3.18,0,5.23,7.6.17,12.21,4.43,15.11,10.94Zm-308-77.75c8.42,2.57,10.87,5.87,10.9,14.51,0,3.3,0,6.59,0,10.1h18.48c0-4.35,0-8.45,0-12.54a11.17,11.17,0,0,1,5.49-10,37,37,0,0,1,5.26-2.25V737c-8.54-2.78-10.75-5.83-10.76-14.6,0-3.29,0-6.58,0-10H907.45v9.79c0,9-2.33,12.14-10.9,14.85Zm207.2,0V736.89c-8.17-2.38-10.76-5.84-10.8-14.19,0-3.41,0-6.82,0-10.31h-18.47v9.05c0,9.85-1.68,12.3-10.84,15.69V858.27c9.33,3.6,10.84,5.85,10.84,16.11V883H1093c0-3.63,0-6.95,0-10.26C1093,864.43,1095.57,861,1103.75,858.54Zm-83.69,0V736.88c-8.12-2.5-10.5-5.7-10.55-14,0-3.53,0-7.06,0-10.58H990.89c0,3.39,0,6.54,0,9.7,0,9.17-2,11.93-10.63,15V858.48c8.46,2.77,10.6,5.76,10.63,14.66,0,3.27,0,6.55,0,9.9h18.62c0-3.61,0-6.91,0-10.21C1009.55,864.26,1011.81,861.16,1020.06,858.53Zm172.43,72.1c0-1.22.11-2,.12-2.78.12-8.78.12-8.78-8.5-8.78H815.42c-1.6,0-3.3-.3-4.75.18-1.12.38-2.58,1.65-2.72,2.68a66,66,0,0,0-.13,8.69Zm-15-23.74v-3.61c.06-7.92.06-7.92-7.68-7.92q-168.42,0-336.85,0c-10.81,0-10.28-2.24-9.93,10.7,0,.22.27.44.51.8ZM1174,688.74H826.52v11H1174ZM967.76,858.61V736.93H949.21V858.61Zm64.7-.17h18.8V737h-18.8Zm102.32.18V736.89h-18.53V858.62ZM895.24,712.38h-40.7v12h40.7Zm209.92-.07v12.13h40.68V712.31ZM895.25,871h-40.7v12h40.7Zm250.69,0h-40.73v12h40.73ZM938.17,712.33v12.15h40.48V712.33Zm124.2,0h-40.62v12.08h40.62ZM938.05,883.13h40.58V871H938.05Zm124.24,0V871h-40.46v12.16Z"
        fill="#7b85a1" transform="translate(-795.79 -556.4)" />
</svg>