<svg data-name="Layer 1" id="Layer_1" viewBox="0 0 307.2 273.19" xmlns="http://www.w3.org/2000/svg">
    <path
        d="M1153.2,664.25v194c-.54,1.9-1,3.82-1.63,5.68-4.55,13.63-16.47,21.91-31.67,21.91H879.3c-1.1,0-2.2,0-3.3-.06a31.64,31.64,0,0,1-21.78-10.57c-4.51-4.84-6.67-10.73-8.22-17v-194a2.71,2.71,0,0,0,.41-.79,32.58,32.58,0,0,1,34.18-27.54c5.15.31,10.34,0,15.84,0,0-5.38-.09-10.44,0-15.5a8.23,8.23,0,0,1,6.48-7.64,8,8,0,0,1,8.76,4.8,14.53,14.53,0,0,1,.73,5c.1,4.35,0,8.71,0,13.11h79.24c0-5.24-.08-10.22,0-15.19a8.12,8.12,0,0,1,6.37-7.69,7.89,7.89,0,0,1,8.76,4.75,13.23,13.23,0,0,1,.7,4.67c.09,4.46,0,8.92,0,13.52h78.44c0-5.15-.1-10.12,0-15.09a8.26,8.26,0,0,1,6.59-7.87,7.85,7.85,0,0,1,8.56,4.63,13.6,13.6,0,0,1,.85,4.93c.11,4.45,0,8.9,0,13.67,7.21,0,14-.17,20.76,0,9.1.27,16.4,4.35,22.4,11.07C1149.69,652.07,1151.8,658,1153.2,664.25ZM896.41,651.83h-16.1c-11.68,0-18.23,6.5-18.24,18.14q0,91.17,0,182.35a22.91,22.91,0,0,0,.53,5.62c1.93,7.61,7.85,11.93,16.52,11.93q120.58,0,241.18,0a19.73,19.73,0,0,0,5-.56c7.77-2.06,11.9-8.18,11.9-17.5q0-90.73,0-181.45c0-1.3-.07-2.6-.19-3.89-.6-6.58-5.33-13.09-11.77-13.82-7.55-.85-15.27-.2-23.17-.2,0,3.16,0,6.54,0,9.92-.07,5.28-3.37,9-8,9.06s-8.07-3.76-8.1-9.21c0-3.36,0-6.72,0-10.15h-78.42c0,3.3,0,6.38,0,9.45a15.68,15.68,0,0,1-.55,4.71,8,8,0,0,1-8.57,5.13,8.15,8.15,0,0,1-6.72-7.71c-.12-3.84,0-7.69,0-11.64H912.46c0,3.65.06,7.12,0,10.59-.1,5.22-3.58,8.91-8.19,8.82s-7.79-3.78-7.84-8.83C896.38,659.12,896.41,655.65,896.41,651.83Z"
        fill="#32363d" transform="translate(-846 -612.69)" />
    <path
        d="M1083.49,703.8c2.3,0,4.6-.07,6.89,0a8.32,8.32,0,0,1,8.09,7.7,8,8,0,0,1-7.25,8.12,122.4,122.4,0,0,1-15.56,0,7.78,7.78,0,0,1-7.1-8.47,8.12,8.12,0,0,1,8-7.34C1078.89,703.74,1081.19,703.8,1083.49,703.8Z"
        fill="#32363d" transform="translate(-846 -612.69)" />
    <path
        d="M915.41,758.9c2.3,0,4.6-.07,6.89,0a8.27,8.27,0,0,1,8.12,7.66,8.11,8.11,0,0,1-7.49,8.24,141,141,0,0,1-15,0,7.88,7.88,0,0,1-7.45-8.2,8.07,8.07,0,0,1,8-7.7C910.81,758.83,913.11,758.9,915.41,758.9Z"
        fill="#32363d" transform="translate(-846 -612.69)" />
    <path
        d="M1083.39,758.9c2.29,0,4.59-.07,6.89,0a8.36,8.36,0,0,1,8.2,7.91,8.18,8.18,0,0,1-7.75,8c-4.88.22-9.79.23-14.67,0a7.94,7.94,0,0,1-7.52-8.15,8.11,8.11,0,0,1,8-7.76C1078.79,758.82,1081.09,758.9,1083.39,758.9Z"
        fill="#32363d" transform="translate(-846 -612.69)" />
    <path
        d="M1027.28,719.81c-2.3,0-4.6.11-6.89,0-4.58-.26-8.13-3.83-8.12-8s3.74-7.89,8.44-8q6.58-.1,13.19,0c4.78.09,8.17,3.27,8.32,7.67s-3.26,8-8,8.3C1031.88,719.92,1029.58,719.81,1027.28,719.81Z"
        fill="#32363d" transform="translate(-846 -612.69)" />
    <path
        d="M1027.2,758.9c2.3,0,4.6-.07,6.89,0,4.73.17,8.09,3.46,8.14,7.87a8.07,8.07,0,0,1-8,8.1c-4.69.18-9.4.19-14.08,0a8.22,8.22,0,0,1-7.92-8.17,8.36,8.36,0,0,1,8.32-7.79C1022.8,758.84,1025,758.89,1027.2,758.9Z"
        fill="#32363d" transform="translate(-846 -612.69)" />
    <path
        d="M971.63,774.93c-2.3,0-4.6.1-6.89,0a8.36,8.36,0,0,1-8.16-8c0-4.3,3.69-7.93,8.38-8q6.59-.12,13.18,0c4.81.09,8.35,3.51,8.36,8s-3.45,7.85-8.29,8.06C976,775,973.82,774.93,971.63,774.93Z"
        fill="#32363d" transform="translate(-846 -612.69)" />
    <path
        d="M971.54,703.8c2.3,0,4.6-.06,6.89,0a8.05,8.05,0,0,1,8.06,7.62,7.81,7.81,0,0,1-7.37,8.24,127.36,127.36,0,0,1-15.26,0,8,8,0,0,1-7.26-8.11,8.27,8.27,0,0,1,8-7.72C967,703.73,969.24,703.8,971.54,703.8Z"
        fill="#32363d" transform="translate(-846 -612.69)" />
    <path
        d="M1027.36,813.29c2.3,0,4.6-.07,6.89,0,4.59.16,7.87,3.35,8,7.66a7.91,7.91,0,0,1-7.82,8.13c-4.68.17-9.39.16-14.08,0a8.11,8.11,0,0,1-8.06-8,8.22,8.22,0,0,1,8.2-7.85c2.3-.07,4.59,0,6.89,0Z"
        fill="#32363d" transform="translate(-846 -612.69)" />
    <path
        d="M915.22,829.13c-2.29,0-4.6.11-6.88,0a7.9,7.9,0,0,1,.11-15.8c4.69-.1,9.38-.11,14.07,0a7.89,7.89,0,0,1,.19,15.78c-2.49.15-5,0-7.49,0Z"
        fill="#32363d" transform="translate(-846 -612.69)" />
    <path
        d="M971.55,813.28c2.29,0,4.59-.06,6.88,0a8,8,0,0,1,8.06,7.57,7.8,7.8,0,0,1-7.68,8.21c-4.88.18-9.78.18-14.66,0a8,8,0,0,1-7.56-8.1,8.17,8.17,0,0,1,7.77-7.64c2.39-.11,4.79,0,7.19,0Z"
        fill="#32363d" transform="translate(-846 -612.69)" />
</svg>
