<svg data-name="Layer 1" id="Layer_1" viewBox="0 0 336.19 264.67"
    xmlns="http://www.w3.org/2000/svg">
    <path
        d="M832,681.77c1.63-4.6,2.65-9.56,5-13.74,7.4-13.06,18.88-19.62,34-19.63h50.66c1.28-4.62,1.85-9.06,3.68-12.9,5.54-11.63,15.27-17,28-17.06,31.18-.07,62.36-.15,93.53,0,15.17.1,26,8.57,29.6,22.56a70.46,70.46,0,0,1,1.13,7.36h3.66c16.08,0,32.16-.09,48.24,0,18.42.13,33.51,11.87,37.57,29.25a44.83,44.83,0,0,1,1,10.08c.06,52-.18,103.94.16,155.91.13,18.71-14.47,39.78-39.09,39.36-11.49-.19-23,0-34.46,0q-111.26,0-222.5,0c-15.26,0-27.19-6.09-35-19.17-2.51-4.2-3.47-9.32-5.13-14ZM1000.09,866.1q63.64,0,127.3,0a33,33,0,0,0,8.43-.9c10-2.65,15.67-11.09,15.68-23q0-77,0-153.91a29.66,29.66,0,0,0-.85-7.46c-2.51-9.57-10.45-15.39-21-15.42-19.91-.06-39.81,0-59.71,0-5.86,0-9.4-3.56-9.48-9.35,0-3,.07-5.92-.06-8.86-.29-7.11-5-12-12.12-12-32-.09-64.09,0-96.13,0l-.66,0c-6.18.41-10.68,4.6-11.25,10.74-.27,2.82-.2,5.68-.23,8.52-.05,7.77-3.2,11-10.87,11-19.47,0-38.93-.06-58.4,0C857.77,665.46,849,674.12,849,687q-.09,78.76.07,157.52a23.6,23.6,0,0,0,2.12,9.78c4.06,8.54,11.46,11.79,20.61,11.79Q936,866.08,1000.09,866.1Z"
        fill="#fff" transform="translate(-832 -618.36)" />
    <path
        d="M1000.25,687.1c43.37.32,78.45,35.54,78.39,78.7-.05,43.32-35.91,79-78.84,78.52-43.62-.52-78.43-35.45-78.38-78.66S957.14,686.78,1000.25,687.1Zm61,79.14c-.09-34.36-27.25-61.57-61.41-61.51a61.35,61.35,0,1,0,61.41,61.51Z"
        fill="#fff" transform="translate(-832 -618.36)" />
    <path d="M1113.8,718a15.55,15.55,0,1,1,15.56-15.68A15.62,15.62,0,0,1,1113.8,718Z" fill="#fff"
        transform="translate(-832 -618.36)" />
</svg>