<svg data-name="Layer 1" id="Layer_1" viewBox="0 0 400.29 398.22"
    xmlns="http://www.w3.org/2000/svg">
    <path
        d="M799,634.21c2.14-6.23,3.4-13,6.6-18.6,9.49-16.74,24.36-25.29,43.65-25.42,28.91-.2,57.84-.08,86.76,0,6.74,0,11.25,4.07,11.31,9.84s-4.71,10-11.56,10c-28.39,0-56.79,0-85.19,0-15.48,0-26.74,8.4-30.59,22.84a36.4,36.4,0,0,0-1,9.27q-.08,127.59,0,255.2c0,15.93,8,27.09,22.19,31a38,38,0,0,0,10,1.24q137.57.09,275.14,0c19.5,0,32.17-12.78,32.19-32.39q.06-42.4,0-84.81c0-5.68,3-9.86,7.6-10.89a9.87,9.87,0,0,1,12.12,9.4c.2,7.94.09,15.89.08,23.83,0,22.54.27,45.08-.21,67.61-.53,24.92-21.72,45.87-46.66,46.94-1.83.08-3.65.15-5.47.15q-137.37,0-274.74,0c-20.07,0-35.65-8-45.62-25.47-3.22-5.61-4.47-12.35-6.62-18.58Z"
        fill="#c7aca0" transform="translate(-799 -551.3)" />
    <path
        d="M1143,551.3a43.84,43.84,0,0,1,29.64,11.55c4.61,4.21,9,8.67,13.35,13.17,17.43,18,17.78,44.17.9,62.72-1,1.16-2.15,2.27-3.26,3.37q-86.2,86.22-172.39,172.48a24.23,24.23,0,0,1-11.26,6.53c-26,7.08-51.89,14.33-77.82,21.56-3.46,1-6.83,1.65-10.2-.3-4.17-2.41-5.89-6.76-4.41-12.15,6.11-22.33,12.88-44.49,18.24-67,3.21-13.47,9.76-23.79,19.58-33.48,54.88-54.19,109.26-108.87,163.72-163.47C1118.44,556.89,1129.37,551.5,1143,551.3Zm-42.27,53.22c-48.13,48.12-96.51,96.51-144.53,144.53l45.33,45.33,144.55-144.54Zm13.84-16.3,47.59,47.65c2.84-3,5.89-6.18,8.9-9.4a51.8,51.8,0,0,0,3.56-4.14c6.2-8.29,6.41-21.15-.28-29.07a130.48,130.48,0,0,0-16.78-16.79c-7.68-6.31-17-7.34-25.53-2.41C1125.52,577.81,1120.18,583.55,1114.55,588.22ZM945.34,768.14l-14.18,51.31,51.25-14.24Z"
        fill="#c7aca0" transform="translate(-799 -551.3)" />
</svg>