<svg id="Layer_1" data-name="Layer 1" xmlns="http://www.w3.org/2000/svg" viewBox="0 0 383.33 269.59"><path d="M808,894.85c.56-2,1-4.08,1.7-6.08a33.69,33.69,0,0,1,32.1-23.09c23.45-.1,46.9,0,70.35,0h243.61c17.07,0,30.25,9.55,34.3,25.05a40.32,40.32,0,0,1,1.21,10q.09,99.75,0,199.49c0,20.59-14.53,35-35.16,35q-156,0-312.09,0c-18.75,0-30.95-9.59-35.5-27.84A10,10,0,0,0,808,1106Zm39.27-6.54c1.07,1.16,1.77,2,2.53,2.73q69.88,70.13,139.78,140.23c6.41,6.43,13.82,6.38,20.32-.14q69.9-70.1,139.78-140.22c.73-.74,1.36-1.58,2.24-2.6Zm-.27,224.1h305.32c-32.42-32.13-64.29-63.74-96.35-95.51-.73.69-1.72,1.6-2.67,2.56-9.34,9.36-18.64,18.77-28,28.1-14.7,14.62-36.54,14.6-51.23,0-5.66-5.64-11.26-11.33-16.9-17-4.65-4.66-9.32-9.31-13.76-13.75ZM830.67,905.13v190.55l96.13-95.24Zm337.9,190.73V905.61l-96,95.09Z" transform="translate(-808 -865.62)" fill="#868c9c"/></svg>