<svg id="Layer_1" data-name="Layer 1" xmlns="http://www.w3.org/2000/svg" viewBox="0 0 351.63 383.33"><path d="M354.75,447.61H86.69c-4.64-2.25-5.87-6.09-5.86-11q.11-148.36,0-296.75c0-11.61-.12-23.21,0-34.81.32-23.5,17.47-40.68,40.79-40.69q131-.09,262,0c23.31,0,40.53,17.41,40.67,40.77.06,9.6,0,19.21,0,28.81,0,7.51-2.82,10.3-10.45,10.31H361a8.2,8.2,0,0,0-.37,1.5q0,54.08-.08,108.15c0,2.16.92,2.62,2.86,2.89C402,262.21,430,293.09,432.32,332.7c2.18,36.92-23.17,71.15-59.89,80.79-3.82,1-7.73,1.62-11.88,2.46,0,7.07-.15,14,.05,21C360.74,441.79,359.19,445.43,354.75,447.61ZM344.44,256.18v-5q-.07-68.67-.1-137.35c0-5.23.4-10.47.8-15.69a29.37,29.37,0,0,1,7.51-17.94h-4.77c-74.87,0-149.73.13-224.6-.1-16,0-26.47,11.45-26.44,26.38q.41,160.37.14,320.74v4.18H344.09V415.7c-41.59-3.7-72.54-36.89-73.77-77.32C269,296,301,259.83,344.44,256.18ZM288.7,335.51a63.81,63.81,0,0,0,127.61,1.18c.36-35.52-28-64.57-63.23-64.81A63.91,63.91,0,0,0,288.7,335.51ZM408.11,127.94c0-9.31.63-18.19-.16-26.94-1.06-11.78-10.89-20.2-22.78-20.74-11.25-.5-22.4,7.49-23.89,18.94-1.23,9.38-.25,19-.25,28.74Z" transform="translate(-80.83 -64.28)" fill="#3f455b"/><path d="M192.87,207.12a30,30,0,0,1,.91-3.22q11.5-30.78,23.09-61.54c1.83-4.84,5.76-7.52,9.69-5.86a11.51,11.51,0,0,1,5.82,5.66c8,20.66,15.72,41.43,23.46,62.2,1.86,5,0,9.52-4.37,11.14s-8.57-.49-10.6-5.54c-1.3-3.22-1.76-7.74-4.15-9.3-2.57-1.68-7-.56-10.55-.66h-1.12c-4,0-8.83-1.32-11.72.48s-3.47,6.71-5.08,10.26c-1.77,3.92-5.19,5.88-8.94,5.12C195.34,215.05,192.79,211.89,192.87,207.12Zm25.47-23.24h12.74c-2.1-5.56-4.08-10.82-6.36-16.88C222.42,173.06,220.43,178.34,218.34,183.88Z" transform="translate(-80.83 -64.28)" fill="#3f455b"/><path d="M288.59,158.16c3-5.92,5.63-11.26,8.4-16.54,2.4-4.58,6.8-6.11,10.95-4s5.44,6.62,3.18,11.25c-3.94,8.06-7.91,16.1-12,24.06a5.93,5.93,0,0,0-.07,6.21c4.1,7.83,8,15.79,11.88,23.72,2.5,5.08,1.22,9.73-3.18,11.82-4.22,2-8.51.24-11-4.65-2.61-5.08-5.15-10.19-8.07-16-3.06,6-5.78,11.51-8.61,16.94a7.56,7.56,0,0,1-8,4.4c-3.57-.4-6.18-2.52-6.77-6a11.53,11.53,0,0,1,1.1-6.4c3.82-8.11,7.86-16.12,12-24.1a5.37,5.37,0,0,0,0-5.54c-4.1-8-8.07-16-12-24.06-2.49-5.06-1.21-9.66,3.17-11.76s8.52-.31,11,4.62C283.14,147.25,285.69,152.38,288.59,158.16Z" transform="translate(-80.83 -64.28)" fill="#3f455b"/><path d="M184.79,359.83q-27.12,0-54.25,0c-5.59,0-9-2.59-9.49-7a7.73,7.73,0,0,1,6.3-8.79,16.15,16.15,0,0,1,3.34-.29q54.06,0,108.14,0c5.65,0,9.07,2.47,9.65,6.8.7,5.28-2.8,9.15-8.68,9.25-8.11.13-16.21,0-24.32,0Z" transform="translate(-80.83 -64.28)" fill="#3f455b"/><path d="M168.87,152.08v4.76c0,16.58,0,33.16,0,49.75,0,6.79-4.85,10.81-10.5,9-3.66-1.19-5.55-4.19-5.56-9.16q0-24.87,0-49.75v-4.57c-5,0-9.73,0-14.43,0-5.78,0-9.38-3-9.46-7.79-.09-4.92,3.62-8.09,9.58-8.1q22.81,0,45.64,0c4.45,0,7.36,2.24,8.34,6.06a7.54,7.54,0,0,1-3.92,8.81,14.48,14.48,0,0,1-5.42,1C178.52,152.17,173.93,152.08,168.87,152.08Z" transform="translate(-80.83 -64.28)" fill="#3f455b"/><path d="M184.57,319.78H132.18c-1.37,0-2.75,0-4.11-.1a7.6,7.6,0,0,1-7.06-7.39,7.84,7.84,0,0,1,6.55-8.28,20.9,20.9,0,0,1,3.36-.13H238.68a25.33,25.33,0,0,1,2.62.06,7.81,7.81,0,0,1,7.25,8,7.49,7.49,0,0,1-7.49,7.71c-5.85.2-11.72.1-17.58.1Q204,319.8,184.57,319.78Z" transform="translate(-80.83 -64.28)" fill="#3f455b"/><path d="M185,383.79h52.76c1.25,0,2.5,0,3.74.09a7.59,7.59,0,0,1,7.06,7.38,7.83,7.83,0,0,1-6.54,8.28,18.82,18.82,0,0,1-3.36.14H130.88a25.46,25.46,0,0,1-2.62-.06,7.85,7.85,0,0,1-7.26-8,7.48,7.48,0,0,1,7.49-7.71c6.23-.19,12.47-.09,18.7-.1Z" transform="translate(-80.83 -64.28)" fill="#3f455b"/><path d="M161.07,264c10.1,0,20.2,0,30.3,0,5.9,0,9.26,2.94,9.27,7.88s-3.48,8-9.22,8q-30.67,0-61.34,0c-5.67,0-9.16-3.2-9.08-8.13s3.37-7.72,9-7.75C140.37,264,150.72,264,161.07,264Z" transform="translate(-80.83 -64.28)" fill="#3f455b"/><path d="M378,294.85c2.75,2.21,5.33,3.56,6.83,5.66,2,2.77,1.32,6-.78,8.69q-7,9-14.17,17.85c-11.86,14.75-23.68,29.54-35.67,44.18a13.13,13.13,0,0,1-6.2,4.31c-3.21.86-6.09-.8-7.84-3.79-1.93-3.3-1.39-6.45.93-9.36q9.19-11.53,18.43-23.05c10.34-12.94,20.61-25.93,31.1-38.75C372.35,298.45,375,297.09,378,294.85Z" transform="translate(-80.83 -64.28)" fill="#3f455b"/><path d="M344.43,311.76a15.89,15.89,0,1,1-16-15.91A15.9,15.9,0,0,1,344.43,311.76Z" transform="translate(-80.83 -64.28)" fill="#3f455b"/><path d="M392.34,359.58a15.88,15.88,0,1,1-16.06-15.81A15.88,15.88,0,0,1,392.34,359.58Z" transform="translate(-80.83 -64.28)" fill="#3f455b"/><path d="M218.34,183.88c2.09-5.54,4.08-10.82,6.38-16.88,2.28,6.06,4.26,11.32,6.36,16.88Z" transform="translate(-80.83 -64.28)" fill="#fff"/></svg>