<svg id="Layer_1" data-name="Layer 1" xmlns="http://www.w3.org/2000/svg" viewBox="0 0 284.51 383.15"><path d="M885.1,1192c-2.77-1.8-5.27-3.79-5.22-7.56.06-4.29,3.33-7.37,8.18-7.39,12.6-.06,25.2,0,37.79,0h59c-.74-1.24-1.2-2.16-1.79-3-32.92-46.65-65.69-93.42-98.85-139.91-42-58.89-34.06-139.13,19.46-187.92C934,818.54,970.13,806,1011.18,809.39c65.93,5.47,119.06,54.81,129,119.81,5.74,37.76-2.52,72.56-24.48,104-7.64,10.93-15.39,21.79-23.09,32.69-2,2.87-4.63,4.54-8.29,3.7-3.26-.74-5.51-2.92-5.63-6.16a11.65,11.65,0,0,1,2-6.51c7.11-10.39,14.39-20.66,21.74-30.89A127.31,127.31,0,0,0,1029,827.15C958.88,810,886.82,857.09,874.53,928c-6.21,35.84,1.39,68.48,22.44,98.16q50,70.47,99.69,141.14c.86,1.21,1.74,2.41,2.92,4.05,1-1.37,1.91-2.49,2.74-3.65q18.88-26.73,37.73-53.48c2-2.86,4.41-4.84,8.07-4.28,5.89.9,8.19,7.11,4.51,12.41-7.12,10.24-14.37,20.38-21.56,30.57-5.51,7.8-11,15.62-17,24.08h4.65q46,0,92.06,0c4.44,0,7.3,2,8.3,5.55,1,3.35-.49,6.36-4.14,8.7a7.87,7.87,0,0,0-.82.71Z" transform="translate(-857.39 -808.85)" fill="#8c929f"/><path d="M1067,951.25a67.37,67.37,0,1,1-67.08-67.64A67.49,67.49,0,0,1,1067,951.25Zm-15-.15a52.4,52.4,0,1,0-52.44,52.26A52.48,52.48,0,0,0,1052,951.1Z" transform="translate(-857.39 -808.85)" fill="#8c929f"/><path d="M1067,1097.66a7.46,7.46,0,1,1,7.47-7.27A7.54,7.54,0,0,1,1067,1097.66Z" transform="translate(-857.39 -808.85)" fill="#8c929f"/></svg>