<svg data-name="Layer 1" id="Layer_1" viewBox="0 0 383.12 384" xmlns="http://www.w3.org/2000/svg">
    <path
        d="M808,872.25c2-6.51,3.26-13.41,6.23-19.45,9.85-20.07,26.65-30.37,48.45-33.88,23.74-3.83,47.34-8.47,71-12.79,4.34-.79,6-2.83,6.07-7.16,0-6.62.12-13.25-.08-19.87a5.82,5.82,0,0,0-2-3.92,84.72,84.72,0,0,1-26.61-35.11,5.8,5.8,0,0,0-3.32-2.85c-10.37-3.23-17.14-9.87-19.85-20.47-1.3-5.07-2.76-10.13-3.63-15.28a19.45,19.45,0,0,1,10.16-20.76c2.33-1.26,2.78-2.38,2.2-4.9-6.34-27.4-2.38-53,13.34-76.62a22,22,0,0,1,3-3.86,5.9,5.9,0,0,1,9.52,6.63,23.22,23.22,0,0,1-2.41,3.78A82.31,82.31,0,0,0,907,637.32a31.12,31.12,0,0,0-.28,3.46c5.58-2.7,11-5.36,16.48-8,1-.49,2.13-.72,3.16-1.15,5.48-2.29,10.26-1.79,15.18,2.11A158.31,158.31,0,0,0,959.86,646c18.49,10.84,37.22,10.84,55.68,0,7.51-4.42,14.5-9.73,21.92-14.31a9.91,9.91,0,0,1,6.51-1.18,58.06,58.06,0,0,1,22.22,9.39c.69.47,1.45.84,2.17,1.25l1.17-.51c-2.22-7.07-3.85-14.39-6.75-21.17a81.74,81.74,0,0,0-103.44-44.39c-.7.25-1.39.55-2.1.77-3.87,1.2-7.21-.23-8.3-3.54a5.77,5.77,0,0,1,4.17-7.62c7.5-2.22,15.13-4,22.71-5.93,1.19-.31,2.41-.51,3.62-.76h16.47c5.6,1.13,11.3,1.9,16.79,3.43,48.47,13.54,77.26,61.62,66.7,111.15-.44,2.07-.83,4.15-1.28,6.39.67.42,1.26.84,1.89,1.18,8.87,4.85,12.94,13.47,10.8,23.29-1.06,4.87-2.19,9.75-3.68,14.51-3.59,11.49-11.52,18.06-23.37,19.89a12.14,12.14,0,0,1-3.35.1c-3.25-.41-5.25-2.2-5.51-5.57a5.54,5.54,0,0,1,5.14-6.25c10-.51,14.88-6.34,16.71-15.6.61-3,1.56-6,2.22-9.09,1.48-6.81-2.08-11.31-9-11.42-2,0-4,0-6.31,0,1.51-7.61,2.5-14.94,4.52-22,1.87-6.56-.45-11.06-5-15.19a45,45,0,0,0-18.32-9.76,6.22,6.22,0,0,0-4.4,1c-6.54,4.13-12.73,8.84-19.45,12.64-22.51,12.75-45.14,12.57-67.48-.49-6.35-3.7-12.24-8.18-18.51-12a7.49,7.49,0,0,0-5.41-.79c-8.51,2.55-16.3,6.49-21.36,14.18a10.13,10.13,0,0,0-1.49,6.51c1.33,8.49,3.12,16.91,4.85,25.92-2.45,0-4.63-.06-6.81,0-6,.19-9.75,4.6-8.54,10.5,1,4.88,2.18,9.75,3.62,14.52,2.08,6.86,7.78,10.94,15.27,10.88,2.78,0,4.12.63,5,3.48,10.36,32.76,39.06,52.46,73.19,50.41,4.88-.29,7.61,1.57,7.86,5.36s-2.12,6.18-7,6.56a81.47,81.47,0,0,1-38.75-6.3c-1.12-.48-2.26-.89-3.79-1.49,0,5-.08,9.58,0,14.17.17,7.78-2.78,13.76-9.55,17.85a4.21,4.21,0,0,0-1.4,3.53c3.23,18.79,20,35.17,38.83,37.68,5.25.69,10.67.29,16,.05,3.46-.16,6.29.43,7.59,3.95,1.37,3.74-1.13,7.22-5.56,8a59.45,59.45,0,0,1-62-29.73c-3.36-6.16-5.35-13.06-8.12-20-9.82,1.79-20.22,3.65-30.62,5.56-13.35,2.46-26.77,4.64-40,7.51a47.19,47.19,0,0,0-36.8,45.3c-.26,18.49-.15,37,0,55.49,0,3.67-.78,6.57-3.81,8.7H808Z"
        fill="#3f455b" transform="translate(-808 -558)" />
    <path
        d="M1163.61,942c-7.57-1.83-13.07-6.68-18.37-12.11-12.74-13-25.74-25.8-38.54-38.77-1.73-1.76-3.06-2.07-5.45-1.24-48.25,16.8-97.57-20.07-95.53-71.34,1.43-36.09,30.33-65.54,67.08-68.38,35.42-2.73,68.5,22.81,75.17,57.91,3.26,17.12.59,33.26-8,49.78a14.42,14.42,0,0,1,3.21,2c13.1,13,25.81,26.47,39.27,39.1,16.72,15.7,7.46,39.85-11.4,42.71-.23,0-.43.24-.65.36Zm-86.06-180a60,60,0,0,0-59.92,60.52c.12,32.81,27.17,59.53,60.23,59.47,32.76-.07,59.72-27.3,59.54-60.17C1137.23,788.75,1110.37,761.91,1077.55,762Zm38.5,121.5c14.26,14.3,28.59,28.72,43,43.06a11.21,11.21,0,0,0,11,3.07c9.3-2.21,12.37-13.33,5.46-20.35-13.48-13.69-27.11-27.22-40.7-40.8a5.06,5.06,0,0,0-1-.72Z"
        fill="#3f455b" transform="translate(-808 -558)" />
    <path
        d="M859.66,942c-3-2.12-3.87-5-3.82-8.68.19-12.23.07-24.47.07-36.71,0-.87,0-1.75,0-2.62.27-3.56,2.69-6,6-6a5.8,5.8,0,0,1,5.93,6c.11,14,.2,28-.12,41.94,0,2.05-2.32,4.05-3.56,6.07Z"
        fill="#3f455b" transform="translate(-808 -558)" />
    <path
        d="M1111.21,942c-3-2.12-4.1-5-3.8-8.67.25-3,0-6,.08-9,.13-3.82,2.56-6.32,6-6.32s5.85,2.5,6,6.32.47,7.55-.14,11.19c-.38,2.29-2.33,4.32-3.57,6.46Z"
        fill="#3f455b" transform="translate(-808 -558)" />
    <path d="M939.77,582.46a5.82,5.82,0,0,1-6,5.8,6,6,0,0,1-5.9-6,5.94,5.94,0,0,1,11.88.16Z"
        fill="#3f455b" transform="translate(-808 -558)" />
    <path
        d="M1077.55,773.65c25.39.37,46.69,20.57,47.83,45.67a48.15,48.15,0,0,1-43.57,50.53c-24.71,2.51-48-15.62-51.47-40.48-.74-5.35-.26-10.94.18-16.37.32-4,3.49-6.38,6.82-5.88,3.49.53,5.09,3.32,5.06,7.51-.05,5.68-.63,11.61.73,17,4.75,18.74,23.9,29.86,42.62,25.43a36.08,36.08,0,0,0,26.9-42.58c-3.71-18.54-21.87-31-40.81-28-1.58.25-3.68.77-4.73,0-1.83-1.3-3.79-3.31-4.3-5.37-.69-2.76,1.2-5.16,4.08-5.83C1070.39,774.53,1074,774.19,1077.55,773.65Z"
        fill="#3f455b" transform="translate(-808 -558)" />
    <path
        d="M1048,798.19a5.89,5.89,0,0,1-6.07-5.78,6,6,0,0,1,5.84-6.09,5.87,5.87,0,0,1,6,5.85A5.75,5.75,0,0,1,1048,798.19Z"
        fill="#3f455b" transform="translate(-808 -558)" />
</svg>