<svg id="Layer_1" data-name="Layer 1" xmlns="http://www.w3.org/2000/svg" viewBox="0 0 512 512"><path d="M1256,966c-.62,2.21-1.23,4.42-1.88,6.63-5.5,18.88-17.73,31.2-36.37,37.25-1.42.46-2.88.8-4.77,1.32v29.37c0,7.66-.1,15.33,0,23,.09,5-1.13,9.26-6.1,11.51s-8.62.14-12.26-3q-33.59-28.75-67.33-57.35a12.57,12.57,0,0,0-7-2.62c-6.47-.35-13-.12-20.29-.12v5.87q0,59,0,118c0,33.56-22.56,56.16-56,56.17-54.48,0-109,0-163.44.13a14.13,14.13,0,0,0-8.34,3.08c-22.19,18.65-44.17,37.53-66.24,56.32-1.88,1.6-3.95,3-5.93,4.47h-6c-5.39-3-7.3-7.43-7.08-13.58.37-10.63.1-21.29.1-31.94v-19.29c-2-.53-3.42-.87-4.83-1.33-18.23-5.91-30.33-17.95-36.1-36.26-.79-2.51-1.4-5.07-2.09-7.6V970a4.63,4.63,0,0,0,.73-1.26C750.85,940.25,770.87,924,800,924H900v-6.6c0-39.8-.1-79.61,0-119.41.08-20.88,9.27-36.9,27.43-47.16,5.66-3.2,12.33-4.6,18.53-6.83h90c.52.38,1,.78,1.57,1.13,4.43,2.94,6.28,7.11,5.06,11.43-1.31,4.62-5.09,7.4-10.6,7.41q-37.74.09-75.49,0C933.42,764,920,777.45,920,800.63q0,77.73,0,155.47c0,22.15,13.7,35.89,35.79,35.9q84.24,0,168.47-.08a18.65,18.65,0,0,1,13.11,4.83c16.6,14.42,33.4,28.62,50.13,42.89,1.5,1.28,3.06,2.49,5.13,4.18.14-2,.33-3.34.34-4.73,0-12,0-24,0-36,0-7,3.68-10.67,10.72-11.12,19-1.21,32.23-14.94,32.25-33.88q.12-80,0-160c0-19.86-14.23-34-34-34.1-26-.08-52,0-78,0-5.51,0-9.29-2.79-10.6-7.41-1.22-4.33.63-8.49,5.07-11.43.54-.36,1-.75,1.57-1.13h90a23.1,23.1,0,0,0,2.72,1q29.88,6.46,40.39,35.16c1.17,3.22,1.94,6.59,2.89,9.89ZM807,1224.08c2.34-1.87,3.89-3,5.37-4.3,16.6-14.17,33.28-28.24,49.71-42.6a20.35,20.35,0,0,1,14.45-5.27q84,.22,167.94.08c21.76,0,35.49-13.81,35.5-35.66q0-59.47,0-119v-6.09H939c.48,1.33,1,2.88,1.59,4.42q17.42,46.23,34.83,92.44c2.82,7.49.84,13.08-5.3,15.26-5.76,2-10.58-1-13.43-8.43-2-5.12-4-10.23-5.77-15.41-.86-2.5-2-3.67-4.92-3.64q-24,.25-48,0c-2.94,0-4.06,1.15-4.94,3.63-2.19,6.11-4.41,12.21-7,18.16-2.35,5.44-7.69,7.54-12.75,5.5s-7.41-7.13-5.68-12.7c.39-1.27.86-2.52,1.34-3.76q13.32-35,26.67-69.93c5.5-14.43,11-28.86,16.73-43.91-12.28-13.43-13.33-30.76-12.33-48.59a25,25,0,0,0-2.53-.3c-33.82,0-67.65-.18-101.47.08-17.86.13-32,14.81-32.07,32.94q-.18,81,0,162c0,18,13.65,31.89,31.61,33,8,.48,11.33,4,11.35,12C807.05,1197,807,1210,807,1224.08Zm115.15-200.57-19.9,52.31h39.6C935.4,1058.63,929,1041.75,922.17,1023.51Z" transform="translate(-744 -744)" fill="#fff"/><path d="M1081,744c.79.56,1.6,1.1,2.38,1.67,3.86,2.83,5.57,6.56,4.07,11.23s-4.87,7.11-9.7,7c-4.61-.1-7.81-2.63-9.21-7-1.48-4.67.21-8.4,4.08-11.23.78-.58,1.59-1.12,2.38-1.67Z" transform="translate(-744 -744)" fill="#fff"/><path d="M979.39,903.59l3.94-5.49c1.53,1.42,2.81,2.59,4.08,3.78,8.75,8.2,17.35,16.57,26.27,24.57,8.05,7.22,17.89,9.29,28.42,8.35,13.25-1.18,26.68-15.77,27.75-30.11.71-9.46-.68-18.3-8.23-25.07-5,2.31-9.88,4.68-14.88,6.78-1.19.5-3.33.65-4.07-.06-4.89-4.64-9.52-9.56-13.44-13.57,6.85-4.94,13.48-9,19.24-14,7.76-6.79,8.94-16,7.29-25.72-.94-5.53-4.07-8.25-9.83-9-10.68-1.46-20.09,1.66-28.44,8.26-2.46,1.94-4.82,4-6.85,5.71l-15.86-15.43c14.15-17.55,38.93-20.65,56.4-6.63,10.71,8.59,19.65,18.49,21.31,33.1,1.07,9.48-.24,15.83-6.3,25.15l11.39,12.41c10.85-8.18,21.36-16.06,31.8-24a4.3,4.3,0,0,0,1.66-2.83c.11-11.79.07-23.59.07-35.21-5.73-2.87-12.47,2-17.31-3.33l-12.65-13.86c2.38-.15,3.94-.31,5.5-.33,18.66-.23,37.33-.34,56-.71,3.66-.08,6.37.87,8.78,3.58,4,4.54,8.28,8.89,12.84,13.73-9.53,0-18.8,0-28.08,0-9,0-7.85-.67-7.86,7.63q0,56.49,0,113v5.35l-1.21.78c-5-5.18-10.11-10.28-14.93-15.64-.92-1-.89-3.1-.91-4.7-.12-10.83-.13-21.66-.2-32.49,0-2-.17-3.91-.35-7.68-8.33,6.81-15.63,12.66-22.73,18.74-.88.75-.8,2.73-1,4.16-.26,2.15-.23,4.32-.51,6.46-4,30.42-30.88,37.9-50.29,29.82-8.2-3.41-16.44-7.63-23.29-13.18-10.84-8.77-20.54-18.95-30.69-28.58A33.5,33.5,0,0,1,979.39,903.59Z" transform="translate(-744 -744)" fill="#fff"/></svg>