<svg data-name="Layer 1" id="Layer_1" viewBox="0 0 287.92 408.85"
    xmlns="http://www.w3.org/2000/svg">
    <path
        d="M1008.18,545c4.07.53,8.15,1,12.19,1.61,49.24,7.93,86.06,33.82,108.17,78.38,23.23,46.82,20.7,93.74-5.81,138.69-35.92,60.9-72.56,121.37-108.9,182-6.44,10.74-16.57,10.89-23.14.32Q934.75,855.9,878.85,765.76c-17.57-28.31-25.08-59.09-21.46-92.2,3.88-35.45,19-65.51,45.12-89.94a141,141,0,0,1,67.3-35.27c7.36-1.61,14.93-2.26,22.4-3.35ZM1002,918.68c1.14-1.86,2.05-3.31,2.92-4.77l96.52-161.12c20.73-34.62,24.6-70.95,9.74-108.57-12.38-31.32-34.69-53.68-65.84-66.35-33.74-13.72-67.42-12.26-99.87,4.4-30,15.37-50.24,39.57-59.94,71.76-10.5,34.86-5.57,68.1,13.65,99.11q50.22,81,100.5,162C1000.41,916.22,1001.14,917.29,1002,918.68Z"
        fill="#b3b8c4" transform="translate(-856.5 -545)" />
    <path
        d="M1000.29,760.57a71.91,71.91,0,0,1-71.94-71.73c-.1-39.48,32.23-71.9,71.76-72a71.85,71.85,0,0,1,.18,143.7Zm-.3-23.87a48,48,0,1,0-47.77-48.05A47.86,47.86,0,0,0,1000,736.7Z"
        fill="#b3b8c4" transform="translate(-856.5 -545)" />
</svg>