<svg data-name="Layer 1" id="Layer_1" viewBox="0 0 363.23 391.2" xmlns="http://www.w3.org/2000/svg">
    <path
        d="M998.06,554c1.07.59,2.15,1.18,3.21,1.78a13.66,13.66,0,0,1,6.78,14.23,13.22,13.22,0,0,1-10,10.8,28.79,28.79,0,0,1-6.43.6q-48.51.06-97,0c-29,0-49.18,20.18-49.19,49.27q0,119,0,237.95c0,23.87,14.22,42.58,36.52,47.82a57,57,0,0,0,12.86,1.2c31.7.1,63.41.05,95.11.07a28.42,28.42,0,0,1,5.69.41,13.37,13.37,0,0,1,10.94,14.39,13.59,13.59,0,0,1-12.66,12.55c-.89.08-1.78.07-2.67.07-32.6,0-65.19.07-97.78,0-33.07-.09-60.54-19.32-71.14-50.64a82.65,82.65,0,0,1-4.07-25.82q-.45-119.16-.15-238.33c0-34.06,19.23-61.37,50.74-72.39,5.22-1.82,10.79-2.67,16.2-4Z"
        fill="#3f455b" transform="translate(-817.97 -554)" />
    <path
        d="M1133.92,735.86c-1.45-1.56-2.34-2.57-3.29-3.52q-25.38-25.38-50.78-50.75c-4-4-6.27-8.58-4.73-14.42a13.58,13.58,0,0,1,21.33-7.48,31.73,31.73,0,0,1,3.38,3.08q37.71,37.63,75.39,75.3c8,8,8,15-.06,23q-37.53,37.54-75.12,75a21.93,21.93,0,0,1-7.11,4.92c-5.52,2.17-11.79-.09-15.23-4.87a13.61,13.61,0,0,1,.3-16.34,41.26,41.26,0,0,1,3.37-3.63q24.57-24.59,49.16-49.15c1-1,2.09-1.83,3.14-2.73l-.32-1h-4.28q-106.74,0-213.49,0c-7.92,0-13.08-3.1-15.22-9.08A13.65,13.65,0,0,1,912.21,736c1.51-.15,3-.1,4.57-.1h217.14Z"
        fill="#3f455b" transform="translate(-817.97 -554)" />
</svg>