<svg data-name="Layer 1" id="Layer_1" viewBox="0 0 408.8 272.68" xmlns="http://www.w3.org/2000/svg">
    <path
        d="M1204.6,868.37c-2.49,7.7-6.67,14-14.95,16.22a33.14,33.14,0,0,1-8.65,1.09q-180.84.08-361.68,0c-15,0-23.52-8.6-23.52-23.54q0-112.78,0-225.56c0-14.94,8.54-23.53,23.52-23.53q180.84,0,361.68-.05c12.3,0,20,5.79,23.6,17.39Zm-16.06-229.3c-1.6,1.15-2.68,1.9-3.73,2.68q-80,60-160,119.89a45.36,45.36,0,0,1-9.8,6c-13.66,5.58-26.49,3.79-38.34-5.09q-80.6-60.47-161.21-120.89c-1.1-.82-2.23-1.6-3.59-2.57V858c1.41-1.66,2.35-2.73,3.25-3.84l82.63-102a23.34,23.34,0,0,1,3.25-3.48,7.66,7.66,0,0,1,11.6,9.55,21.91,21.91,0,0,1-2.5,3.58q-41.91,51.81-83.84,103.61c-1,1.3-2,2.65-3.31,4.32h354.52c-1.39-1.76-2.42-3.09-3.47-4.4q-41.93-51.8-83.85-103.61a20.27,20.27,0,0,1-2.66-4,7.46,7.46,0,0,1,2.35-9.27,7.31,7.31,0,0,1,9.24,0,17.33,17.33,0,0,1,3.06,3.11q32.53,40.15,65,80.34c6.91,8.54,13.84,17.06,21.33,26.28ZM825.16,629c1.3,1.09,2,1.7,2.66,2.23q79.48,59.63,159,119.21c8.57,6.43,18.5,6.26,27.28-.33q78.86-59.13,157.68-118.29c1-.74,1.91-1.58,3.39-2.82Z"
        fill="#b3b8c4" transform="translate(-795.8 -613.04)" />
</svg>