<svg id="Layer_1" data-name="Layer 1" xmlns="http://www.w3.org/2000/svg" viewBox="0 0 408.89 170.58"><path d="M1204.6,1055.26c-1.73,7.76-4.6,15-10.55,20.55-7.15,6.75-15.79,9.58-25.46,9.59q-168.48,0-336.95,0c-21.58,0-35.88-14.71-35.9-36.3q-.06-49.11,0-98.23c0-17.51,9.56-30.3,26-34.73a41.84,41.84,0,0,1,10.66-1.16q167.67-.09,335.35-.11c19.75,0,33.88,12.43,36.42,29.52a2.34,2.34,0,0,0,.39.68Zm-204.44,13q84.06,0,168.1,0c12.21,0,19.27-6.56,19.32-18.37q.17-49.71,0-99.44c0-11.54-7-18.35-18.52-18.35q-168.9,0-337.8,0c-11.52,0-18.47,6.82-18.51,18.36-.11,33.14,0,66.29,0,99.44,0,4.63,1.11,8.94,4.29,12.55,4.13,4.69,9.46,5.87,15.45,5.86Q916.31,1068.19,1000.16,1068.24Z" transform="translate(-795.71 -914.83)" fill="#8c929f"/><path d="M889.52,1000.15c3.27,1.9,5.93,3.34,8.49,5,4.83,3,6.25,8,3.67,12.3-2.4,4-7.42,5-12.28,2.39-2.65-1.43-5.23-3-8.13-4.63-.28,4.47-.27,8.45-.85,12.33a7.85,7.85,0,0,1-7.85,6.62,8.1,8.1,0,0,1-8.25-6.64,34.16,34.16,0,0,1-.49-5.54c-.08-2.08,0-4.17,0-6.92-3.21,1.83-5.81,3.37-8.45,4.8-4.86,2.63-9.89,1.6-12.28-2.44-2.56-4.35-1.13-9.23,3.71-12.28,2.56-1.62,5.22-3.06,8.42-4.93-3.06-1.8-5.66-3.28-8.2-4.86-4.94-3.06-6.5-7.85-4-12.18s7.44-5.29,12.56-2.54c2.55,1.37,5,2.85,7.93,4.5.3-4.46.3-8.52.91-12.49a7.92,7.92,0,0,1,8-6.43,8.15,8.15,0,0,1,8,6.45,34,34,0,0,1,.52,5.53c.08,2.12,0,4.24,0,7.13,3-1.69,5.44-3.13,7.94-4.5,5.37-2.95,10.4-2,12.89,2.38s.88,9.18-4.4,12.37C895,997,892.61,998.34,889.52,1000.15Z" transform="translate(-795.71 -914.83)" fill="#8c929f"/><path d="M1119.37,985.28c0-3.74-.11-6.66,0-9.57.27-5.85,3.68-9.56,8.58-9.54s8.26,3.71,8.51,9.61c.13,2.92,0,5.84,0,9.47,3.09-1.75,5.67-3.28,8.31-4.69,5.12-2.73,10.13-1.66,12.54,2.62s.89,9.09-4.09,12.16c-2.47,1.52-5,2.94-8,4.69,3.65,2.33,7.1,4.21,10.18,6.59a8.3,8.3,0,0,1,1.78,10.81,8.46,8.46,0,0,1-10.13,3.37,34.11,34.11,0,0,1-4.24-2.2c-1.94-1.06-3.87-2.14-6-3.35-.28,4.41-.27,8.38-.86,12.27a7.84,7.84,0,0,1-7.86,6.6,8.12,8.12,0,0,1-8.25-6.67,31.39,31.39,0,0,1-.47-5.14c-.08-2.2,0-4.42,0-7.28-3.23,1.83-5.83,3.37-8.48,4.8-4.85,2.62-9.89,1.58-12.26-2.47-2.55-4.36-1.11-9.22,3.74-12.28,2.56-1.6,5.22-3.05,8.44-4.92-3.11-1.82-5.72-3.28-8.27-4.86-4.93-3.06-6.47-7.86-4-12.19s7.44-5.27,12.57-2.51C1113.67,982,1116.15,983.45,1119.37,985.28Z" transform="translate(-795.71 -914.83)" fill="#8c929f"/><path d="M966,1014.9c0,4,.11,7.12,0,10.26-.22,5.38-3.47,8.83-8.24,9s-8.42-3.52-8.66-9c-.14-3.15,0-6.31,0-10.17-3.12,1.78-5.71,3.3-8.33,4.74-5.08,2.78-10.15,1.76-12.53-2.48-2.48-4.4-1-9.14,3.91-12.21,2.47-1.54,5-2.94,8.17-4.76-3.56-2.23-6.87-4-9.86-6.27a8.1,8.1,0,0,1-2.32-10.68,8.38,8.38,0,0,1,10.67-3.63,40,40,0,0,1,4.57,2.42c1.71.95,3.39,1.93,5.72,3.25,0-3.63-.07-6.62,0-9.61.15-5.81,3.54-9.59,8.5-9.58s8.29,3.72,8.44,9.6c.08,2.9,0,5.81,0,9.49,3.45-1.91,6.33-3.65,9.35-5.13,4.55-2.22,9.22-1,11.54,2.91,2.43,4.07,1.22,8.76-3.14,11.76-1.64,1.13-3.44,2-5.15,3.05-1.1.66-2.17,1.37-3.8,2.4,3,1.76,5.66,3.2,8.2,4.79,5.08,3.17,6.51,8.06,3.75,12.51-2.48,4-7.44,4.89-12.32,2.21C971.91,1018.34,969.4,1016.85,966,1014.9Z" transform="translate(-795.71 -914.83)" fill="#8c929f"/><path d="M1051.27,985.38c3.34-1.94,5.92-3.54,8.6-5,4.91-2.59,9.76-1.49,12.24,2.64s1.05,9-3.56,12c-2.56,1.65-5.26,3.09-8.45,5,3.61,2.32,7,4.21,10.09,6.57a8.11,8.11,0,0,1,1.87,10.77,8.37,8.37,0,0,1-10.07,3.48,27,27,0,0,1-3.89-2c-2.06-1.14-4.1-2.33-6.83-3.89,0,3.59.06,6.56,0,9.54-.14,5.84-3.47,9.63-8.42,9.67s-8.36-3.69-8.53-9.52c-.08-2.92,0-5.84,0-9.56-3.52,1.93-6.51,3.73-9.63,5.25-4.3,2.1-9,.79-11.2-2.91-2.41-4-1.43-8.57,2.63-11.57,1.38-1,2.94-1.8,4.42-2.68l5-3c-1.59-1-2.75-1.71-3.94-2.4-9-5.18-11.25-9.19-8.3-14.52s7.89-5.36,17-.13c1.11.64,2.28,1.17,4,2.06,0-3.43,0-6.3,0-9.16.13-6.12,3.49-10,8.58-9.87s8.29,4,8.38,10.13C1051.3,979.05,1051.27,981.82,1051.27,985.38Z" transform="translate(-795.71 -914.83)" fill="#8c929f"/></svg>