<svg data-name="Layer 1" id="Layer_1" viewBox="0 0 263.54 263.57"
    xmlns="http://www.w3.org/2000/svg">
    <path
        d="M1007.51,882H992.06a15.17,15.17,0,0,0-2-.42,125.4,125.4,0,0,1-57.5-18.13c-34.14-20.92-55.15-51.08-62.53-90.54-.92-4.94-1.38-10-2-14.95V742.54c.16-.91.34-1.82.47-2.73.83-5.68,1.3-11.43,2.51-17,6.89-31.64,23.14-57.57,48.92-77.09,32.06-24.29,68.18-32.35,107.56-24.14,31.52,6.57,57.14,23.09,76.75,48.57,21.16,27.51,30,58.84,26.66,93.31a127.31,127.31,0,0,1-32.15,73.66c-20.41,23.09-45.84,37.46-76.23,42.87C1017.53,880.86,1012.51,881.35,1007.51,882Zm-7.73-24c59.29,0,107.56-48.2,107.8-107.65.25-59.16-48.44-107.91-107.79-107.91S892.23,690.68,892,750.13C891.74,809.29,940.44,858,999.78,858Z"
        fill="#f3bd27" transform="translate(-868 -618.45)" />
    <path
        d="M1011.68,722.47c0,12.09.08,24.17,0,36.26,0,4.91-2.65,8.49-7.1,10.43a11.37,11.37,0,0,1-12.7-2,11.94,11.94,0,0,1-4-9.62c0-9.6,0-19.2,0-28.8,0-13.89,0-27.77,0-41.66,0-7.23,4.81-12.35,11.51-12.56,7-.22,12.27,4.94,12.32,12.25.1,11.91,0,23.83,0,35.74Z"
        fill="#f3bd27" transform="translate(-868 -618.45)" />
    <path d="M999.76,826a15.93,15.93,0,1,1,16-15.75A16,16,0,0,1,999.76,826Z" fill="#f3bd27"
        transform="translate(-868 -618.45)" />
</svg>