<svg data-name="Layer 1" id="Layer_1" viewBox="0 0 327.98 385.54"
    xmlns="http://www.w3.org/2000/svg">
    <path
        d="M1006.55,557c3.69.58,7.4,1,11.05,1.76,36.2,7.39,59,31.57,64.06,68.42,3.38,24.8,2.95,49.56-3.64,73.89-5,18.52-13.47,35.08-28.69,47.46-14.93,12.16-32.42,16.56-51.24,16.13-18-.41-34.57-5.53-48.42-17.67-11.84-10.37-19.45-23.47-24.41-38.2-7.76-23.09-9.08-46.86-7.21-71,1.21-15.7,4.5-30.79,12.89-44.31,12.38-20,30.59-31.23,53.6-35,2.58-.43,5.14-1,7.7-1.47Zm55.7,94.53c-.49-6.1-.74-12.39-1.54-18.6-1.41-11-4.5-21.58-11-30.84-8.92-12.76-21.46-19.56-36.59-22.13-15.79-2.68-31.08-1.38-45.2,6.59-17.71,10-25.13,26.56-27.72,45.78a169.68,169.68,0,0,0,.93,52.46c2.66,15.13,7.39,29.51,17.84,41.2,15,16.74,34.36,19.5,55.14,15.74,20.37-3.69,32.39-17.37,39.72-35.77C1060.81,688.54,1062.24,670.21,1062.25,651.53Z"
        fill="#8891ab" transform="translate(-836.56 -557)" />
    <path
        d="M998.77,942.54c-43-.25-86.34-7.57-127.74-24.95-6.58-2.77-12.74-6.51-19.36-9.16-9.29-3.71-12.68-10.95-13.71-20.15-1.8-16.16-2.17-32.3.69-48.37,4.06-22.79,15.9-38.76,39.16-45.06,21.84-5.92,41.87-15.93,60.85-28.11,5.55-3.56,10.51-3.57,14.51,0,5.49,4.88,5,13.25-1.73,17.28-10.73,6.45-21.49,13-32.81,18.27a229.89,229.89,0,0,1-34.41,12.91c-14.63,4.13-21.85,13.83-24.35,27.9-2.41,13.56-2.13,27.22-.85,40.88a7,7,0,0,0,4.3,6.27c24.9,12.65,51.28,20.85,78.69,25.65a331.6,331.6,0,0,0,133.73-3.38c21.79-5.07,42.92-12.12,62.71-22.74a6.44,6.44,0,0,0,3.12-4c2-16.14,2.51-32.3-1.81-48.18-3-11.08-9.89-18.48-21.32-21.62-24.36-6.71-46.91-17.45-68-31.23-3.22-2.09-5.61-4.69-6.07-8.59a10.13,10.13,0,0,1,4.57-10.08,10,10,0,0,1,11.36-.51c4,2.32,7.92,4.82,11.91,7.19a228.89,228.89,0,0,0,53.72,23.06c17.52,5.05,28.74,16.76,34,34.1,5.36,17.6,5.26,35.63,3.7,53.72-.26,3.11-.81,6.21-1.23,9.31-.87,6.42-4.12,10.86-10,14a285.13,285.13,0,0,1-56.74,22.77C1064.56,938.54,1032.79,942.4,998.77,942.54Z"
        fill="#8891ab" transform="translate(-836.56 -557)" />
</svg>