<svg data-name="Layer 1" id="Layer_1" viewBox="0 0 383.13 384" xmlns="http://www.w3.org/2000/svg">
    <path
        d="M808,826.5V591.75a14.29,14.29,0,0,0,.7-2.06c2.3-13.09,9.45-22.54,21.4-28.2,3.2-1.51,6.72-2.34,10.09-3.49h278.45c.18.16.34.42.55.47,21.14,5.3,31.53,18.57,31.54,40.27V723.86c10.23,1.49,20,3.14,29.92,4.3,8.56,1,10.46,2.82,10.46,11.59,0,18.61.06,37.22,0,55.83a141,141,0,0,1-.78,16.83q-10.46,83.82-85.68,122.13c-5.62,2.85-11.6,5-17.42,7.46h-4.49c-1.12-.5-2.21-1.08-3.36-1.5-38-13.93-66.17-39.12-84.57-75.17-1.79-3.52-3.67-4.68-7.55-4.67q-69.6.21-139.2.07c-19.88,0-34.77-11.38-39-29.53C808.7,829.63,808.35,828.07,808,826.5Zm327.57-169.33H823.1v4.24q0,79.5,0,159c0,16.23,9.07,25.33,25.26,25.34H985.29c-2.61-15.16-5.15-29.94-7.75-45H934.73a29.06,29.06,0,0,1-3.37-.09c-4.33-.49-7.3-3.72-7.14-7.7a7.32,7.32,0,0,1,7.66-7.1c14.23-.09,28.45,0,42.67-.05h4.13c0-16.35,0-32.09,0-47.83,0-6.37,2.25-9,8.46-9.59a289.18,289.18,0,0,0,93-25.13,10.86,10.86,0,0,1,9.64,0c6.83,3,13.71,6,20.73,8.53,8.15,3,16.47,5.51,25.06,8.35ZM823.28,641.61h312.29a14.08,14.08,0,0,0,.18-1.44c0-14.49.07-29,0-43.49-.06-14.2-9.62-23.67-23.82-23.67Q979.47,573,847,573c-14.4,0-23.85,9.48-23.9,24-.05,13.75,0,27.5,0,41.25C823.1,639.31,823.21,640.41,823.28,641.61Zm170.6,101.18a17.46,17.46,0,0,0-.23,1.82c0,13.37-.18,26.74,0,40.1.18,10.6-.12,21.34,1.48,31.76,7.64,49.86,34.91,85.1,80.37,106.55,6.32,3,11.81,3.23,18.28.2,46.07-21.63,74.22-57.22,80.63-107.85,2.93-23.15,1.26-46.88,1.73-70.34,0-2.1-1.07-2.36-2.76-2.58a307.93,307.93,0,0,1-85.78-23.57,8.18,8.18,0,0,0-5.5,0c-8.19,3-16.19,6.47-24.4,9.36A297.89,297.89,0,0,1,993.88,742.79Z"
        fill="#3f455b" transform="translate(-808 -558)" />
    <path
        d="M840.19,558c-3.37,1.15-6.89,2-10.09,3.49-12,5.66-19.1,15.11-21.4,28.2a14.29,14.29,0,0,1-.7,2.06V558Z"
        fill="#fff" transform="translate(-808 -558)" />
    <path
        d="M1016.87,677.91c8.11,0,16.21,0,24.31,0,5.18,0,8.52,3,8.54,7.39s-3.4,7.55-8.46,7.57q-24.49.09-49,0c-5,0-8.42-3.29-8.34-7.67s3.32-7.24,8.25-7.28C1000.42,677.86,1008.65,677.91,1016.87,677.91Z"
        fill="#3f455b" transform="translate(-808 -558)" />
    <path
        d="M880.35,713.87c7.47,0,14.95,0,22.43,0,5.32,0,8.49,2.82,8.54,7.33s-3.31,7.62-8.71,7.63q-22.62.07-45.24,0c-5.34,0-8.86-3.16-8.8-7.62s3.46-7.33,9-7.35C865.14,713.84,872.74,713.87,880.35,713.87Z"
        fill="#3f455b" transform="translate(-808 -558)" />
    <path
        d="M880.21,749.87c7.59,0,15.19,0,22.78,0,5.06,0,8.18,2.76,8.33,7.12s-3.09,7.74-8.16,7.77q-22.78.13-45.57,0c-5.08,0-8.44-3.23-8.38-7.62s3.35-7.26,8.59-7.28C865.27,749.84,872.74,749.87,880.21,749.87Z"
        fill="#3f455b" transform="translate(-808 -558)" />
    <path
        d="M876.13,785.81c6.35,0,12.7,0,19,0,5.18,0,8.51,3,8.5,7.4s-3.38,7.46-8.52,7.49q-19,.12-38.1,0c-5.14,0-8.5-3.15-8.49-7.51s3.33-7.34,8.51-7.38C863.43,785.78,869.78,785.81,876.13,785.81Z"
        fill="#3f455b" transform="translate(-808 -558)" />
    <path
        d="M872.21,677.91c5.11,0,10.22-.06,15.33,0,4.62.08,7.84,3.09,8,7.22s-3.21,7.64-7.93,7.7q-15.52.18-31,0c-4.73-.05-8.08-3.48-8-7.68s3.42-7.19,8.31-7.25C862,677.86,867.1,677.91,872.21,677.91Z"
        fill="#3f455b" transform="translate(-808 -558)" />
    <path
        d="M936.09,677.91c5,0,10-.06,14.94,0s8.11,3,8.17,7.32-3.18,7.56-8,7.61q-15.5.18-31,0c-4.79-.07-7.94-3.42-7.79-7.77.14-4.18,3.28-7.08,7.95-7.15C925.64,677.85,930.87,677.92,936.09,677.91Z"
        fill="#3f455b" transform="translate(-808 -558)" />
    <path
        d="M943.11,749.91c2.61,0,5.23-.14,7.82,0a7.18,7.18,0,0,1,6.76,6.74c.28,3.63-2,7.36-5.62,7.64a114.69,114.69,0,0,1-18.16,0c-3.67-.31-5.75-4-5.45-7.74a7.1,7.1,0,0,1,6.83-6.62C937.89,749.78,940.5,749.9,943.11,749.91Z"
        fill="#3f455b" transform="translate(-808 -558)" />
    <path
        d="M876.91,607.32a10.47,10.47,0,0,1-10.26,10.61,10.47,10.47,0,1,1-.26-20.93A10.39,10.39,0,0,1,876.91,607.32Z"
        fill="#3f455b" transform="translate(-808 -558)" />
    <path
        d="M918.8,607.44a10.51,10.51,0,0,1-10.39,10.49,10.46,10.46,0,1,1,0-20.92A10.42,10.42,0,0,1,918.8,607.44Z"
        fill="#3f455b" transform="translate(-808 -558)" />
    <path d="M960.69,607.61A10.44,10.44,0,1,1,950.43,597,10.53,10.53,0,0,1,960.69,607.61Z"
        fill="#3f455b" transform="translate(-808 -558)" />
    <path
        d="M1052.75,792.79c-1.16-12.61,1.18-24,11.27-32.59a31.7,31.7,0,0,1,21.34-7.69c15.58.12,34.72,13.19,32,40.3.78.18,1.58.42,2.4.55,6.63,1,11.42,6,11.49,12.74q.27,26.79,0,53.59a12.9,12.9,0,0,1-13.16,13.1q-33.1.26-66.2,0c-7.89,0-13.27-5.79-13.3-13.69-.06-16.49,0-33,0-49.47C1038.53,798.93,1041.7,795,1052.75,792.79Zm14.47.18h35c0-3.14.1-6,0-8.86-.34-8.59-6.7-15.34-15.48-16.51-7.8-1-16,3.95-18.12,11.86C1067.42,783.68,1067.64,788.27,1067.22,793Zm26,57.53c0-3.26.07-6.35,0-9.44a12.78,12.78,0,0,1,2.06-8c3.26-4.92,1.83-11.33-2.77-15.12a11.72,11.72,0,0,0-15.12.12c-4.58,3.9-5.92,10.24-2.56,15.15a12.1,12.1,0,0,1,2,7.67c-.06,3.2,0,6.4,0,9.64Z"
        fill="#3f455b" transform="translate(-808 -558)" />
    <path
        d="M1067.22,793c.42-4.7.2-9.29,1.34-13.51,2.14-7.91,10.32-12.9,18.12-11.86,8.78,1.17,15.14,7.92,15.48,16.51.11,2.85,0,5.72,0,8.86Z"
        fill="#fff" transform="translate(-808 -558)" />
</svg>