<svg data-name="Layer 1" id="Layer_1" viewBox="0 0 512 422.57" xmlns="http://www.w3.org/2000/svg">
    <path
        d="M744,917V660c.21-.26.55-.48.6-.76,4.24-26.07,27.75-44.19,55.15-43.45,33.63.9,67.3.22,101,.22h6.12c0-13.47-.4-26.13.09-38.75.85-22,16.89-37.94,38.85-38.16,36.15-.37,72.31-.31,108.46,0,18.86.15,33.65,12.07,37.83,30.29,1.39,6.06,1,12.56,1.16,18.87.17,9.11,0,18.23,0,27.76h6q52,0,104,0c17.28,0,31.25,6.69,42.08,20.16,5.66,7,8.29,15.36,10.67,23.84V917c-3.38,7.86-5.59,16.55-10.39,23.42-10.46,15-25.71,21-44,21q-201.61-.24-403.22-.09c-2.49,0-5,0-7.49-.21-13.62-1-24.72-7.08-33.89-17C749.91,936.34,746.4,926.94,744,917Zm481.66-174h-141c0,3.94,0,7.56,0,11.19-.55,33.17-24.38,56.74-57.51,56.83-18.83,0-37.66.15-56.49,0a55.12,55.12,0,0,1-55-50.94c-.46-5.58-.06-11.22-.06-17.09H774.77a33,33,0,0,0-.41,3.61q0,81,0,162c0,9.48,3.69,17,12.79,20.67a30.59,30.59,0,0,0,11.21,1.74q201.71.14,403.41.07c1.66,0,3.34,0,5-.14,8.66-.85,16-6.85,18-15.05a37.57,37.57,0,0,0,.88-8.92q.08-79.24,0-158.48ZM774.79,711.73h450.42c0-16.17.39-32-.16-47.75-.29-8.18-7-15.06-14.92-16.81a43.64,43.64,0,0,0-9.43-.78q-200.71-.06-401.43,0a55.85,55.85,0,0,0-7,.41c-9.23,1.16-17,8-17.34,17.23C774.33,679.78,774.79,695.59,774.79,711.73Zm162.28-96.14H1063V582.27c0-10.38-2.58-13-13-13H950a33.58,33.58,0,0,0-4.49.18c-5.28.72-8.3,3.58-8.39,8.84C936.93,590.63,937.07,602.94,937.07,615.59Zm9.49,127.33c-.27.51-.55.79-.55,1.08-.07,3.16-.16,6.32-.14,9.49.12,16.6,10,26.91,26.62,27.13,18.32.23,36.64.19,55,0,13.55-.14,23.66-7.54,25.93-19.67,1.08-5.73.19-11.83.19-18Z"
        fill="#3f455b" transform="translate(-744 -538.81)" />
</svg>