<svg data-name="Layer 1" id="Layer_1" viewBox="0 0 408.84 408.87"
    xmlns="http://www.w3.org/2000/svg">
    <path
        d="M1204.6,705.49c-2.15,6.54-4.83,13-11.39,16.08a38.08,38.08,0,0,1-14.4,3.71c-14.62.47-29.27.24-43.91.11a9.11,9.11,0,0,0-7.32,2.94c-8.14,8.41-16.49,16.62-24.79,24.89-5.54,5.51-9.42,5.51-15,0-8.58-8.54-17.11-17.14-25.73-25.64-1-1-2.38-2-3.6-2-17.94-.13-35.89-.09-52.86-.09-4.14,14.06-8.13,27.6-12.28,41.67h4.08c19.16,0,38.32-.06,57.48,0,12.77.06,22.71,5.25,28.35,17.06,4.21,8.81,3.7,17.75-.83,26.68,12.55,5,20.32,13.85,20.67,27.57s-6.78,22.75-19.22,28.45c4.27,8.21,5.31,16.64,2,25.35a29.52,29.52,0,0,1-17.46,17.24c1,5.43,2.75,10.58,2.67,15.7-.24,16-12.64,28.39-29,28.5-37.25.25-74.51.15-111.77-.07-13.18-.08-25.77-3.53-37.86-8.66-2.68-1.14-4.33-1.09-6.35,1.36-4.32,5.24-10.33,7.4-17,7.44-16.77.11-33.54.19-50.3,0-13.29-.16-23-9.78-23-23.09q-.21-70,0-140.12c0-12.64,8.25-22.42,20.82-22.94,18.45-.76,37-.21,55.44,0,5.11.06,9.51,2.39,13.08,6,1.47,1.49,2.65,1.67,4.48.62,5-2.86,10.05-5.44,15-8.26a60.22,60.22,0,0,0,27.68-32.81q8.45-23.22,16.82-46.46c3-8.14,5.81-9.48,14.28-7,8.32,2.42,16.58,4.87,23.47,10.5a43.77,43.77,0,0,1,12.86,16.53c.93,2.17,2.14,2.84,4.46,2.83,18.76-.09,37.52,0,56.28-.11a13.64,13.64,0,0,1,10.61,4.44c7.86,8.09,15.89,16,24.14,24.3,7.54-7.55,15-14.55,21.88-22.08,4.5-4.91,9.38-7,16.11-6.74,14.89.45,29.8.15,44.7.13,7.88,0,10.65-2.73,10.66-10.51q0-63.68,0-127.34c0-7.87-2.74-10.65-10.52-10.65H865.53c-7.87,0-10.64,2.74-10.64,10.53q0,63.68,0,127.35c0,7.85,2.74,10.6,10.53,10.63,3.73,0,7.46-.1,11.18,0,5.13.18,8.67,3.64,8.56,8.12s-3.54,7.61-8.5,7.78c-4.25.14-8.51.08-12.77,0-14.71-.2-24.82-10.22-24.95-24.92-.12-13.3,0-26.61,0-39.92V575.17c0-18,3.58-23.45,20-30.17h325.76c2.08.8,4.21,1.51,6.24,2.43,7.61,3.45,11.38,9.94,13.72,17.53Zm-241.93-9c-5.07,14-10.11,27.66-15,41.41-5.64,15.76-15,28.74-29,38-7.28,4.85-15.12,8.88-22.85,13-2.59,1.38-3.47,2.91-3.46,5.83q.15,64.47.07,128.94a5,5,0,0,0,.05,2c.49,1.05,1,2.47,1.94,2.86,13.14,5.76,26.75,9.45,41.28,9.33,18.09-.15,36.19,0,54.29,0q24.94,0,49.89,0a22.6,22.6,0,0,0,5.52-.56,13.12,13.12,0,0,0,9.84-14.09,12.8,12.8,0,0,0-12.06-11.76c-9.17-.35-18.36-.13-27.53-.24-6.36-.07-9.88-2.95-9.92-7.92s3.45-7.92,9.76-8c2.93-.05,5.86,0,8.79,0,10.77,0,21.56.23,32.33-.13a21.29,21.29,0,0,0,10.05-2.92c4.77-2.92,6.29-9.16,4.54-14.53s-6.77-9.1-13.17-9.14c-13.84-.1-27.68,0-41.52-.05a22.21,22.21,0,0,1-4.76-.32,7.64,7.64,0,0,1-6-7.47,7.31,7.31,0,0,1,5.77-7.6,20.93,20.93,0,0,1,5.12-.55q28.14,0,56.28,0c4.37,0,8.18-1.2,11-4.55,3.61-4.21,4.46-9.07,2.18-14.14s-6.59-7.87-12.35-7.88c-18.89,0-37.79,0-56.68,0a24.22,24.22,0,0,1-5.52-.54,7.43,7.43,0,0,1-5.82-8,7.57,7.57,0,0,1,6.7-7.27,32,32,0,0,1,4.38-.18c12.38,0,24.75,0,37.13,0a28.64,28.64,0,0,0,5.93-.53,13,13,0,0,0,10.06-15c-1.21-7.15-6.63-11.27-15.08-11.29q-35.32,0-70.65,0c-9,0-12.13-4.34-9.29-12.78,3.76-11.21,7.69-22.36,11.32-33.61C992.3,717.87,981.86,699.87,962.67,696.48ZM852.09,783.29v5.35q0,44.52,0,89a29.39,29.39,0,0,1-.41,5.55,7.75,7.75,0,0,1-15.14,0,29.39,29.39,0,0,1-.4-5.55q0-44.52,0-89v-5.53c-5.41,0-10.3,0-15.19,0-6.74.06-9.14,2.45-9.15,9.16q0,68.26,0,136.53c0,6.71,2.39,9,9.22,9H866.5c7.87,0,9.94-2.06,9.94-9.91V792.58c0-.8,0-1.6,0-2.39-.2-3.85-2.2-6.56-6-6.8C864.52,783,858.55,783.29,852.09,783.29Z"
        fill="#3f455b" transform="translate(-795.76 -545)" />
    <path d="M1204.6,565c-2.34-7.59-6.11-14.08-13.72-17.53-2-.92-4.16-1.63-6.24-2.43h20Z"
        fill="#fff" transform="translate(-795.76 -545)" />
    <path
        d="M1126.4,592a11.56,11.56,0,0,1,10.15,6,117,117,0,0,1,5.46,10.63c1,2.28,2.3,3.53,5,3.68a91.64,91.64,0,0,1,10.25,1.47c5.11.87,8.84,3.56,10.6,8.55s.4,9.42-3.09,13.24a21.09,21.09,0,0,1-3.7,3.62c-6.06,3.94-7,9.28-4.94,15.77a23.9,23.9,0,0,1,.89,6.7,12.36,12.36,0,0,1-16.75,11.95,71.82,71.82,0,0,1-10.68-5.32c-2.54-1.48-4.66-1.76-7.26-.09a92.87,92.87,0,0,1-9.15,4.85,12.16,12.16,0,0,1-13.53-1.23c-4.17-3.14-6.22-7.72-4.66-12.69,3-9.55,1.32-16.95-7.21-22.94-4.45-3.13-5.73-8.26-4-13.64s6-8.73,11.64-8.75c9.47,0,15.37-4,18.31-13.16C1115.5,595.1,1119.86,592,1126.4,592Zm-14.56,63.64c9.56-7.26,18.65-7,28.2,0-4-11.32-.93-20,8.6-27-12.18.34-19.28-5.44-22.82-16.66-3.41,11.6-10.93,16.88-22.89,16.83C1113,635.61,1115.34,644.4,1111.84,655.59Z"
        fill="#3f455b" transform="translate(-795.76 -545)" />
    <path
        d="M891.6,659.76c.5-3,1.4-7.35,1.84-11.69a6.49,6.49,0,0,0-1.43-4.41c-2.44-2.79-5.31-5.2-7.92-7.86-3.76-3.82-5.12-8.42-3.38-13.53s5.68-7.82,11-8.61c2.89-.44,5.78-1.26,8.66-1.22,3.92,0,5.57-2.07,6.91-5.26A61.34,61.34,0,0,1,912,598c5.27-8.24,16.29-8.24,21.49,0,2.25,3.58,3.76,7.62,5.94,11.26a6.55,6.55,0,0,0,3.78,2.7c3.48.82,7.08,1.14,10.62,1.67,5.31.79,9.24,3.54,10.94,8.66s.38,9.71-3.43,13.53c-2.63,2.63-5.48,5.06-7.92,7.86a6.62,6.62,0,0,0-1.38,4.43c.29,3.43,1.14,6.8,1.69,10.21.87,5.38-.32,10.12-4.85,13.48s-9.82,3.85-14.18.63c-8.25-6.07-15.4-5.47-24-.06C901.65,678.11,891.39,671.46,891.6,659.76Zm31.71-47.35c-3.2,4.57-5.24,9.51-8.92,12.18s-9.12,3.19-14.59,4.89c10.3,6.18,12.19,15.11,9,26.13,9.53-7.42,18.61-6.83,28.1-.14-3.88-11.28-.84-19.85,8.63-26.83C933.48,629,926.3,623.39,923.31,612.41Z"
        fill="#3f455b" transform="translate(-795.76 -545)" />
    <path
        d="M1024.22,592c5.33,0,9.08,2.6,11.55,7.14,1.72,3.14,3.34,6.35,4.77,9.63,1,2.18,2.2,3.3,4.7,3.46,3.44.23,6.84.93,10.25,1.47,5.12.81,8.93,3.44,10.73,8.37,1.87,5.12,1,10.29-3.24,13.45-8.26,6.19-11.16,13.32-7.85,23.43,1.67,5.09-.43,10-5.15,13.22s-9.84,3.3-14.22.08c-7.82-5.76-15-5.86-22.83,0-4.67,3.46-10.16,3.13-14.88-.47a12.06,12.06,0,0,1-4.49-13.87c2.68-8.61,1.31-15.4-6.49-20.83a12.27,12.27,0,0,1-4.86-14.48c1.86-5.86,6.42-8.52,12.37-9a9.66,9.66,0,0,1,1.56-.28c8.48.63,12.8-4,15.43-11.49C1013.56,596,1017.52,592,1024.22,592ZM1047,629.42c-5.37-1.7-10.79-2.2-14.58-4.95s-5.68-7.66-8.91-12.34c-2.72,11.84-10.48,16.57-22.16,16.68,10.15,6.76,12.19,15.66,9,26.76,9.59-7.49,18.68-6.69,28.13,0C1034.57,644.37,1037.33,635.7,1047,629.42Z"
        fill="#3f455b" transform="translate(-795.76 -545)" />
    <path d="M911.36,709.54a7.92,7.92,0,1,1-8,7.73A8,8,0,0,1,911.36,709.54Z" fill="#3f455b"
        transform="translate(-795.76 -545)" />
    <path d="M836.26,910.38a7.85,7.85,0,1,1,15.7-.11,7.85,7.85,0,0,1-15.7.11Z" fill="#3f455b"
        transform="translate(-795.76 -545)" />
</svg>