<svg data-name="Layer 1" id="Layer_1" viewBox="0 0 383.89 385.34"
    xmlns="http://www.w3.org/2000/svg">
    <path
        d="M889.79,557c12.3,2.4,21.16,10.15,29.56,18.77,14.87,15.27,30.27,30,44.78,45.65,13.62,14.67,13.56,34.47.13,49.37-9.3,10.33-19.4,20-29.31,29.71-2,2-2.46,3.36-1.19,6,9.91,20.74,24.26,38.26,39.76,54.91,15.87,17,33.32,32.28,53,44.83,5.37,3.43,11.15,6.22,16.66,9.44,1.88,1.1,3,.77,4.48-.74,8.35-8.51,16.57-17.15,25.33-25.21,4.73-4.35,10-8.66,15.81-11.2,14.94-6.54,28.63-2.88,40.06,8.2,16.57,16,32.62,32.64,49.09,48.81,17,16.73,18.48,38.91,2.65,56-11.67,12.59-23.56,25.05-36.27,36.55-13.6,12.31-30.58,15.36-48.47,13.92-28.1-2.26-53.82-12.19-78.74-24.62a392.5,392.5,0,0,1-100.05-70.64c-44.37-43.37-80.11-92.61-100.51-151.9-5.7-16.58-9.23-33.56-8.76-51.22.43-16.58,5.81-31.19,17.48-43.16q15.22-15.63,30.82-30.9A47,47,0,0,1,880,557ZM1102.4,922.93c11.76.29,22.59-2.65,31.12-10.9q16.89-16.32,32.81-33.66c8-8.64,7.84-18.12-.35-26.54-16.87-17.34-34-34.41-51.33-51.35-6.73-6.61-15.28-6.76-22.93-1.18a48,48,0,0,0-5.34,4.74c-9.34,9.29-18.61,18.64-28,27.9-6.27,6.21-12.82,7.29-20.54,3.35-5.47-2.78-10.94-5.59-16.2-8.74-23.74-14.22-44.48-32.13-63.23-52.36-17.35-18.74-33.16-38.59-43.73-62.13-4.6-10.25-3.55-15.8,4.49-23.55,9.21-8.87,18.4-17.77,27.35-26.91,10.5-10.74,10.43-19.46.17-30.37-.17-.19-.35-.36-.53-.54-15.42-15.43-30.81-30.91-46.33-46.25a31.11,31.11,0,0,0-8.41-6.19c-8.54-4-15.67-.49-21.78,5.45-9.89,9.62-19.82,19.22-29.17,29.35a52.78,52.78,0,0,0-9.93,15.27c-5.19,12.51-3.83,25.63-1.23,38.5,4.95,24.53,14.4,47.49,26.67,69.13C899.86,813.31,961.25,871.82,1043,908,1061.92,916.41,1081.56,922.18,1102.4,922.93Z"
        fill="#b3b8c4" transform="translate(-807.74 -557)" />
</svg>